; Drill file
; Format: 2.4 (00.0000)
M48
INCH
T01C0.0157
T02C0.0236
T03C0.0283
T04C0.0315
T05C0.0394
T06C0.0425
T07C0.0472
T08C0.063
T09C0.0709
T10C0.0827
T11C0.0945
T12C0.1378
%
G05
G90
T01
X011980Y-028880
X011190Y-026330
X009940Y-024890
X008420Y-025560
X007700Y-024870
X004270Y-022390
X010220Y-020080
X010940Y-019810
X012660Y-020310
X013690Y-020090
X014620Y-020830
X015170Y-021080
X014470Y-021580
X013810Y-021340
X012950Y-021830
X012660Y-021560
X012360Y-022340
X012970Y-022830
X013530Y-022340
X014060Y-022830
X014060Y-023330
X014520Y-023330
X014770Y-023830
X015020Y-024330
X013530Y-026310
X018370Y-022230
X018730Y-021190
X018390Y-019940
X018720Y-018520
X018390Y-017050
X018770Y-013590
X018110Y-013080
X017810Y-012440
X017270Y-013730
X016110Y-012380
X017060Y-010860
X018870Y-010840
X019530Y-008640
X020060Y-008440
X021220Y-006980
X021910Y-006760
X022810Y-006590
X023640Y-005780
X024390Y-005910
X025380Y-005840
X025870Y-005840
X026970Y-005500
X027980Y-005300
X028880Y-005050
X029620Y-005700
X030090Y-005090
X030770Y-004840
X030750Y-004110
X031080Y-003860
X031920Y-003970
X032630Y-004500
X033660Y-004200
X033770Y-005080
X034860Y-004750
X035280Y-005690
X035720Y-005750
X036420Y-005440
X036720Y-004720
X036830Y-004170
X036580Y-003610
X036270Y-003860
X035980Y-002920
X035770Y-002280
X037370Y-002050
X038370Y-002060
X038810Y-001700
X038530Y-003700
X039030Y-004270
X037370Y-000200
X037910Y001090
X037970Y002190
X036880Y002940
X035780Y002800
X034700Y001690
X035830Y001200
X036810Y001500
X034440Y-000500
X033180Y000280
X032670Y000440
X031910Y000730
X031220Y001050
X030720Y001050
X030950Y001550
X032190Y001860
X033170Y002450
X031200Y003840
X030700Y003840
X030200Y004030
X029700Y003730
X029200Y003220
X028410Y003120
X028020Y002920
X027750Y003330
X027090Y003910
X026300Y003780
X026060Y002920
X025500Y002920
X025470Y002440
X025970Y002140
X025610Y001500
X026480Y001190
X026230Y000390
X027750Y-000160
X028000Y000340
X028300Y000090
X029200Y-000360
X030200Y-000160
X031750Y-000360
X032450Y-002750
X030340Y-003310
X028520Y-003060
X027360Y-002920
X027720Y-004410
X026300Y-004300
X025670Y-003750
X023970Y-003160
X022890Y-004170
X023380Y-004600
X023920Y-004890
X021810Y-005250
X021280Y-005090
X019910Y-005280
X019480Y-004550
X018950Y-004800
X018560Y-004800
X017910Y-004530
X017380Y-004690
X017250Y-005250
X016660Y-005250
X016840Y-004200
X016350Y-003660
X017190Y-003120
X017520Y-002940
X017910Y-003270
X018800Y-002110
X018950Y-001030
X019270Y-000820
X019690Y-001110
X020730Y-000960
X021230Y-001140
X021270Y-000470
X020750Y000330
X019750Y000890
X018950Y000660
X019680Y001880
X020200Y002340
X020590Y001910
X020860Y002250
X021750Y001130
X022000Y001380
X022410Y001480
X022450Y000770
X023480Y001500
X023860Y001190
X022660Y003060
X022890Y003770
X024500Y003620
X024190Y005230
X023190Y005860
X023500Y006950
X023300Y007970
X023670Y008470
X023500Y009640
X023420Y010410
X023090Y010870
X021780Y011110
X021480Y011630
X021720Y011980
X021020Y012070
X020620Y011500
X020950Y010870
X021280Y010470
X020360Y009000
X020360Y008590
X020530Y008230
X020860Y008660
X019900Y009230
X019360Y007730
X019500Y007200
X019830Y006890
X019780Y006340
X019780Y005280
X020170Y005230
X020090Y004780
X020610Y004270
X019490Y003840
X018840Y003750
X018370Y003750
X017520Y003840
X016340Y003860
X015810Y003750
X015270Y003770
X014770Y004000
X013950Y003920
X013470Y003750
X012830Y002980
X012390Y003000
X011880Y002910
X011110Y003030
X011110Y002560
X011170Y003750
X011670Y003750
X012550Y004890
X012560Y005450
X012520Y005910
X013360Y005750
X013360Y005280
X014200Y004740
X014770Y005690
X014770Y006390
X016170Y006250
X016390Y005860
X016750Y006390
X016420Y006890
X016830Y008230
X016980Y008930
X016980Y009470
X016160Y008800
X014920Y008950
X014560Y010230
X015770Y010080
X017830Y008630
X017970Y008140
X018020Y007640
X018050Y007140
X017880Y005840
X016880Y005370
X016520Y002450
X016110Y002450
X015700Y002450
X015310Y002470
X015830Y001940
X016140Y001550
X016550Y001950
X016940Y002160
X018390Y002440
X018830Y002440
X019220Y002440
X017140Y000660
X016810Y000330
X016220Y000370
X015530Y001020
X015450Y001520
X014620Y001380
X014200Y001360
X013670Y001360
X013300Y001310
X012910Y001310
X012440Y001310
X014580Y002020
X015060Y000220
X012280Y-001050
X011280Y-002050
X012620Y-003840
X013170Y-003750
X013870Y-004870
X014410Y-004890
X014940Y-005590
X013640Y-006340
X011940Y-006340
X011640Y-006090
X011390Y-005480
X011480Y-005060
X011140Y-004870
X011060Y-004520
X009580Y-004970
X009140Y-005000
X009380Y-005530
X009080Y-005830
X008780Y-006840
X007830Y-006580
X007530Y-006300
X007670Y-007440
X007670Y-008440
X008270Y-008250
X009090Y-007840
X009380Y-009060
X009120Y-009380
X008810Y-010120
X008830Y-010730
X009380Y-011440
X009380Y-011920
X008870Y-011670
X008970Y-013530
X011340Y-014910
X014340Y-010590
X017090Y-008590
X018090Y-006500
X018700Y-006520
X017940Y-005300
X019800Y-003410
X020770Y-003220
X021770Y-003170
X022630Y-000940
X024310Y-001000
X027500Y001480
X026970Y002280
X028950Y001530
X026860Y005020
X027250Y005280
X026730Y005940
X026200Y005550
X025640Y005390
X025390Y006940
X026050Y007890
X025530Y008190
X025410Y008690
X025840Y008690
X025700Y009340
X024870Y008690
X024440Y009970
X024420Y011830
X023560Y012730
X022660Y012700
X022270Y012940
X021770Y014300
X019950Y014330
X018890Y014300
X018460Y014330
X017690Y014390
X017140Y014330
X016480Y014330
X015910Y014590
X015480Y014860
X015310Y014440
X014670Y014420
X013660Y015090
X013330Y014730
X013080Y015690
X014130Y016230
X014640Y016230
X015030Y016220
X015870Y017090
X016940Y017530
X017250Y017120
X017700Y016420
X018340Y016940
X018910Y016980
X019410Y017080
X019110Y017950
X018690Y017950
X018250Y018090
X019830Y018230
X020410Y018230
X020870Y018410
X021700Y018700
X022050Y018830
X022450Y018860
X022910Y018700
X023280Y018470
X023360Y019490
X022590Y019810
X022160Y019670
X021530Y019780
X021630Y020620
X021630Y021880
X021470Y022630
X021830Y024230
X022640Y024660
X023140Y024410
X023560Y024670
X024110Y024670
X024390Y023640
X024890Y023530
X025830Y023530
X026700Y024700
X030610Y024920
X031310Y025270
X032160Y025530
X033120Y025020
X034130Y023440
X034190Y022370
X035030Y022530
X035030Y021280
X034620Y020770
X033920Y021120
X033620Y020770
X033120Y021080
X032630Y021060
X031380Y021780
X030620Y021890
X030020Y021530
X029520Y020780
X030620Y023080
X031380Y023080
X031880Y019380
X033030Y019130
X033590Y019470
X033890Y019170
X035160Y017580
X035660Y017620
X035920Y018120
X037160Y019440
X035640Y020780
X037140Y023050
X037140Y023520
X037640Y023520
X038080Y023520
X038090Y023140
X038120Y022720
X039110Y023520
X039550Y023530
X039200Y025550
X040480Y026450
X041530Y027660
X042050Y027660
X042590Y027360
X044670Y029270
X045670Y029420
X045190Y030330
X046640Y029000
X047160Y028860
X046160Y027450
X046800Y025750
X046410Y025410
X047200Y023970
X047560Y023060
X047660Y022580
X048720Y023060
X049670Y023250
X050670Y022940
X050690Y022020
X051700Y023020
X051670Y024110
X051670Y025090
X051660Y026110
X051660Y027110
X053880Y026110
X053880Y025000
X054230Y024250
X053720Y023860
X054250Y023370
X054250Y022860
X054080Y021860
X055140Y021750
X055950Y021170
X057190Y021770
X056890Y022410
X056880Y023370
X057690Y023370
X058310Y023590
X059410Y024440
X060390Y023860
X061000Y024640
X061700Y024730
X062220Y024690
X063200Y024640
X063700Y023110
X063590Y022300
X064200Y022250
X064700Y023110
X065230Y022860
X066160Y022550
X066970Y022110
X067160Y022950
X068560Y022160
X069470Y022110
X070030Y022060
X069220Y020800
X068700Y020800
X067720Y020610
X067450Y020050
X066720Y020660
X066220Y020310
X065550Y019590
X065670Y018610
X065170Y018530
X064410Y018420
X063980Y018230
X063610Y018110
X062870Y018310
X063050Y019750
X062720Y020360
X062110Y020560
X061060Y019660
X060200Y019340
X058020Y018860
X056860Y018840
X055700Y018550
X056400Y017460
X057480Y017360
X058470Y017690
X058970Y016110
X059920Y015360
X060410Y015360
X060560Y016170
X061360Y016020
X062360Y016770
X063770Y016880
X064330Y016310
X064830Y015800
X063860Y015390
X065050Y014420
X065560Y013910
X066530Y013950
X066220Y014750
X063950Y013590
X063500Y012560
X064550Y012020
X065130Y012060
X066140Y011360
X063880Y011090
X063980Y010110
X063980Y009120
X062980Y009120
X062970Y010110
X062550Y010470
X062730Y011090
X060410Y010120
X060470Y009420
X060720Y008730
X059970Y008480
X060330Y008020
X059690Y007860
X059410Y008670
X059560Y009080
X058120Y009730
X057280Y009630
X056470Y009120
X056120Y008630
X055620Y007870
X055530Y007390
X054830Y007230
X054390Y007230
X054470Y006220
X055530Y005590
X055920Y005580
X056450Y006020
X057280Y006700
X056480Y007580
X057130Y008230
X057580Y010610
X057580Y011110
X057480Y012120
X058060Y012130
X058380Y012610
X058170Y013470
X057580Y013560
X056970Y013560
X056020Y013470
X055410Y013870
X054420Y013470
X054220Y012810
X053920Y012060
X054690Y011880
X054830Y011370
X056080Y012120
X054360Y009640
X053580Y009220
X053080Y009380
X053220Y010120
X051470Y010120
X050550Y009970
X050520Y010420
X050410Y011220
X051110Y011170
X051500Y011880
X050470Y012190
X050420Y012730
X050860Y013580
X051360Y013670
X051810Y013630
X052370Y013770
X051970Y013020
X053520Y013860
X054700Y015620
X054860Y016370
X055270Y016670
X055980Y016110
X057720Y016110
X059390Y012220
X060220Y011470
X060130Y010860
X060720Y012970
X062480Y013860
X065220Y017410
X063700Y020700
X062200Y022470
X061690Y022160
X061220Y022720
X061700Y023120
X062670Y026800
X063170Y026800
X063730Y027060
X063550Y028300
X061970Y027700
X061580Y027000
X061620Y028560
X061580Y029080
X060890Y028550
X060330Y028360
X060300Y029090
X060160Y030750
X061070Y031130
X060590Y032140
X062060Y032140
X062310Y031160
X063610Y031160
X063360Y032120
X064120Y033730
X065660Y033840
X067110Y032140
X067190Y031060
X065690Y031090
X064950Y031090
X067640Y029440
X068200Y028970
X068720Y029200
X067640Y028090
X067190Y026840
X066550Y025730
X066110Y024700
X065200Y024810
X065690Y027090
X067830Y024690
X068360Y024550
X068270Y025130
X069200Y025190
X069220Y024560
X069860Y025300
X070500Y024420
X071230Y024410
X071920Y023110
X072170Y025800
X070950Y027000
X072390Y027580
X072390Y028480
X072390Y029160
X072390Y029720
X072390Y030300
X072390Y031110
X072440Y031780
X070440Y032330
X069440Y032340
X069690Y031340
X068690Y031340
X070420Y033590
X071200Y029390
X073330Y028250
X074470Y027840
X075810Y029840
X075750Y031690
X077940Y031970
X079250Y032120
X080560Y032080
X081640Y032030
X081720Y029640
X081250Y028940
X082810Y029470
X085090Y029590
X085310Y030500
X086890Y029900
X084230Y032230
X079440Y028940
X079000Y028940
X078280Y029250
X077220Y027660
X077720Y027340
X078470Y027340
X079120Y025800
X079190Y023680
X079630Y023560
X079660Y023060
X079690Y022660
X079190Y022660
X078720Y022660
X078420Y022250
X078440Y021750
X078950Y022020
X078980Y021520
X078980Y020800
X078720Y019340
X078220Y018940
X079220Y018690
X079750Y019220
X080720Y019450
X080640Y020140
X080250Y016590
X079750Y016560
X078750Y015770
X078250Y015520
X079750Y014910
X080250Y014890
X080770Y014880
X080250Y013440
X079770Y013440
X079230Y013470
X079240Y011860
X078770Y011860
X078270Y011860
X078270Y010840
X077800Y010870
X077270Y011000
X077020Y011810
X078810Y010890
X079770Y011860
X080270Y011880
X080250Y009520
X079750Y009520
X080770Y009530
X082670Y009560
X082670Y009140
X082480Y007660
X082380Y006970
X082080Y006700
X081360Y005170
X081530Y004770
X081200Y004520
X081610Y003810
X081920Y004000
X081640Y003360
X080780Y002420
X080300Y002420
X079770Y002470
X079030Y002330
X077530Y002580
X078250Y004220
X078780Y004310
X078530Y004690
X078780Y006220
X078280Y006220
X077020Y006170
X076500Y007720
X076280Y009360
X075770Y009360
X075270Y009360
X074770Y009360
X074280Y009360
X074520Y010360
X075020Y010590
X074270Y011800
X072580Y014640
X072580Y015050
X072140Y015810
X070950Y015410
X071090Y014950
X069560Y014340
X070830Y016700
X074250Y017360
X074750Y015920
X075270Y016070
X075770Y016280
X076480Y017340
X074250Y019770
X076470Y020810
X077280Y024060
X076750Y025840
X081430Y025830
X086550Y020000
X086560Y013610
X086520Y011750
X086110Y011000
X086390Y010500
X086880Y010050
X085310Y008810
X085530Y008110
X082670Y011800
X082660Y012200
X078770Y007830
X078250Y007980
X079770Y006250
X080250Y006330
X076030Y003910
X075530Y003910
X075530Y002560
X076170Y000720
X076780Y000720
X078280Y-000080
X078800Y-000330
X079800Y-000370
X080280Y-000370
X080280Y000090
X079800Y000130
X080780Y-000370
X081190Y001330
X082660Y001330
X085360Y000110
X086030Y001060
X086750Y000610
X081770Y-002690
X078300Y-001580
X077870Y-001170
X077280Y-001580
X077030Y-001080
X076300Y-001580
X075800Y-001560
X074270Y-000830
X073690Y-000870
X074270Y000720
X073720Y001520
X073390Y001780
X073390Y002230
X073050Y002420
X072980Y001980
X073050Y003270
X073160Y003610
X072560Y003610
X071110Y003560
X071670Y001890
X070280Y000520
X069020Y-000020
X068530Y000000
X068120Y-000620
X068880Y-000730
X068770Y-001730
X069120Y-002420
X068660Y-002970
X067020Y-002170
X066640Y-002630
X066060Y-003980
X064920Y-003440
X064770Y-002780
X064750Y-002120
X065000Y-001270
X064890Y-000280
X066520Y-000130
X067020Y-000080
X067530Y-000090
X064380Y002370
X064360Y003380
X064770Y003860
X064330Y004380
X064050Y005000
X064030Y005670
X063090Y006170
X062390Y005000
X062530Y004360
X062390Y003670
X063110Y003360
X061590Y003220
X061250Y002970
X060130Y003810
X059860Y003380
X058840Y004020
X057590Y004020
X057190Y004280
X056840Y004090
X057610Y003520
X057730Y004860
X059950Y004870
X060580Y004720
X060830Y005970
X060370Y006370
X060220Y006880
X059670Y006970
X062440Y008120
X062950Y008120
X063980Y008120
X065300Y006910
X065330Y005770
X066060Y004870
X066420Y004360
X067520Y005660
X069270Y004120
X070780Y005970
X071170Y006310
X072270Y007220
X072690Y007060
X072870Y006640
X074270Y006170
X069750Y006810
X071530Y-000480
X071380Y-001770
X072000Y-004280
X072080Y-005250
X071860Y-006450
X071410Y-006830
X070840Y-006860
X072700Y-007030
X074810Y-005670
X075300Y-004080
X075800Y-004120
X076530Y-004120
X077090Y-003940
X077780Y-003980
X077670Y-006080
X077810Y-007970
X079200Y-008360
X079560Y-008690
X079590Y-008020
X079810Y-006920
X080300Y-007000
X080800Y-007110
X081300Y-007220
X080770Y-008330
X082590Y-007970
X083110Y-009940
X081920Y-010030
X080750Y-011970
X081020Y-013360
X079560Y-013610
X079550Y-013110
X079560Y-014130
X079560Y-014610
X079560Y-015120
X079870Y-015870
X078060Y-015090
X078060Y-014590
X078060Y-014110
X078030Y-013590
X078030Y-013090
X077690Y-012110
X078110Y-011140
X078110Y-010610
X078410Y-010110
X078000Y-009880
X079300Y-009530
X079530Y-010620
X079530Y-011130
X076200Y-009110
X074810Y-009860
X074800Y-010590
X074780Y-011130
X075550Y-012110
X074810Y-013090
X074810Y-013590
X074810Y-014090
X074810Y-014590
X074810Y-015120
X075020Y-015860
X075550Y-017610
X077200Y-019000
X079630Y-019000
X080310Y-020020
X082380Y-021810
X082060Y-022410
X080520Y-023060
X078880Y-024810
X080060Y-028590
X082160Y-028590
X084380Y-029090
X083050Y-024280
X083190Y-019000
X082360Y-014660
X085670Y-012480
X073310Y-013110
X073310Y-013600
X073310Y-014110
X073310Y-014610
X073310Y-015110
X071550Y-017610
X070160Y-015860
X070000Y-015140
X070000Y-014610
X070000Y-014110
X070000Y-013610
X070000Y-013090
X070780Y-012390
X070000Y-011120
X070000Y-010610
X068550Y-010610
X068550Y-010120
X068550Y-011130
X068690Y-012160
X068550Y-013090
X068550Y-013610
X068550Y-014100
X068550Y-014610
X068550Y-015110
X067050Y-017110
X065360Y-015870
X065280Y-015120
X065270Y-014600
X065270Y-014110
X065280Y-013590
X065270Y-013090
X065520Y-012090
X065270Y-011110
X065270Y-010640
X065270Y-010090
X065270Y-009630
X065230Y-009120
X065780Y-008610
X064230Y-009610
X064220Y-010020
X063780Y-010270
X063770Y-010860
X063770Y-011340
X063450Y-012050
X063780Y-013090
X063770Y-013590
X063780Y-014110
X063780Y-014610
X063780Y-015110
X062610Y-016730
X062300Y-017310
X063520Y-017110
X061410Y-015860
X060880Y-015860
X060520Y-015110
X060520Y-014590
X060520Y-014090
X060520Y-013590
X060520Y-013110
X059020Y-013110
X059020Y-013590
X059020Y-014090
X059020Y-014610
X059020Y-015110
X059920Y-016580
X059810Y-017440
X059630Y-018170
X059330Y-018660
X058120Y-019110
X056720Y-018770
X055410Y-017920
X053500Y-017090
X052030Y-015860
X050980Y-015090
X050980Y-014590
X050980Y-014090
X050980Y-013590
X050980Y-013090
X052160Y-012310
X052700Y-012000
X053640Y-012060
X054250Y-011110
X054250Y-010590
X054250Y-010110
X054250Y-009590
X054250Y-009110
X054340Y-007380
X054870Y-007360
X055270Y-007160
X056000Y-007200
X056470Y-007340
X056860Y-007810
X057390Y-008060
X057950Y-007410
X058500Y-007660
X059810Y-007470
X059630Y-006610
X059080Y-004910
X058970Y-004140
X058250Y-004590
X058170Y-003470
X057690Y-002020
X057750Y-001330
X057720Y-000870
X057030Y-001160
X057140Y-000330
X057700Y000130
X057730Y001130
X057130Y001830
X056730Y000690
X055400Y001830
X054780Y001450
X054270Y001450
X054530Y002000
X054480Y003310
X053890Y003420
X053730Y004220
X054120Y004220
X053300Y004220
X052780Y004670
X052530Y005560
X052610Y006530
X051560Y007230
X051220Y007870
X050590Y007340
X050770Y006620
X050530Y005620
X051380Y005330
X050700Y004140
X051610Y003420
X049700Y002970
X047770Y004560
X047310Y004420
X046910Y004080
X047860Y005080
X048200Y005330
X048500Y006190
X047940Y006880
X048420Y007380
X048770Y008470
X050450Y008330
X050860Y008730
X050670Y009330
X047940Y010120
X047480Y010360
X047870Y010670
X046700Y010470
X046030Y010530
X045580Y011470
X045840Y012030
X045580Y012380
X045080Y012480
X044580Y012530
X045080Y013720
X045940Y014080
X046830Y013420
X046500Y012380
X046450Y011980
X047000Y011610
X047480Y012220
X048640Y011720
X048800Y012590
X049640Y013980
X049810Y014830
X049030Y017470
X048470Y017380
X049630Y017580
X050190Y017720
X048160Y019420
X047670Y019440
X047420Y019860
X046920Y019860
X046000Y019840
X045160Y019330
X044310Y020360
X044310Y020870
X044250Y022370
X044270Y022880
X044090Y024860
X046500Y021810
X049640Y020360
X052080Y020220
X053860Y019270
X054410Y020770
X055700Y024480
X056700Y025440
X058980Y025800
X059860Y026830
X057890Y027500
X058380Y028520
X058220Y029450
X056090Y030110
X054420Y030360
X054630Y031220
X055410Y032160
X058480Y033420
X056780Y027750
X054270Y027410
X053860Y028500
X053420Y029090
X051910Y030970
X042630Y030310
X038190Y030140
X037160Y030270
X037270Y029310
X037660Y027860
X036660Y027920
X038750Y028000
X036420Y025000
X035870Y025250
X035640Y030670
X034590Y032300
X036170Y032700
X030860Y029660
X028590Y030750
X025410Y030110
X024840Y031170
X023640Y031160
X022110Y029610
X019620Y031020
X018360Y030020
X019090Y028280
X018300Y027610
X018280Y027120
X018450Y026120
X019950Y025610
X021670Y026120
X018410Y023830
X017380Y024140
X016370Y024080
X015360Y024090
X015360Y023140
X015310Y022440
X015270Y021730
X015800Y021190
X016340Y022440
X017360Y022440
X017860Y022280
X018370Y022270
X018360Y020580
X018530Y020190
X017920Y020030
X017380Y019970
X020520Y016670
X020920Y017060
X021800Y017810
X022750Y016750
X024420Y015980
X026140Y013270
X025730Y012360
X028470Y011980
X028450Y012890
X028360Y014420
X029160Y014420
X030410Y014940
X031360Y014920
X033140Y015980
X033660Y014940
X034000Y015170
X034660Y015780
X034660Y016230
X035470Y015580
X035980Y015980
X037310Y016580
X036060Y014280
X035580Y013630
X036170Y013120
X036170Y012620
X036200Y011770
X036060Y011130
X036170Y010140
X035610Y010140
X036160Y009140
X036170Y008580
X036170Y008140
X035660Y008340
X035160Y008340
X034670Y008340
X034170Y008340
X033690Y008340
X033170Y008190
X032170Y008190
X031180Y008190
X030660Y008190
X029420Y008730
X028120Y008250
X027730Y007050
X028170Y006550
X027840Y006390
X027420Y006230
X028670Y006080
X029190Y006690
X029480Y006130
X026780Y009390
X029410Y011140
X029720Y010770
X031170Y010780
X032340Y010780
X033050Y011480
X034060Y012330
X034670Y013110
X033170Y013630
X033920Y009980
X034410Y009980
X036730Y007640
X037370Y007590
X037390Y006140
X037550Y004640
X035750Y005840
X035140Y005840
X034640Y005830
X034110Y005830
X035140Y006640
X043220Y008440
X043640Y008230
X044060Y008580
X044050Y009090
X044060Y009500
X043560Y009380
X043090Y009690
X045030Y009800
X045700Y008920
X046550Y009090
X047200Y009230
X045730Y006620
X046200Y005720
X045610Y005420
X045410Y005030
X045700Y004780
X045060Y004780
X044520Y004830
X044120Y005270
X043550Y006880
X044690Y002110
X045520Y002110
X045970Y001050
X044720Y000890
X044670Y-000560
X044670Y-000950
X044910Y-001310
X045220Y-000660
X046520Y-001270
X047220Y-001200
X047720Y-001200
X048220Y-001200
X048720Y-001700
X049730Y-001420
X050110Y-000970
X051080Y-001670
X051380Y-002170
X051530Y-002610
X051520Y-003060
X052190Y-003670
X051280Y-004610
X051280Y-005250
X051280Y-005640
X051980Y-005690
X051980Y-005250
X052630Y-005250
X052630Y-005620
X053280Y-005660
X053280Y-005250
X053750Y-005640
X053750Y-007270
X052130Y-006860
X050480Y-005980
X049920Y-005340
X048500Y-005800
X047970Y-005340
X047470Y-005690
X046980Y-005700
X045720Y-005690
X045370Y-004410
X045950Y-003410
X047220Y-000160
X047270Y002230
X052230Y000370
X054000Y000470
X055530Y-002000
X053980Y-003270
X055550Y-005770
X057550Y-005750
X057220Y-009110
X055810Y-010590
X055810Y-011110
X055810Y-011520
X057090Y-012090
X057520Y-011750
X059080Y-011110
X059080Y-010620
X059050Y-010110
X059250Y-009660
X060470Y-010090
X060470Y-010610
X061910Y-011110
X061800Y-012200
X063770Y-009590
X062090Y-008110
X061920Y-007250
X061060Y-007810
X063940Y-005970
X064950Y-006720
X064450Y-007130
X063950Y-003730
X062480Y-001800
X062870Y-001140
X062000Y-001090
X062050Y-000330
X062890Y000440
X063500Y001830
X060660Y001670
X059920Y001630
X060060Y000870
X060670Y000770
X059910Y000130
X059200Y-000670
X059300Y-001090
X060560Y-001130
X060860Y-001970
X067030Y-004860
X068020Y-004860
X069030Y-004890
X067890Y-006310
X067910Y-008170
X070000Y-009120
X073300Y-010120
X073300Y-010590
X073300Y-011130
X073340Y-004520
X074140Y-003030
X065990Y-020050
X065480Y-020020
X065230Y-019690
X064340Y-019700
X064080Y-020660
X065250Y-020700
X065780Y-020660
X065520Y-023720
X058520Y-017110
X056920Y-015840
X056090Y-015840
X055750Y-015090
X055750Y-014610
X055750Y-014110
X055750Y-013610
X055750Y-013100
X054270Y-013100
X054270Y-013590
X054270Y-014090
X054270Y-014610
X054270Y-015110
X053980Y-019620
X053300Y-019800
X050700Y-020470
X050410Y-020230
X049860Y-020090
X049560Y-019640
X048640Y-020580
X048250Y-020030
X047800Y-020030
X047910Y-020580
X047300Y-019530
X045440Y-019280
X045280Y-018770
X045200Y-020020
X045000Y-020360
X045480Y-020340
X042700Y-020020
X042750Y-019280
X039270Y-022140
X039190Y-024440
X039270Y-025300
X040530Y-025280
X041550Y-024420
X037190Y-023860
X036170Y-024030
X035160Y-024590
X034200Y-023780
X032700Y-023090
X032640Y-022330
X031840Y-021670
X030410Y-021830
X029890Y-022340
X029890Y-022830
X029340Y-023330
X029340Y-024340
X027770Y-024340
X026720Y-024340
X026550Y-023580
X027190Y-022830
X027810Y-022330
X027800Y-021330
X027470Y-020330
X027810Y-019920
X028410Y-018940
X029440Y-018700
X030390Y-019270
X029890Y-019830
X030050Y-017690
X031970Y-018390
X033090Y-019030
X033890Y-018090
X033730Y-017690
X032440Y-017090
X034130Y-014920
X034940Y-014730
X035140Y-016030
X035810Y-016050
X035550Y-016800
X035550Y-017390
X036050Y-017390
X036890Y-016050
X037420Y-016050
X038280Y-014730
X038280Y-012690
X037640Y-012080
X037090Y-012300
X036310Y-012880
X035280Y-012420
X033940Y-012700
X033920Y-012190
X032630Y-010550
X032830Y-009800
X032830Y-009340
X032690Y-008470
X033670Y-008580
X034170Y-007780
X033780Y-007590
X032800Y-005860
X031670Y-005840
X036080Y-009500
X036520Y-009500
X037280Y-009250
X037780Y-009200
X038230Y-010200
X038230Y-010700
X038230Y-011200
X037750Y-011160
X037170Y-010730
X038230Y-011700
X035330Y-010590
X030830Y-012420
X029980Y-012140
X029590Y-011660
X028980Y-011660
X027980Y-011750
X026980Y-011300
X026000Y-011250
X026280Y-010050
X023980Y-011110
X023000Y-011090
X021380Y-012280
X021270Y-012730
X020330Y-013090
X022730Y-015050
X022450Y-016420
X023140Y-018090
X024950Y-017340
X026750Y-018200
X027440Y-018500
X025560Y-019830
X023890Y-021330
X021770Y-021340
X021670Y-020310
X021000Y-022340
X020000Y-024080
X019590Y-023830
X023750Y-023840
X024110Y-025480
X025970Y-022340
X026610Y-021840
X032000Y-025280
X032360Y-025050
X032950Y-025730
X034660Y-026270
X035360Y-026220
X036360Y-025750
X033890Y-028610
X031940Y-029080
X034090Y-021840
X033580Y-021280
X033580Y-020870
X044750Y-015090
X044750Y-014590
X044750Y-014080
X044750Y-013590
X044750Y-013090
X046250Y-013080
X046250Y-013560
X046250Y-014080
X046270Y-014590
X046280Y-015080
X046440Y-015840
X048980Y-017090
X049470Y-015080
X049470Y-014590
X049470Y-014080
X049470Y-013590
X049470Y-013090
X049440Y-011410
X049480Y-010590
X049480Y-010110
X050800Y-010340
X050980Y-011110
X050950Y-009110
X050330Y-008940
X047980Y-008810
X046670Y-008700
X046080Y-010200
X046220Y-011090
X045050Y-011250
X045050Y-010000
X044910Y-009360
X043300Y-010090
X043300Y-010610
X043300Y-011110
X043050Y-009560
X042940Y-008910
X049920Y-003560
X050480Y-003560
X043530Y014880
X043530Y016080
X043300Y016830
X042910Y016810
X042750Y018480
X042720Y018920
X042750Y019330
X043440Y018630
X045670Y016890
X046670Y016890
X044780Y015480
X044440Y015780
X029140Y015920
X028230Y015940
X025890Y020330
X025410Y020780
X024640Y021060
X019060Y015190
X014920Y012580
X014520Y012620
X014130Y012590
X013660Y012720
X013110Y012890
X012500Y012390
X012730Y011060
X012480Y010640
X013200Y009750
X012610Y008550
X012610Y008140
X012560Y007390
X011140Y009410
X010530Y010230
X011060Y010580
X011090Y011370
X011080Y012200
X010530Y012340
X009770Y012050
X009300Y013250
X008660Y013310
X007920Y013250
X009530Y014480
X011140Y013140
X009300Y010590
X008640Y010230
X008800Y009410
X008440Y009050
X009520Y008550
X007940Y011090
X010470Y017190
X007580Y018630
X006580Y019690
X006420Y020730
X007160Y021030
X007690Y021050
X007110Y021590
X007220Y022640
X005810Y022700
X004890Y024000
X004950Y025280
X005360Y026390
X003770Y025800
X003770Y024780
X004520Y021590
X004450Y020550
X008330Y021590
X008870Y022230
X008470Y020690
X010690Y020640
X011170Y020640
X011660Y020640
X012880Y021380
X011660Y022530
X011160Y022530
X010690Y022890
X009530Y024250
X008750Y024390
X007840Y024390
X008030Y026880
X008340Y027630
X009890Y027370
X009890Y026890
X009890Y026380
X009890Y028140
X010480Y028440
X009940Y028890
X009940Y029390
X010280Y029920
X009440Y029950
X009780Y030940
X009470Y031390
X009160Y031770
X009840Y031770
X009890Y032370
X011080Y031720
X012340Y031120
X013770Y031660
X014530Y031120
X016310Y030620
X016310Y031640
X016310Y032360
X017380Y032610
X017380Y034110
X016060Y033770
X013140Y033340
X016280Y029360
X015590Y028370
X016000Y027520
X016340Y026270
X015590Y025560
X014050Y026450
X012390Y025060
X011590Y025060
X012750Y023910
X013120Y023370
X012500Y028020
X011560Y028160
X006840Y031280
X006340Y031630
X005340Y031300
X004310Y030230
X004890Y029830
X005550Y028530
X006280Y033110
X029300Y034090
X020780Y007130
X014940Y-003910
X004630Y001770
X004500Y-011630
X004070Y-012550
X004280Y-012910
X004610Y-013470
X016580Y-020020
X023190Y-029420
X054560Y-023690
X075410Y-028090
T02
X080340Y-019000
X083550Y-020110
X085090Y-020110
X085310Y-023810
X083560Y-015670
X082530Y-009780
X072720Y023840
X072730Y025080
X075720Y024830
X076220Y025620
X075030Y028050
X074170Y028550
X076200Y029530
X079160Y029590
X080890Y026480
X082950Y028200
X085950Y028340
X086890Y027370
X057030Y029340
X054950Y028910
T03
X005020Y-019880
X005020Y-018880
X006020Y-018880
X007020Y-018880
X007020Y-019880
X006020Y-019880
X006020Y-017880
X005020Y-017880
X005020Y-016880
X005020Y-015880
X005020Y-014880
X006020Y-014880
X007020Y-014880
X007020Y-015880
X006020Y-015880
X006020Y-016880
X007020Y-016880
X007020Y-017880
X011940Y-015610
X012940Y-015610
X013940Y-015610
X014940Y-015610
X015940Y-015610
X016940Y-015610
X017940Y-015610
X018940Y-015610
X019940Y-015610
X020940Y-015610
X021940Y-015610
X022940Y-015610
X023940Y-015610
X024940Y-015610
X025940Y-015610
X026940Y-015610
X027940Y-015610
X028940Y-015610
X029940Y-015610
X030940Y-015610
X031940Y-015610
X031940Y-009610
X030940Y-009610
X029940Y-009610
X028940Y-009610
X027940Y-009610
X026940Y-009610
X025940Y-009610
X024940Y-009610
X023940Y-009610
X022940Y-009610
X021940Y-009610
X020940Y-009610
X019940Y-009610
X018940Y-009610
X017940Y-009610
X016940Y-009610
X015940Y-009610
X014940Y-009610
X013940Y-009610
X012940Y-009610
X011940Y-009610
X011940Y-007610
X012940Y-007610
X013940Y-007610
X014940Y-007610
X015940Y-007610
X016940Y-007610
X017940Y-007610
X018940Y-007610
X019940Y-007610
X020940Y-007610
X021940Y-007610
X022940Y-007610
X023940Y-007610
X024940Y-007610
X025940Y-007610
X026940Y-007610
X027940Y-007610
X028940Y-007610
X029940Y-007610
X030940Y-007610
X031940Y-007610
X034940Y-003610
X034940Y-002610
X034940Y-001610
X031940Y-001610
X030940Y-001610
X029940Y-001610
X028940Y-001610
X027940Y-001610
X026940Y-001610
X025940Y-001610
X024940Y-001610
X023940Y-001610
X022940Y-001610
X021940Y-001610
X020940Y-001610
X019940Y-001610
X018940Y-001610
X017940Y-001610
X016940Y-001610
X015940Y-001610
X014940Y-001610
X013940Y-001610
X012940Y-001610
X011940Y-001610
X007020Y-001880
X006020Y-001880
X005020Y-001880
X005020Y-000880
X005020Y000120
X005020Y001120
X006020Y001120
X006020Y000120
X006020Y-000880
X007020Y-000880
X007020Y000120
X007020Y001120
X007020Y002120
X006020Y002120
X005020Y002120
X005020Y003120
X005020Y004120
X005020Y005120
X005020Y006120
X005020Y007120
X006020Y007120
X006020Y006120
X006020Y005120
X006020Y004120
X006020Y003120
X007020Y003120
X007020Y004120
X007020Y005120
X007020Y006120
X007020Y007120
X007020Y008120
X006020Y008120
X005020Y008120
X005020Y009120
X005020Y010120
X005020Y011120
X005020Y012120
X005020Y013120
X005020Y014120
X005020Y015120
X006020Y015120
X006020Y016120
X007020Y016120
X007020Y017120
X006020Y017120
X006020Y018120
X005020Y018120
X005020Y019120
X006020Y019120
X007020Y019120
X007020Y018120
X005020Y017120
X005020Y016120
X007020Y015120
X007020Y014120
X006020Y014120
X006020Y013120
X007020Y013120
X007020Y012120
X006020Y012120
X006020Y011120
X006020Y010120
X006020Y009120
X007020Y009120
X007020Y010120
X007020Y011120
X007020Y-002880
X006020Y-002880
X005020Y-002880
X005020Y-003880
X005020Y-004880
X005020Y-005880
X005020Y-006880
X006020Y-006880
X006020Y-005880
X006020Y-004880
X006020Y-003880
X007020Y-003880
X007020Y-004880
X007020Y-005880
X007020Y-006880
X007020Y-007880
X007020Y-008880
X006020Y-008880
X006020Y-007880
X005020Y-007880
X005020Y-008880
X005020Y-009880
X006020Y-009880
X007020Y-009880
X007020Y-010880
X006020Y-010880
X005020Y-010880
X005020Y-011880
X006020Y-011880
X007020Y-011880
X039480Y-021330
X040480Y-021330
X041480Y-021330
X042480Y-021330
X043480Y-021330
X044480Y-021330
X045480Y-021330
X046480Y-021330
X047480Y-021330
X048480Y-021330
X049480Y-021330
X050480Y-021330
X051480Y-021330
X052480Y-021330
X053480Y-021330
X054480Y-021330
X055480Y-021330
X056480Y-021330
X055980Y-022330
X054980Y-022330
X053980Y-022330
X052980Y-022330
X051980Y-022330
X050980Y-022330
X049980Y-022330
X048980Y-022330
X047980Y-022330
X046980Y-022330
X045980Y-022330
X044980Y-022330
X043980Y-022330
X042980Y-022330
X041980Y-022330
X040980Y-022330
X039980Y-022330
X056980Y-022330
X059480Y-021330
X060480Y-021330
X061480Y-021330
X062480Y-021330
X063480Y-021330
X064480Y-021330
X065480Y-021330
X066480Y-021330
X067480Y-021330
X068480Y-021330
X069480Y-021330
X070480Y-021330
X071480Y-021330
X072480Y-021330
X073480Y-021330
X074480Y-021330
X075480Y-021330
X076480Y-021330
X075980Y-022330
X074980Y-022330
X073980Y-022330
X072980Y-022330
X071980Y-022330
X070980Y-022330
X069980Y-022330
X068980Y-022330
X067980Y-022330
X066980Y-022330
X065980Y-022330
X064980Y-022330
X063980Y-022330
X062980Y-022330
X061980Y-022330
X060980Y-022330
X059980Y-022330
X076980Y-022330
X083720Y-010910
X083720Y-009910
X083720Y-008910
X083720Y-007910
X083720Y-006910
X083720Y-005910
X083720Y-004910
X083720Y-003910
X083720Y-002910
X083720Y-001910
X083720Y-000910
X083720Y000090
X083720Y001090
X083720Y002090
X083720Y003090
X083720Y004090
X083720Y005090
X084720Y005590
X084720Y004590
X084720Y003590
X084720Y002590
X084720Y001590
X084720Y000590
X084720Y-000410
X084720Y-001410
X084720Y-002410
X084720Y-003410
X084720Y-004410
X084720Y-005410
X084720Y-006410
X084720Y-007410
X084720Y-008410
X084720Y-009410
X084720Y-010410
X083720Y008090
X083720Y009090
X083720Y010090
X083720Y011090
X083720Y012090
X083720Y013090
X083720Y014090
X083720Y015090
X083720Y016090
X083720Y017090
X083720Y018090
X083720Y019090
X083720Y020090
X083720Y021090
X083720Y022090
X083720Y023090
X083720Y024090
X084720Y023590
X084720Y024590
X084720Y022590
X084720Y021590
X084720Y020590
X084720Y019590
X084720Y018590
X084720Y017590
X084720Y016590
X084720Y015590
X084720Y014590
X084720Y013590
X084720Y012590
X084720Y011590
X084720Y010590
X084720Y009590
X084720Y008590
X043660Y011610
X043660Y013610
X029110Y027110
X028110Y027110
X027110Y027110
X027110Y028110
X028110Y028110
X029110Y028110
X024610Y028110
X023610Y028110
X022610Y028110
X022610Y027110
X023610Y027110
X024610Y027110
T04
X031360Y028110
X032360Y028110
X033360Y028110
X034360Y028110
X034360Y029110
X033360Y029110
X032360Y029110
X031360Y029110
T05
X014360Y-028230
X014360Y-027230
X015360Y-027230
X015360Y-028230
X016360Y-028230
X016360Y-027230
X017360Y-027230
X017360Y-028230
X018360Y-028230
X018360Y-027230
X019360Y-027230
X019360Y-028230
X020360Y-028230
X020360Y-027230
X021360Y-027230
X021360Y-028230
X022360Y-028230
X022360Y-027230
X023360Y-027230
X023360Y-028230
X024360Y-028230
X024360Y-027230
X025360Y-027230
X025360Y-028230
X026360Y-028230
X026360Y-027230
X027360Y-027230
X027360Y-028230
X028360Y-028230
X028360Y-027230
X029360Y-027230
X029360Y-028230
X030360Y-028230
X030360Y-027230
X031360Y-027230
X031360Y-028230
X032360Y-028230
X032360Y-027230
X033360Y-027230
X033360Y-028230
X034360Y-028230
X034360Y-027230
X035360Y-027230
X035360Y-028230
X036360Y-028230
X036360Y-027230
X037360Y-027230
X037360Y-028230
X038360Y-028230
X038360Y-027230
X027720Y-025190
X016800Y-025230
X016800Y-020780
X027190Y019440
X028190Y019440
X027050Y031460
X027010Y031460
X026970Y031460
X026930Y031460
X026890Y031460
X026850Y031460
X026810Y031460
X026780Y031460
X026740Y031460
X026700Y031460
X027450Y032930
X027490Y032930
X027530Y032930
X027560Y032930
X027600Y032930
X027640Y032930
X027680Y032930
X027720Y032930
X027760Y032930
X027800Y032930
X027050Y033710
X027010Y033710
X026970Y033710
X026930Y033710
X026890Y033710
X026850Y033710
X026810Y033710
X026780Y033710
X026740Y033710
X026700Y033710
X027450Y035150
X027490Y035150
X027530Y035150
X027560Y035150
X027600Y035150
X027640Y035150
X027680Y035150
X027720Y035150
X027760Y035150
X027800Y035150
X027050Y036090
X027010Y036090
X026970Y036090
X026930Y036090
X026890Y036090
X026850Y036090
X026810Y036090
X026780Y036090
X026740Y036090
X026700Y036090
X023080Y035150
X023040Y035150
X023000Y035150
X022960Y035150
X022920Y035150
X022890Y035150
X022850Y035150
X022810Y035150
X022770Y035150
X022730Y035150
X022330Y036090
X022290Y036090
X022250Y036090
X022210Y036090
X022170Y036090
X022140Y036090
X022100Y036090
X022060Y036090
X022020Y036090
X021980Y036090
X021980Y033710
X022020Y033710
X022060Y033710
X022100Y033710
X022140Y033710
X022170Y033710
X022210Y033710
X022250Y033710
X022290Y033710
X022330Y033710
X022730Y032930
X022770Y032930
X022810Y032930
X022850Y032930
X022890Y032930
X022920Y032930
X022960Y032930
X023000Y032930
X023040Y032930
X023080Y032930
X022330Y031460
X022290Y031460
X022250Y031460
X022210Y031460
X022170Y031460
X022140Y031460
X022100Y031460
X022060Y031460
X022020Y031460
X021980Y031460
X031480Y033140
X031480Y034120
X034080Y034120
X034080Y033140
X041050Y028350
X046350Y029720
X049730Y030620
X060240Y033140
X061020Y033140
X061810Y033140
X062050Y034120
X062830Y034120
X062830Y033140
X061020Y034120
X060240Y034120
X066800Y034120
X067590Y034120
X067590Y033140
X066800Y033140
X068380Y033140
X068610Y034120
X069400Y034120
X069400Y033140
X061410Y-003880
X061410Y-005780
X073810Y-030340
X073810Y-031340
X074810Y-031340
X074810Y-030340
X075810Y-030340
X075810Y-031340
X076810Y-031340
X076810Y-030340
X077810Y-030340
X077810Y-031340
X078810Y-031340
X078810Y-030340
X079810Y-030340
X079810Y-031340
X080810Y-031340
X080810Y-030340
X081810Y-030340
X081810Y-031340
X082810Y-031340
X082810Y-030340
T06
X040660Y033170
X041750Y033170
X042840Y033170
X043930Y033170
X045020Y033170
X046110Y033170
X047200Y033170
X048290Y033170
X049380Y033170
X050470Y033170
X051560Y033170
X052650Y033170
X053740Y033170
X053200Y034280
X052110Y034280
X051020Y034280
X049930Y034280
X048840Y034280
X047750Y034280
X046660Y034280
X045570Y034280
X044480Y034280
X043430Y034280
X042300Y034280
X041210Y034280
T07
X021000Y-020560
X032630Y-020560
X041880Y-025250
X042870Y-025250
X042900Y-029060
X042900Y-030060
X042900Y-031060
X035430Y035040
X035430Y035080
X035430Y035120
X035430Y035160
X035430Y035200
X035430Y035240
X035430Y035280
X035430Y035320
X035430Y035350
X035430Y035390
X035430Y035430
X035430Y035470
X035430Y035510
X035430Y035550
X035430Y035590
X033050Y035630
X033010Y035630
X032970Y035630
X032940Y035630
X032900Y035630
X032860Y035630
X032820Y035630
X032780Y035630
X032740Y035630
X032700Y035630
X032660Y035630
X032620Y035630
X032580Y035630
X032540Y035630
X032500Y035630
X030120Y035590
X030120Y035550
X030120Y035510
X030120Y035470
X030120Y035430
X030120Y035390
X030120Y035350
X030120Y035320
X030120Y035280
X030120Y035240
X030120Y035200
X030120Y035160
X030120Y035120
X030120Y035080
X030120Y035040
X058880Y035040
X058880Y035080
X058880Y035120
X058880Y035160
X058880Y035200
X058880Y035240
X058880Y035280
X058880Y035320
X058880Y035350
X058880Y035390
X058880Y035430
X058880Y035470
X058880Y035510
X058880Y035550
X058880Y035590
X061260Y035630
X061300Y035630
X061340Y035630
X061380Y035630
X061410Y035630
X061450Y035630
X061490Y035630
X061530Y035630
X061570Y035630
X061610Y035630
X061650Y035630
X061690Y035630
X061730Y035630
X061770Y035630
X061810Y035630
X064190Y035590
X064190Y035550
X064190Y035510
X064190Y035470
X064190Y035430
X064190Y035390
X064190Y035350
X064190Y035320
X064190Y035280
X064190Y035240
X064190Y035200
X064190Y035160
X064190Y035120
X064190Y035080
X064190Y035040
X065440Y035040
X065440Y035080
X065440Y035120
X065440Y035160
X065440Y035200
X065440Y035240
X065440Y035280
X065440Y035320
X065440Y035350
X065440Y035390
X065440Y035430
X065440Y035470
X065440Y035510
X065440Y035550
X065440Y035590
X067820Y035630
X067860Y035630
X067900Y035630
X067940Y035630
X067980Y035630
X068020Y035630
X068060Y035630
X068100Y035630
X068140Y035630
X068180Y035630
X068220Y035630
X068260Y035630
X068300Y035630
X068340Y035630
X068380Y035630
X070760Y035590
X070760Y035550
X070760Y035510
X070760Y035470
X070760Y035430
X070760Y035390
X070760Y035350
X070760Y035320
X070760Y035280
X070760Y035240
X070760Y035200
X070760Y035160
X070760Y035120
X070760Y035080
X070760Y035040
X075960Y033170
X077020Y033170
X078110Y033170
X079200Y033170
X080280Y033170
X081370Y033170
X082460Y033170
X083560Y033170
X083020Y034280
X081930Y034280
X080830Y034280
X079740Y034280
X078650Y034280
X077570Y034280
X076480Y034280
T08
X007300Y-029550
X008920Y-029550
X008920Y-027420
X007300Y-027420
T09
X084260Y006860
X084260Y027800
T10
X073070Y-026370
X074630Y-026370
X077760Y-026370
X079320Y-026370
X080880Y-026370
X082440Y-026370
T11
X084260Y-014140
T12
X037990Y033730
X056490Y033730
X073210Y033730
X086270Y033730
M30
