%FSLAX34Y34*%
%MOMM*%
%LNSOLDERMASK_TOP*%
G71*
G01*
%ADD10C,0.800*%
%ADD11R,0.840X2.400*%
%ADD12R,2.400X0.840*%
%ADD13R,0.840X2.300*%
%ADD14R,2.300X0.840*%
%ADD15R,0.650X2.000*%
%ADD16R,2.000X0.650*%
%ADD17R,0.520X2.280*%
%ADD18R,2.280X0.520*%
%ADD19R,2.440X0.900*%
%ADD20C,1.600*%
%ADD21C,2.200*%
%ADD22R,0.900X2.100*%
%ADD23C,1.720*%
%ADD24C,3.400*%
%ADD25C,2.500*%
%ADD26C,1.800*%
%ADD27C,1.720*%
%ADD28C,2.300*%
%ADD29C,1.700*%
%ADD30C,2.000*%
%ADD31R,2.400X0.950*%
%ADD32R,0.800X2.200*%
%ADD33R,2.200X0.800*%
%ADD34R,0.900X2.000*%
%ADD35R,1.500X4.900*%
%ADD36C,1.600*%
%ADD37C,1.600*%
%ADD38R,1.100X2.900*%
%ADD39C,1.480*%
%ADD40C,2.600*%
%ADD41C,3.450*%
%ADD42R,1.600X3.600*%
%ADD43R,2.800X1.500*%
%ADD44R,1.500X2.800*%
%ADD45R,3.600X1.600*%
%ADD46R,1.900X1.400*%
%ADD47R,2.900X2.900*%
%ADD48R,2.600X2.800*%
%ADD49R,2.200X2.400*%
%ADD50R,2.400X2.200*%
%ADD51R,1.300X1.300*%
%ADD52R,1.700X2.000*%
%ADD53C,1.100*%
%ADD54C,1.800*%
%ADD55C,0.422*%
%ADD56C,0.400*%
%LPD*%
X173831Y794544D02*
G54D10*
D03*
X321469Y-547687D02*
G54D10*
D03*
X1961454Y511447D02*
G54D11*
D03*
X1974154Y511447D02*
G54D11*
D03*
X1986854Y511447D02*
G54D11*
D03*
X1999555Y511447D02*
G54D11*
D03*
X2012256Y511447D02*
G54D11*
D03*
X2024956Y511447D02*
G54D11*
D03*
X2043051Y529741D02*
G54D12*
D03*
X2043051Y542441D02*
G54D12*
D03*
X2043051Y555141D02*
G54D12*
D03*
X2043051Y567841D02*
G54D12*
D03*
X2043051Y580541D02*
G54D12*
D03*
X2043051Y593241D02*
G54D12*
D03*
X2043051Y605941D02*
G54D12*
D03*
X2043051Y618641D02*
G54D12*
D03*
X2043051Y631341D02*
G54D12*
D03*
X2043051Y644041D02*
G54D12*
D03*
X2043051Y656741D02*
G54D12*
D03*
X2024956Y674836D02*
G54D11*
D03*
X2012256Y674836D02*
G54D11*
D03*
X1999555Y674836D02*
G54D11*
D03*
X1986854Y674836D02*
G54D11*
D03*
X1974154Y674836D02*
G54D11*
D03*
X1961454Y674836D02*
G54D11*
D03*
X1948754Y674836D02*
G54D11*
D03*
X1936054Y674836D02*
G54D11*
D03*
X1923354Y674836D02*
G54D11*
D03*
X1910654Y674836D02*
G54D11*
D03*
X1897954Y674836D02*
G54D11*
D03*
X1879660Y656741D02*
G54D12*
D03*
X1879660Y644041D02*
G54D12*
D03*
X1879660Y631341D02*
G54D12*
D03*
X1879660Y618641D02*
G54D12*
D03*
X1879660Y605941D02*
G54D12*
D03*
X1879660Y593241D02*
G54D12*
D03*
X1879660Y580541D02*
G54D12*
D03*
X1879660Y567841D02*
G54D12*
D03*
X1879660Y555141D02*
G54D12*
D03*
X1879660Y542441D02*
G54D12*
D03*
X1879660Y529741D02*
G54D12*
D03*
X1897954Y511447D02*
G54D11*
D03*
X1910654Y511447D02*
G54D11*
D03*
X1923354Y511447D02*
G54D11*
D03*
X1936054Y511447D02*
G54D11*
D03*
X1948754Y511447D02*
G54D11*
D03*
X1223651Y473757D02*
G54D13*
D03*
X1236351Y473757D02*
G54D13*
D03*
X1249051Y473757D02*
G54D13*
D03*
X1261751Y473757D02*
G54D13*
D03*
X1274451Y473757D02*
G54D13*
D03*
X1287151Y473757D02*
G54D13*
D03*
X1299851Y473757D02*
G54D13*
D03*
X1312551Y473757D02*
G54D13*
D03*
X1325251Y473757D02*
G54D13*
D03*
X1343048Y491355D02*
G54D14*
D03*
X1343048Y504055D02*
G54D14*
D03*
X1343048Y516755D02*
G54D14*
D03*
X1343048Y529455D02*
G54D14*
D03*
X1343048Y542155D02*
G54D14*
D03*
X1343048Y554855D02*
G54D14*
D03*
X1343048Y567555D02*
G54D14*
D03*
X1343048Y580255D02*
G54D14*
D03*
X1343048Y592955D02*
G54D14*
D03*
X1343048Y605655D02*
G54D14*
D03*
X1343048Y618355D02*
G54D14*
D03*
X1343048Y631055D02*
G54D14*
D03*
X1343048Y643755D02*
G54D14*
D03*
X1343048Y656455D02*
G54D14*
D03*
X1343048Y669155D02*
G54D14*
D03*
X1343048Y681855D02*
G54D14*
D03*
X1343048Y694555D02*
G54D14*
D03*
X1325251Y712352D02*
G54D13*
D03*
X1312551Y712352D02*
G54D13*
D03*
X1299851Y712352D02*
G54D13*
D03*
X1287151Y712352D02*
G54D13*
D03*
X1274451Y712352D02*
G54D13*
D03*
X1261751Y712352D02*
G54D13*
D03*
X1249051Y712352D02*
G54D13*
D03*
X1236351Y712352D02*
G54D13*
D03*
X1223651Y712352D02*
G54D13*
D03*
X1210951Y712352D02*
G54D13*
D03*
X1198251Y712352D02*
G54D13*
D03*
X1185551Y712352D02*
G54D13*
D03*
X1172851Y712352D02*
G54D13*
D03*
X1160151Y712352D02*
G54D13*
D03*
X1147451Y712352D02*
G54D13*
D03*
X1134751Y712352D02*
G54D13*
D03*
X1122051Y712352D02*
G54D13*
D03*
X1104254Y694555D02*
G54D14*
D03*
X1104254Y681855D02*
G54D14*
D03*
X1104254Y669155D02*
G54D14*
D03*
X1104254Y656455D02*
G54D14*
D03*
X1104254Y643755D02*
G54D14*
D03*
X1104254Y631055D02*
G54D14*
D03*
X1104254Y618355D02*
G54D14*
D03*
X1104254Y605655D02*
G54D14*
D03*
X1104254Y592955D02*
G54D14*
D03*
X1104254Y580255D02*
G54D14*
D03*
X1104254Y567555D02*
G54D14*
D03*
X1104254Y554855D02*
G54D14*
D03*
X1104254Y542155D02*
G54D14*
D03*
X1104254Y529455D02*
G54D14*
D03*
X1104254Y516755D02*
G54D14*
D03*
X1104254Y504055D02*
G54D14*
D03*
X1104254Y491355D02*
G54D14*
D03*
X1122051Y473757D02*
G54D13*
D03*
X1134751Y473757D02*
G54D13*
D03*
X1147451Y473757D02*
G54D13*
D03*
X1160151Y473757D02*
G54D13*
D03*
X1172851Y473757D02*
G54D13*
D03*
X1185551Y473757D02*
G54D13*
D03*
X1198251Y473757D02*
G54D13*
D03*
X1210951Y473757D02*
G54D13*
D03*
X334735Y80886D02*
G54D15*
D03*
X341135Y80886D02*
G54D15*
D03*
X347435Y80886D02*
G54D15*
D03*
X353735Y80886D02*
G54D15*
D03*
X360135Y80886D02*
G54D15*
D03*
X366535Y80886D02*
G54D15*
D03*
X372835Y80886D02*
G54D15*
D03*
X379135Y80886D02*
G54D15*
D03*
X385535Y80886D02*
G54D15*
D03*
X391935Y80886D02*
G54D15*
D03*
X398235Y80886D02*
G54D15*
D03*
X404535Y80886D02*
G54D15*
D03*
X410935Y80886D02*
G54D15*
D03*
X417335Y80886D02*
G54D15*
D03*
X423635Y80886D02*
G54D15*
D03*
X429935Y80886D02*
G54D15*
D03*
X436335Y80886D02*
G54D15*
D03*
X442735Y80886D02*
G54D15*
D03*
X449035Y80886D02*
G54D15*
D03*
X455335Y80886D02*
G54D15*
D03*
X461735Y80886D02*
G54D15*
D03*
X468135Y80886D02*
G54D15*
D03*
X474435Y80886D02*
G54D15*
D03*
X480735Y80886D02*
G54D15*
D03*
X487135Y80886D02*
G54D15*
D03*
X493535Y80886D02*
G54D15*
D03*
X499835Y80886D02*
G54D15*
D03*
X506135Y80886D02*
G54D15*
D03*
X512535Y80886D02*
G54D15*
D03*
X518935Y80886D02*
G54D15*
D03*
X525235Y80886D02*
G54D15*
D03*
X531535Y80886D02*
G54D15*
D03*
X537935Y80886D02*
G54D15*
D03*
X568335Y111286D02*
G54D16*
D03*
X568335Y117686D02*
G54D16*
D03*
X568335Y123986D02*
G54D16*
D03*
X568335Y130286D02*
G54D16*
D03*
X568335Y136686D02*
G54D16*
D03*
X568335Y143086D02*
G54D16*
D03*
X568335Y149386D02*
G54D16*
D03*
X568335Y155686D02*
G54D16*
D03*
X568335Y162086D02*
G54D16*
D03*
X568335Y168486D02*
G54D16*
D03*
X568335Y174786D02*
G54D16*
D03*
X568335Y181086D02*
G54D16*
D03*
X568335Y187486D02*
G54D16*
D03*
X568335Y193886D02*
G54D16*
D03*
X568335Y200186D02*
G54D16*
D03*
X568335Y206486D02*
G54D16*
D03*
X568335Y212886D02*
G54D16*
D03*
X568335Y219286D02*
G54D16*
D03*
X568335Y225586D02*
G54D16*
D03*
X568335Y231886D02*
G54D16*
D03*
X568335Y238286D02*
G54D16*
D03*
X568335Y244686D02*
G54D16*
D03*
X568335Y250986D02*
G54D16*
D03*
X568335Y257286D02*
G54D16*
D03*
X568335Y263686D02*
G54D16*
D03*
X568335Y270086D02*
G54D16*
D03*
X568335Y276386D02*
G54D16*
D03*
X568335Y282686D02*
G54D16*
D03*
X568335Y289086D02*
G54D16*
D03*
X568335Y295486D02*
G54D16*
D03*
X568335Y301786D02*
G54D16*
D03*
X568335Y308086D02*
G54D16*
D03*
X568335Y314486D02*
G54D16*
D03*
X537935Y344886D02*
G54D15*
D03*
X531535Y344886D02*
G54D15*
D03*
X525235Y344886D02*
G54D15*
D03*
X518935Y344886D02*
G54D15*
D03*
X512535Y344886D02*
G54D15*
D03*
X506135Y344886D02*
G54D15*
D03*
X499835Y344886D02*
G54D15*
D03*
X493535Y344886D02*
G54D15*
D03*
X487135Y344886D02*
G54D15*
D03*
X480735Y344886D02*
G54D15*
D03*
X474435Y344886D02*
G54D15*
D03*
X468135Y344886D02*
G54D15*
D03*
X461735Y344886D02*
G54D15*
D03*
X455335Y344886D02*
G54D15*
D03*
X449035Y344886D02*
G54D15*
D03*
X442735Y344886D02*
G54D15*
D03*
X436335Y344886D02*
G54D15*
D03*
X429935Y344886D02*
G54D15*
D03*
X423635Y344886D02*
G54D15*
D03*
X417335Y344886D02*
G54D15*
D03*
X410935Y344886D02*
G54D15*
D03*
X404535Y344886D02*
G54D15*
D03*
X398235Y344886D02*
G54D15*
D03*
X391935Y344886D02*
G54D15*
D03*
X385535Y344886D02*
G54D15*
D03*
X379135Y344886D02*
G54D15*
D03*
X372835Y344886D02*
G54D15*
D03*
X366535Y344886D02*
G54D15*
D03*
X360135Y344886D02*
G54D15*
D03*
X353735Y344886D02*
G54D15*
D03*
X347435Y344886D02*
G54D15*
D03*
X341135Y344886D02*
G54D15*
D03*
X334735Y344886D02*
G54D15*
D03*
X304335Y314486D02*
G54D16*
D03*
X304335Y308086D02*
G54D16*
D03*
X304335Y301786D02*
G54D16*
D03*
X304335Y295486D02*
G54D16*
D03*
X304335Y289086D02*
G54D16*
D03*
X304335Y282686D02*
G54D16*
D03*
X304335Y276386D02*
G54D16*
D03*
X304335Y270086D02*
G54D16*
D03*
X304335Y263686D02*
G54D16*
D03*
X304335Y257286D02*
G54D16*
D03*
X304335Y250986D02*
G54D16*
D03*
X304335Y244686D02*
G54D16*
D03*
X304335Y238286D02*
G54D16*
D03*
X304335Y231886D02*
G54D16*
D03*
X304335Y225586D02*
G54D16*
D03*
X304335Y219286D02*
G54D16*
D03*
X304335Y212886D02*
G54D16*
D03*
X304335Y206486D02*
G54D16*
D03*
X304335Y200186D02*
G54D16*
D03*
X304335Y193886D02*
G54D16*
D03*
X304335Y187486D02*
G54D16*
D03*
X304335Y181086D02*
G54D16*
D03*
X304335Y174786D02*
G54D16*
D03*
X304335Y168486D02*
G54D16*
D03*
X304335Y162086D02*
G54D16*
D03*
X304335Y155686D02*
G54D16*
D03*
X304335Y149386D02*
G54D16*
D03*
X304335Y143086D02*
G54D16*
D03*
X304335Y136686D02*
G54D16*
D03*
X304335Y130286D02*
G54D16*
D03*
X304335Y123986D02*
G54D16*
D03*
X304335Y117686D02*
G54D16*
D03*
X304335Y111286D02*
G54D16*
D03*
X1287859Y69140D02*
G54D17*
D03*
X1292859Y69140D02*
G54D17*
D03*
X1297859Y69140D02*
G54D17*
D03*
X1302859Y69140D02*
G54D17*
D03*
X1307859Y69140D02*
G54D17*
D03*
X1312859Y69140D02*
G54D17*
D03*
X1317859Y69140D02*
G54D17*
D03*
X1322859Y69140D02*
G54D17*
D03*
X1327859Y69140D02*
G54D17*
D03*
X1332859Y69140D02*
G54D17*
D03*
X1337859Y69140D02*
G54D17*
D03*
X1342859Y69140D02*
G54D17*
D03*
X1347859Y69140D02*
G54D17*
D03*
X1352859Y69140D02*
G54D17*
D03*
X1357859Y69140D02*
G54D17*
D03*
X1362859Y69140D02*
G54D17*
D03*
X1367859Y69140D02*
G54D17*
D03*
X1372859Y69140D02*
G54D17*
D03*
X1377859Y69140D02*
G54D17*
D03*
X1382859Y69140D02*
G54D17*
D03*
X1387859Y69140D02*
G54D17*
D03*
X1392859Y69140D02*
G54D17*
D03*
X1397859Y69140D02*
G54D17*
D03*
X1402859Y69140D02*
G54D17*
D03*
X1407859Y69140D02*
G54D17*
D03*
X1412859Y69140D02*
G54D17*
D03*
X1417859Y69140D02*
G54D17*
D03*
X1422859Y69140D02*
G54D17*
D03*
X1427859Y69140D02*
G54D17*
D03*
X1432859Y69140D02*
G54D17*
D03*
X1437859Y69140D02*
G54D17*
D03*
X1442859Y69140D02*
G54D17*
D03*
X1447859Y69140D02*
G54D17*
D03*
X1452859Y69140D02*
G54D17*
D03*
X1457859Y69140D02*
G54D17*
D03*
X1462859Y69140D02*
G54D17*
D03*
X1467859Y69140D02*
G54D17*
D03*
X1472859Y69140D02*
G54D17*
D03*
X1477859Y69140D02*
G54D17*
D03*
X1482859Y69140D02*
G54D17*
D03*
X1487859Y69140D02*
G54D17*
D03*
X1492859Y69140D02*
G54D17*
D03*
X1497859Y69140D02*
G54D17*
D03*
X1502859Y69140D02*
G54D17*
D03*
X1507859Y69140D02*
G54D17*
D03*
X1512859Y69140D02*
G54D17*
D03*
X1517859Y69140D02*
G54D17*
D03*
X1522859Y69140D02*
G54D17*
D03*
X1527859Y69140D02*
G54D17*
D03*
X1532859Y69140D02*
G54D17*
D03*
X1537859Y69140D02*
G54D17*
D03*
X1542859Y69140D02*
G54D17*
D03*
X1563947Y91022D02*
G54D18*
D03*
X1563947Y96022D02*
G54D18*
D03*
X1563947Y101022D02*
G54D18*
D03*
X1563947Y106022D02*
G54D18*
D03*
X1563947Y111022D02*
G54D18*
D03*
X1563947Y116022D02*
G54D18*
D03*
X1563947Y121022D02*
G54D18*
D03*
X1563947Y126022D02*
G54D18*
D03*
X1563947Y131022D02*
G54D18*
D03*
X1563947Y136022D02*
G54D18*
D03*
X1563947Y141022D02*
G54D18*
D03*
X1563947Y146022D02*
G54D18*
D03*
X1563947Y151022D02*
G54D18*
D03*
X1563947Y156022D02*
G54D18*
D03*
X1563947Y161022D02*
G54D18*
D03*
X1563947Y166022D02*
G54D18*
D03*
X1563947Y171022D02*
G54D18*
D03*
X1563947Y176022D02*
G54D18*
D03*
X1563947Y181022D02*
G54D18*
D03*
X1563947Y186022D02*
G54D18*
D03*
X1563947Y191022D02*
G54D18*
D03*
X1563947Y196022D02*
G54D18*
D03*
X1563947Y201022D02*
G54D18*
D03*
X1563947Y206022D02*
G54D18*
D03*
X1563947Y211022D02*
G54D18*
D03*
X1563947Y216022D02*
G54D18*
D03*
X1563947Y221022D02*
G54D18*
D03*
X1563947Y226022D02*
G54D18*
D03*
X1563947Y231022D02*
G54D18*
D03*
X1563947Y236022D02*
G54D18*
D03*
X1563947Y241022D02*
G54D18*
D03*
X1563947Y246022D02*
G54D18*
D03*
X1563947Y251022D02*
G54D18*
D03*
X1563947Y256022D02*
G54D18*
D03*
X1563947Y261022D02*
G54D18*
D03*
X1563947Y266022D02*
G54D18*
D03*
X1563947Y271022D02*
G54D18*
D03*
X1563947Y276022D02*
G54D18*
D03*
X1563947Y281022D02*
G54D18*
D03*
X1563947Y286022D02*
G54D18*
D03*
X1563947Y291022D02*
G54D18*
D03*
X1563947Y296022D02*
G54D18*
D03*
X1563947Y301022D02*
G54D18*
D03*
X1563947Y306022D02*
G54D18*
D03*
X1563947Y311022D02*
G54D18*
D03*
X1563947Y316022D02*
G54D18*
D03*
X1563947Y321022D02*
G54D18*
D03*
X1563947Y326022D02*
G54D18*
D03*
X1563947Y331022D02*
G54D18*
D03*
X1563947Y336022D02*
G54D18*
D03*
X1563947Y341022D02*
G54D18*
D03*
X1563947Y346022D02*
G54D18*
D03*
X1542859Y368300D02*
G54D17*
D03*
X1537859Y368300D02*
G54D17*
D03*
X1532859Y368300D02*
G54D17*
D03*
X1527859Y368300D02*
G54D17*
D03*
X1522859Y368300D02*
G54D17*
D03*
X1517859Y368300D02*
G54D17*
D03*
X1512859Y368300D02*
G54D17*
D03*
X1507859Y368300D02*
G54D17*
D03*
X1502859Y368300D02*
G54D17*
D03*
X1497859Y368300D02*
G54D17*
D03*
X1492859Y368300D02*
G54D17*
D03*
X1487859Y368300D02*
G54D17*
D03*
X1482859Y368300D02*
G54D17*
D03*
X1477859Y368300D02*
G54D17*
D03*
X1472859Y368300D02*
G54D17*
D03*
X1467859Y368300D02*
G54D17*
D03*
X1462859Y368300D02*
G54D17*
D03*
X1457859Y368300D02*
G54D17*
D03*
X1452859Y368300D02*
G54D17*
D03*
X1447859Y368300D02*
G54D17*
D03*
X1442859Y368300D02*
G54D17*
D03*
X1437859Y368300D02*
G54D17*
D03*
X1432859Y368300D02*
G54D17*
D03*
X1427859Y368300D02*
G54D17*
D03*
X1422859Y368300D02*
G54D17*
D03*
X1417859Y368300D02*
G54D17*
D03*
X1412859Y368300D02*
G54D17*
D03*
X1407859Y368300D02*
G54D17*
D03*
X1402859Y368300D02*
G54D17*
D03*
X1397859Y368300D02*
G54D17*
D03*
X1392859Y368300D02*
G54D17*
D03*
X1387859Y368300D02*
G54D17*
D03*
X1382859Y368300D02*
G54D17*
D03*
X1377859Y368300D02*
G54D17*
D03*
X1372859Y368300D02*
G54D17*
D03*
X1367859Y368300D02*
G54D17*
D03*
X1362859Y368300D02*
G54D17*
D03*
X1357859Y368300D02*
G54D17*
D03*
X1352859Y368300D02*
G54D17*
D03*
X1347859Y368300D02*
G54D17*
D03*
X1342859Y368300D02*
G54D17*
D03*
X1337859Y368300D02*
G54D17*
D03*
X1332859Y368300D02*
G54D17*
D03*
X1327859Y368300D02*
G54D17*
D03*
X1322859Y368300D02*
G54D17*
D03*
X1317859Y368300D02*
G54D17*
D03*
X1312859Y368300D02*
G54D17*
D03*
X1307859Y368300D02*
G54D17*
D03*
X1302859Y368300D02*
G54D17*
D03*
X1297859Y368300D02*
G54D17*
D03*
X1292859Y368300D02*
G54D17*
D03*
X1287859Y368300D02*
G54D17*
D03*
X1264788Y346022D02*
G54D18*
D03*
X1264788Y341022D02*
G54D18*
D03*
X1264788Y336022D02*
G54D18*
D03*
X1264788Y331022D02*
G54D18*
D03*
X1264788Y326022D02*
G54D18*
D03*
X1264788Y321022D02*
G54D18*
D03*
X1264788Y316022D02*
G54D18*
D03*
X1264788Y311022D02*
G54D18*
D03*
X1264788Y306022D02*
G54D18*
D03*
X1264788Y301022D02*
G54D18*
D03*
X1264788Y296022D02*
G54D18*
D03*
X1264788Y291022D02*
G54D18*
D03*
X1264788Y286022D02*
G54D18*
D03*
X1264788Y281022D02*
G54D18*
D03*
X1264788Y276022D02*
G54D18*
D03*
X1264788Y271022D02*
G54D18*
D03*
X1264788Y266022D02*
G54D18*
D03*
X1264788Y261022D02*
G54D18*
D03*
X1264788Y256022D02*
G54D18*
D03*
X1264788Y251022D02*
G54D18*
D03*
X1264788Y246022D02*
G54D18*
D03*
X1264788Y241022D02*
G54D18*
D03*
X1264788Y236022D02*
G54D18*
D03*
X1264788Y231022D02*
G54D18*
D03*
X1264788Y226022D02*
G54D18*
D03*
X1264788Y221022D02*
G54D18*
D03*
X1264788Y216022D02*
G54D18*
D03*
X1264788Y211022D02*
G54D18*
D03*
X1264788Y206022D02*
G54D18*
D03*
X1264788Y201022D02*
G54D18*
D03*
X1264788Y196022D02*
G54D18*
D03*
X1264788Y191022D02*
G54D18*
D03*
X1264788Y186022D02*
G54D18*
D03*
X1264788Y181022D02*
G54D18*
D03*
X1264788Y176022D02*
G54D18*
D03*
X1264788Y171022D02*
G54D18*
D03*
X1264788Y166022D02*
G54D18*
D03*
X1264788Y161022D02*
G54D18*
D03*
X1264788Y156022D02*
G54D18*
D03*
X1264788Y151022D02*
G54D18*
D03*
X1264788Y146022D02*
G54D18*
D03*
X1264788Y141022D02*
G54D18*
D03*
X1264788Y136022D02*
G54D18*
D03*
X1264788Y131022D02*
G54D18*
D03*
X1264788Y126022D02*
G54D18*
D03*
X1264788Y121022D02*
G54D18*
D03*
X1264788Y116022D02*
G54D18*
D03*
X1264788Y111022D02*
G54D18*
D03*
X1264788Y106022D02*
G54D18*
D03*
X1264788Y101022D02*
G54D18*
D03*
X1264788Y96022D02*
G54D18*
D03*
X1264788Y91022D02*
G54D18*
D03*
X816457Y189198D02*
G54D13*
D03*
X829157Y189198D02*
G54D13*
D03*
X841857Y189198D02*
G54D13*
D03*
X854557Y189198D02*
G54D13*
D03*
X867257Y189198D02*
G54D13*
D03*
X879957Y189198D02*
G54D13*
D03*
X892657Y189198D02*
G54D13*
D03*
X905357Y189198D02*
G54D13*
D03*
X918057Y189198D02*
G54D13*
D03*
X935854Y206796D02*
G54D14*
D03*
X935854Y219495D02*
G54D14*
D03*
X935854Y232195D02*
G54D14*
D03*
X935854Y244895D02*
G54D14*
D03*
X935854Y257595D02*
G54D14*
D03*
X935854Y270295D02*
G54D14*
D03*
X935854Y282995D02*
G54D14*
D03*
X935854Y295695D02*
G54D14*
D03*
X935854Y308395D02*
G54D14*
D03*
X935854Y321095D02*
G54D14*
D03*
X935854Y333795D02*
G54D14*
D03*
X935854Y346495D02*
G54D14*
D03*
X935854Y359195D02*
G54D14*
D03*
X935854Y371895D02*
G54D14*
D03*
X935854Y384595D02*
G54D14*
D03*
X935854Y397295D02*
G54D14*
D03*
X935854Y409995D02*
G54D14*
D03*
X918057Y427792D02*
G54D13*
D03*
X905357Y427792D02*
G54D13*
D03*
X892657Y427792D02*
G54D13*
D03*
X879957Y427792D02*
G54D13*
D03*
X867257Y427792D02*
G54D13*
D03*
X854557Y427792D02*
G54D13*
D03*
X841857Y427792D02*
G54D13*
D03*
X829157Y427792D02*
G54D13*
D03*
X816457Y427792D02*
G54D13*
D03*
X803757Y427792D02*
G54D13*
D03*
X791057Y427792D02*
G54D13*
D03*
X778357Y427792D02*
G54D13*
D03*
X765657Y427792D02*
G54D13*
D03*
X752957Y427792D02*
G54D13*
D03*
X740257Y427792D02*
G54D13*
D03*
X727557Y427792D02*
G54D13*
D03*
X714857Y427792D02*
G54D13*
D03*
X697060Y409995D02*
G54D14*
D03*
X697060Y397295D02*
G54D14*
D03*
X697060Y384595D02*
G54D14*
D03*
X697060Y371895D02*
G54D14*
D03*
X697060Y359195D02*
G54D14*
D03*
X697060Y346495D02*
G54D14*
D03*
X697060Y333795D02*
G54D14*
D03*
X697060Y321095D02*
G54D14*
D03*
X697060Y308395D02*
G54D14*
D03*
X697060Y295695D02*
G54D14*
D03*
X697060Y282995D02*
G54D14*
D03*
X697060Y270295D02*
G54D14*
D03*
X697060Y257595D02*
G54D14*
D03*
X697060Y244895D02*
G54D14*
D03*
X697060Y232195D02*
G54D14*
D03*
X697060Y219495D02*
G54D14*
D03*
X697060Y206796D02*
G54D14*
D03*
X714857Y189198D02*
G54D13*
D03*
X727557Y189198D02*
G54D13*
D03*
X740257Y189198D02*
G54D13*
D03*
X752957Y189198D02*
G54D13*
D03*
X765657Y189198D02*
G54D13*
D03*
X778357Y189198D02*
G54D13*
D03*
X791057Y189198D02*
G54D13*
D03*
X803757Y189198D02*
G54D13*
D03*
X1118371Y-231290D02*
G54D19*
D03*
X1118371Y-243990D02*
G54D19*
D03*
X1118371Y-256690D02*
G54D19*
D03*
X1118371Y-269390D02*
G54D19*
D03*
X1118371Y-282090D02*
G54D19*
D03*
X1118371Y-332890D02*
G54D19*
D03*
X1118371Y-345590D02*
G54D19*
D03*
X1118371Y-358290D02*
G54D19*
D03*
X1118371Y-370990D02*
G54D19*
D03*
X1118371Y-383690D02*
G54D19*
D03*
X1191958Y-383690D02*
G54D19*
D03*
X1191958Y-370990D02*
G54D19*
D03*
X1191958Y-358290D02*
G54D19*
D03*
X1191958Y-345590D02*
G54D19*
D03*
X1191958Y-332890D02*
G54D19*
D03*
X1191958Y-282090D02*
G54D19*
D03*
X1191958Y-269390D02*
G54D19*
D03*
X1191958Y-256690D02*
G54D19*
D03*
X1191958Y-243990D02*
G54D19*
D03*
X1191958Y-231290D02*
G54D19*
D03*
X1238789Y-231290D02*
G54D19*
D03*
X1238789Y-243990D02*
G54D19*
D03*
X1238789Y-256690D02*
G54D19*
D03*
X1238789Y-269390D02*
G54D19*
D03*
X1238789Y-282090D02*
G54D19*
D03*
X1238789Y-332890D02*
G54D19*
D03*
X1238789Y-345590D02*
G54D19*
D03*
X1238789Y-358290D02*
G54D19*
D03*
X1238789Y-370990D02*
G54D19*
D03*
X1238789Y-383690D02*
G54D19*
D03*
X1312376Y-383690D02*
G54D19*
D03*
X1312376Y-370990D02*
G54D19*
D03*
X1312376Y-358290D02*
G54D19*
D03*
X1312376Y-345590D02*
G54D19*
D03*
X1312376Y-332890D02*
G54D19*
D03*
X1312376Y-282090D02*
G54D19*
D03*
X1312376Y-269390D02*
G54D19*
D03*
X1312376Y-256690D02*
G54D19*
D03*
X1312376Y-243990D02*
G54D19*
D03*
X1312376Y-231290D02*
G54D19*
D03*
X1360001Y-231290D02*
G54D19*
D03*
X1360001Y-243990D02*
G54D19*
D03*
X1360001Y-256690D02*
G54D19*
D03*
X1360001Y-269390D02*
G54D19*
D03*
X1360001Y-282090D02*
G54D19*
D03*
X1360001Y-332890D02*
G54D19*
D03*
X1360001Y-345590D02*
G54D19*
D03*
X1360001Y-358290D02*
G54D19*
D03*
X1360001Y-370990D02*
G54D19*
D03*
X1360001Y-383690D02*
G54D19*
D03*
X1433588Y-383690D02*
G54D19*
D03*
X1433588Y-370990D02*
G54D19*
D03*
X1433588Y-358290D02*
G54D19*
D03*
X1433588Y-345590D02*
G54D19*
D03*
X1433588Y-332890D02*
G54D19*
D03*
X1433588Y-282090D02*
G54D19*
D03*
X1433588Y-269390D02*
G54D19*
D03*
X1433588Y-256690D02*
G54D19*
D03*
X1433588Y-243990D02*
G54D19*
D03*
X1433588Y-231290D02*
G54D19*
D03*
X1481213Y-231290D02*
G54D19*
D03*
X1481213Y-243990D02*
G54D19*
D03*
X1481213Y-256690D02*
G54D19*
D03*
X1481213Y-269390D02*
G54D19*
D03*
X1481213Y-282090D02*
G54D19*
D03*
X1481213Y-332890D02*
G54D19*
D03*
X1481213Y-345590D02*
G54D19*
D03*
X1481213Y-358290D02*
G54D19*
D03*
X1481213Y-370990D02*
G54D19*
D03*
X1481213Y-383690D02*
G54D19*
D03*
X1554800Y-383690D02*
G54D19*
D03*
X1554800Y-370990D02*
G54D19*
D03*
X1554800Y-358290D02*
G54D19*
D03*
X1554800Y-345590D02*
G54D19*
D03*
X1554800Y-332890D02*
G54D19*
D03*
X1554800Y-282090D02*
G54D19*
D03*
X1554800Y-269390D02*
G54D19*
D03*
X1554800Y-256690D02*
G54D19*
D03*
X1554800Y-243990D02*
G54D19*
D03*
X1554800Y-231290D02*
G54D19*
D03*
X1602425Y-231290D02*
G54D19*
D03*
X1602425Y-243990D02*
G54D19*
D03*
X1602425Y-256690D02*
G54D19*
D03*
X1602425Y-269390D02*
G54D19*
D03*
X1602425Y-282090D02*
G54D19*
D03*
X1602425Y-332890D02*
G54D19*
D03*
X1602425Y-345590D02*
G54D19*
D03*
X1602425Y-358290D02*
G54D19*
D03*
X1602425Y-370990D02*
G54D19*
D03*
X1602425Y-383690D02*
G54D19*
D03*
X1676012Y-383690D02*
G54D19*
D03*
X1676012Y-370990D02*
G54D19*
D03*
X1676012Y-358290D02*
G54D19*
D03*
X1676012Y-345590D02*
G54D19*
D03*
X1676012Y-332890D02*
G54D19*
D03*
X1676012Y-282090D02*
G54D19*
D03*
X1676012Y-269390D02*
G54D19*
D03*
X1676012Y-256690D02*
G54D19*
D03*
X1676012Y-243990D02*
G54D19*
D03*
X1676012Y-231290D02*
G54D19*
D03*
X1723637Y-231290D02*
G54D19*
D03*
X1723637Y-243990D02*
G54D19*
D03*
X1723637Y-256690D02*
G54D19*
D03*
X1723637Y-269390D02*
G54D19*
D03*
X1723637Y-282090D02*
G54D19*
D03*
X1723637Y-332890D02*
G54D19*
D03*
X1723637Y-345590D02*
G54D19*
D03*
X1723637Y-358290D02*
G54D19*
D03*
X1723637Y-370990D02*
G54D19*
D03*
X1723637Y-383690D02*
G54D19*
D03*
X1797224Y-383690D02*
G54D19*
D03*
X1797224Y-370990D02*
G54D19*
D03*
X1797224Y-358290D02*
G54D19*
D03*
X1797224Y-345590D02*
G54D19*
D03*
X1797224Y-332890D02*
G54D19*
D03*
X1797224Y-282090D02*
G54D19*
D03*
X1797224Y-269390D02*
G54D19*
D03*
X1797224Y-256690D02*
G54D19*
D03*
X1797224Y-243990D02*
G54D19*
D03*
X1797224Y-231290D02*
G54D19*
D03*
X1844056Y-231290D02*
G54D19*
D03*
X1844056Y-243990D02*
G54D19*
D03*
X1844056Y-256690D02*
G54D19*
D03*
X1844056Y-269390D02*
G54D19*
D03*
X1844056Y-282090D02*
G54D19*
D03*
X1844055Y-332890D02*
G54D19*
D03*
X1844055Y-345590D02*
G54D19*
D03*
X1844055Y-358290D02*
G54D19*
D03*
X1844055Y-370990D02*
G54D19*
D03*
X1844055Y-383690D02*
G54D19*
D03*
X1917642Y-383690D02*
G54D19*
D03*
X1917642Y-370990D02*
G54D19*
D03*
X1917642Y-358290D02*
G54D19*
D03*
X1917642Y-345590D02*
G54D19*
D03*
X1917642Y-332890D02*
G54D19*
D03*
X1917642Y-282090D02*
G54D19*
D03*
X1917642Y-269390D02*
G54D19*
D03*
X1917642Y-256690D02*
G54D19*
D03*
X1917642Y-243990D02*
G54D19*
D03*
X1917642Y-231290D02*
G54D19*
D03*
X1965268Y-231290D02*
G54D19*
D03*
X1965268Y-243990D02*
G54D19*
D03*
X1965268Y-256690D02*
G54D19*
D03*
X1965268Y-269390D02*
G54D19*
D03*
X1965268Y-282090D02*
G54D19*
D03*
X1965267Y-332890D02*
G54D19*
D03*
X1965267Y-345590D02*
G54D19*
D03*
X1965267Y-358290D02*
G54D19*
D03*
X1965267Y-370990D02*
G54D19*
D03*
X1965267Y-383690D02*
G54D19*
D03*
X2038854Y-383690D02*
G54D19*
D03*
X2038854Y-370990D02*
G54D19*
D03*
X2038854Y-358290D02*
G54D19*
D03*
X2038854Y-345590D02*
G54D19*
D03*
X2038854Y-332890D02*
G54D19*
D03*
X2038854Y-282090D02*
G54D19*
D03*
X2038854Y-269390D02*
G54D19*
D03*
X2038854Y-256690D02*
G54D19*
D03*
X2038854Y-243990D02*
G54D19*
D03*
X2038854Y-231290D02*
G54D19*
D03*
X2051143Y457311D02*
G54D11*
D03*
X2038443Y457310D02*
G54D11*
D03*
X2025743Y457311D02*
G54D11*
D03*
X2013043Y457311D02*
G54D11*
D03*
X2000343Y457311D02*
G54D11*
D03*
X1987643Y457311D02*
G54D11*
D03*
X1974943Y457311D02*
G54D11*
D03*
X1962243Y457311D02*
G54D11*
D03*
X1949543Y457311D02*
G54D11*
D03*
X1936843Y457311D02*
G54D11*
D03*
X1924143Y457311D02*
G54D11*
D03*
X1911443Y457311D02*
G54D11*
D03*
X1898743Y457310D02*
G54D11*
D03*
X1886043Y457310D02*
G54D11*
D03*
X1886043Y361310D02*
G54D11*
D03*
X1898743Y361311D02*
G54D11*
D03*
X1911443Y361311D02*
G54D11*
D03*
X1924143Y361311D02*
G54D11*
D03*
X1936843Y361311D02*
G54D11*
D03*
X1949543Y361311D02*
G54D11*
D03*
X1962243Y361311D02*
G54D11*
D03*
X1974943Y361311D02*
G54D11*
D03*
X1987643Y361311D02*
G54D11*
D03*
X2000343Y361310D02*
G54D11*
D03*
X2013043Y361310D02*
G54D11*
D03*
X2025743Y361311D02*
G54D11*
D03*
X2038443Y361311D02*
G54D11*
D03*
X2051143Y361311D02*
G54D11*
D03*
X2051143Y317654D02*
G54D11*
D03*
X2038443Y317654D02*
G54D11*
D03*
X2025743Y317654D02*
G54D11*
D03*
X2013043Y317654D02*
G54D11*
D03*
X2000343Y317654D02*
G54D11*
D03*
X1987643Y317654D02*
G54D11*
D03*
X1974943Y317654D02*
G54D11*
D03*
X1962243Y317654D02*
G54D11*
D03*
X1949543Y317654D02*
G54D11*
D03*
X1936843Y317654D02*
G54D11*
D03*
X1924143Y317654D02*
G54D11*
D03*
X1911443Y317654D02*
G54D11*
D03*
X1898743Y317654D02*
G54D11*
D03*
X1886043Y317654D02*
G54D11*
D03*
X1886043Y221654D02*
G54D11*
D03*
X1898743Y221654D02*
G54D11*
D03*
X1911443Y221654D02*
G54D11*
D03*
X1924143Y221654D02*
G54D11*
D03*
X1936843Y221654D02*
G54D11*
D03*
X1949543Y221654D02*
G54D11*
D03*
X1962243Y221654D02*
G54D11*
D03*
X1974943Y221654D02*
G54D11*
D03*
X1987643Y221654D02*
G54D11*
D03*
X2000343Y221654D02*
G54D11*
D03*
X2013043Y221654D02*
G54D11*
D03*
X2025743Y221654D02*
G54D11*
D03*
X2038443Y221654D02*
G54D11*
D03*
X2051143Y221654D02*
G54D11*
D03*
X2051143Y178792D02*
G54D11*
D03*
X2038443Y178792D02*
G54D11*
D03*
X2025743Y178792D02*
G54D11*
D03*
X2013043Y178792D02*
G54D11*
D03*
X2000343Y178792D02*
G54D11*
D03*
X1987643Y178792D02*
G54D11*
D03*
X1974943Y178792D02*
G54D11*
D03*
X1962243Y178792D02*
G54D11*
D03*
X1949543Y178792D02*
G54D11*
D03*
X1936843Y178792D02*
G54D11*
D03*
X1924143Y178792D02*
G54D11*
D03*
X1911443Y178792D02*
G54D11*
D03*
X1898743Y178792D02*
G54D11*
D03*
X1886043Y178792D02*
G54D11*
D03*
X1886043Y82792D02*
G54D11*
D03*
X1898743Y82792D02*
G54D11*
D03*
X1911443Y82792D02*
G54D11*
D03*
X1924143Y82792D02*
G54D11*
D03*
X1936843Y82792D02*
G54D11*
D03*
X1949543Y82792D02*
G54D11*
D03*
X1962243Y82792D02*
G54D11*
D03*
X1974943Y82792D02*
G54D11*
D03*
X1987643Y82792D02*
G54D11*
D03*
X2000343Y82792D02*
G54D11*
D03*
X2013043Y82792D02*
G54D11*
D03*
X2025743Y82792D02*
G54D11*
D03*
X2038443Y82792D02*
G54D11*
D03*
X2051143Y82792D02*
G54D11*
D03*
X2051143Y39532D02*
G54D11*
D03*
X2038443Y39532D02*
G54D11*
D03*
X2025743Y39532D02*
G54D11*
D03*
X2013043Y39532D02*
G54D11*
D03*
X2000343Y39532D02*
G54D11*
D03*
X1987643Y39532D02*
G54D11*
D03*
X1974943Y39532D02*
G54D11*
D03*
X1962243Y39532D02*
G54D11*
D03*
X1949543Y39532D02*
G54D11*
D03*
X1936843Y39532D02*
G54D11*
D03*
X1924143Y39532D02*
G54D11*
D03*
X1911443Y39532D02*
G54D11*
D03*
X1898743Y39532D02*
G54D11*
D03*
X1886043Y39532D02*
G54D11*
D03*
X1886043Y-56468D02*
G54D11*
D03*
X1898743Y-56468D02*
G54D11*
D03*
X1911443Y-56468D02*
G54D11*
D03*
X1924143Y-56468D02*
G54D11*
D03*
X1936843Y-56468D02*
G54D11*
D03*
X1949543Y-56468D02*
G54D11*
D03*
X1962243Y-56468D02*
G54D11*
D03*
X1974943Y-56468D02*
G54D11*
D03*
X1987643Y-56468D02*
G54D11*
D03*
X2000343Y-56468D02*
G54D11*
D03*
X2013043Y-56468D02*
G54D11*
D03*
X2025743Y-56468D02*
G54D11*
D03*
X2038443Y-56468D02*
G54D11*
D03*
X2051143Y-56468D02*
G54D11*
D03*
G36*
X819212Y-48878D02*
X803212Y-48878D01*
X803212Y-32878D01*
X819212Y-32878D01*
X819212Y-48878D01*
G37*
X785812Y-40878D02*
G54D20*
D03*
X760412Y-40878D02*
G54D20*
D03*
X735012Y-40878D02*
G54D20*
D03*
X709612Y-40878D02*
G54D20*
D03*
X684212Y-40878D02*
G54D20*
D03*
X658812Y-40878D02*
G54D20*
D03*
X633412Y-40878D02*
G54D20*
D03*
X608012Y-40878D02*
G54D20*
D03*
X582612Y-40878D02*
G54D20*
D03*
X557212Y-40878D02*
G54D20*
D03*
X531813Y-40878D02*
G54D20*
D03*
X506412Y-40878D02*
G54D20*
D03*
X481012Y-40878D02*
G54D20*
D03*
X455612Y-40878D02*
G54D20*
D03*
X430212Y-40878D02*
G54D20*
D03*
X404812Y-40878D02*
G54D20*
D03*
X379412Y-40878D02*
G54D20*
D03*
X354012Y-40878D02*
G54D20*
D03*
X328612Y-40878D02*
G54D20*
D03*
X328612Y-193278D02*
G54D20*
D03*
X354012Y-193278D02*
G54D20*
D03*
X379412Y-193278D02*
G54D20*
D03*
X404812Y-193278D02*
G54D20*
D03*
X430212Y-193278D02*
G54D20*
D03*
X455612Y-193278D02*
G54D20*
D03*
X481012Y-193278D02*
G54D20*
D03*
X506412Y-193278D02*
G54D20*
D03*
X531813Y-193278D02*
G54D20*
D03*
X557212Y-193278D02*
G54D20*
D03*
X582612Y-193278D02*
G54D20*
D03*
X608012Y-193278D02*
G54D20*
D03*
X633412Y-193278D02*
G54D20*
D03*
X658812Y-193278D02*
G54D20*
D03*
X684212Y-193278D02*
G54D20*
D03*
X709612Y-193278D02*
G54D20*
D03*
X735012Y-193278D02*
G54D20*
D03*
X760412Y-193278D02*
G54D20*
D03*
X785812Y-193278D02*
G54D20*
D03*
X811212Y-193278D02*
G54D20*
D03*
X303212Y-40878D02*
G54D20*
D03*
X303213Y-193278D02*
G54D20*
D03*
G36*
X819212Y-252078D02*
X803212Y-252078D01*
X803212Y-236078D01*
X819212Y-236078D01*
X819212Y-252078D01*
G37*
X785812Y-244078D02*
G54D20*
D03*
X760412Y-244078D02*
G54D20*
D03*
X735012Y-244078D02*
G54D20*
D03*
X709612Y-244078D02*
G54D20*
D03*
X684212Y-244078D02*
G54D20*
D03*
X658812Y-244078D02*
G54D20*
D03*
X633412Y-244078D02*
G54D20*
D03*
X608012Y-244078D02*
G54D20*
D03*
X582612Y-244078D02*
G54D20*
D03*
X557212Y-244078D02*
G54D20*
D03*
X531813Y-244078D02*
G54D20*
D03*
X506412Y-244078D02*
G54D20*
D03*
X481012Y-244078D02*
G54D20*
D03*
X455612Y-244078D02*
G54D20*
D03*
X430212Y-244078D02*
G54D20*
D03*
X404812Y-244078D02*
G54D20*
D03*
X379412Y-244078D02*
G54D20*
D03*
X354012Y-244078D02*
G54D20*
D03*
X328612Y-244078D02*
G54D20*
D03*
X328612Y-396478D02*
G54D20*
D03*
X354012Y-396478D02*
G54D20*
D03*
X379412Y-396478D02*
G54D20*
D03*
X404812Y-396478D02*
G54D20*
D03*
X430212Y-396478D02*
G54D20*
D03*
X455612Y-396478D02*
G54D20*
D03*
X481012Y-396478D02*
G54D20*
D03*
X506412Y-396478D02*
G54D20*
D03*
X531813Y-396478D02*
G54D20*
D03*
X557212Y-396478D02*
G54D20*
D03*
X582612Y-396478D02*
G54D20*
D03*
X608012Y-396478D02*
G54D20*
D03*
X633412Y-396478D02*
G54D20*
D03*
X658812Y-396478D02*
G54D20*
D03*
X684212Y-396478D02*
G54D20*
D03*
X709612Y-396478D02*
G54D20*
D03*
X735012Y-396478D02*
G54D20*
D03*
X760412Y-396478D02*
G54D20*
D03*
X785812Y-396478D02*
G54D20*
D03*
X811212Y-396478D02*
G54D20*
D03*
X303212Y-244078D02*
G54D20*
D03*
X303213Y-396478D02*
G54D20*
D03*
X828675Y-522288D02*
G54D21*
D03*
G36*
X522400Y-511288D02*
X544400Y-511288D01*
X544400Y-533288D01*
X522400Y-533288D01*
X522400Y-511288D01*
G37*
X1554108Y663054D02*
G54D22*
D03*
X1566808Y663054D02*
G54D22*
D03*
X1579508Y663054D02*
G54D22*
D03*
X1592208Y663054D02*
G54D22*
D03*
X1604908Y663054D02*
G54D22*
D03*
X1617608Y663054D02*
G54D22*
D03*
X1630308Y663054D02*
G54D22*
D03*
X1643008Y663054D02*
G54D22*
D03*
X1655708Y663054D02*
G54D22*
D03*
X1668408Y663054D02*
G54D22*
D03*
X1668408Y764579D02*
G54D22*
D03*
X1655708Y764579D02*
G54D22*
D03*
X1643008Y764579D02*
G54D22*
D03*
X1630308Y764579D02*
G54D22*
D03*
X1617608Y764579D02*
G54D22*
D03*
X1604908Y764579D02*
G54D22*
D03*
X1592208Y764579D02*
G54D22*
D03*
X1579508Y764579D02*
G54D22*
D03*
X1566808Y764579D02*
G54D22*
D03*
X1554108Y764579D02*
G54D22*
D03*
X1706508Y663054D02*
G54D22*
D03*
X1719208Y663054D02*
G54D22*
D03*
X1731908Y663054D02*
G54D22*
D03*
X1744608Y663054D02*
G54D22*
D03*
X1757308Y663054D02*
G54D22*
D03*
X1770008Y663054D02*
G54D22*
D03*
X1782708Y663054D02*
G54D22*
D03*
X1795408Y663054D02*
G54D22*
D03*
X1808108Y663054D02*
G54D22*
D03*
X1820808Y663054D02*
G54D22*
D03*
X1820808Y764579D02*
G54D22*
D03*
X1808108Y764579D02*
G54D22*
D03*
X1795408Y764579D02*
G54D22*
D03*
X1782708Y764579D02*
G54D22*
D03*
X1770008Y764579D02*
G54D22*
D03*
X1757308Y764579D02*
G54D22*
D03*
X1744608Y764579D02*
G54D22*
D03*
X1731908Y764579D02*
G54D22*
D03*
X1719208Y764579D02*
G54D22*
D03*
X1706508Y764579D02*
G54D22*
D03*
X2151772Y446787D02*
G54D23*
D03*
X2151772Y421387D02*
G54D23*
D03*
X2151772Y395987D02*
G54D23*
D03*
X2151772Y370587D02*
G54D23*
D03*
X2151772Y345187D02*
G54D23*
D03*
X2151772Y319787D02*
G54D23*
D03*
X2151772Y294387D02*
G54D23*
D03*
X2151772Y268987D02*
G54D23*
D03*
X2151772Y243587D02*
G54D23*
D03*
X2151772Y218187D02*
G54D23*
D03*
X2151772Y141987D02*
G54D23*
D03*
X2151772Y116587D02*
G54D23*
D03*
X2151772Y91187D02*
G54D23*
D03*
X2151772Y65787D02*
G54D23*
D03*
X2151772Y40387D02*
G54D23*
D03*
X2151772Y14988D02*
G54D23*
D03*
X2151772Y-10412D02*
G54D23*
D03*
X2151772Y-35813D02*
G54D23*
D03*
X2151772Y-61213D02*
G54D23*
D03*
X2151772Y-86613D02*
G54D23*
D03*
X2151772Y-112013D02*
G54D23*
D03*
X2151772Y-137413D02*
G54D23*
D03*
X2151772Y-162813D02*
G54D23*
D03*
X2151772Y-188213D02*
G54D23*
D03*
X2151772Y-213613D02*
G54D23*
D03*
X2151772Y-239013D02*
G54D23*
D03*
X2151772Y-264413D02*
G54D23*
D03*
X2126372Y434087D02*
G54D23*
D03*
X2126372Y408687D02*
G54D23*
D03*
X2126372Y383287D02*
G54D23*
D03*
X2126372Y357887D02*
G54D23*
D03*
X2126372Y332487D02*
G54D23*
D03*
X2126372Y307087D02*
G54D23*
D03*
X2126372Y281687D02*
G54D23*
D03*
X2126372Y256287D02*
G54D23*
D03*
X2126372Y230887D02*
G54D23*
D03*
X2126372Y205487D02*
G54D23*
D03*
X2126372Y129287D02*
G54D23*
D03*
X2126372Y103887D02*
G54D23*
D03*
X2126372Y78487D02*
G54D23*
D03*
X2126372Y53087D02*
G54D23*
D03*
X2126372Y27688D02*
G54D23*
D03*
X2126372Y2288D02*
G54D23*
D03*
X2126372Y-23113D02*
G54D23*
D03*
X2126372Y-48513D02*
G54D23*
D03*
X2126372Y-73913D02*
G54D23*
D03*
X2126372Y-99313D02*
G54D23*
D03*
X2126372Y-124713D02*
G54D23*
D03*
X2126372Y-150113D02*
G54D23*
D03*
X2126372Y-175513D02*
G54D23*
D03*
X2126372Y-200913D02*
G54D23*
D03*
X2126372Y-226313D02*
G54D23*
D03*
X2126372Y-251713D02*
G54D23*
D03*
X2126372Y-277113D02*
G54D23*
D03*
G36*
X2160372Y633187D02*
X2160372Y615987D01*
X2143172Y615987D01*
X2143172Y633187D01*
X2160372Y633187D01*
G37*
X2151772Y599187D02*
G54D23*
D03*
X2151772Y573787D02*
G54D23*
D03*
X2151772Y548387D02*
G54D23*
D03*
X2151772Y522987D02*
G54D23*
D03*
X2151772Y497587D02*
G54D23*
D03*
X2151772Y472187D02*
G54D23*
D03*
X2126372Y611887D02*
G54D23*
D03*
X2126372Y586487D02*
G54D23*
D03*
X2126372Y561087D02*
G54D23*
D03*
X2126372Y535687D02*
G54D23*
D03*
X2126372Y510287D02*
G54D23*
D03*
X2126372Y484887D02*
G54D23*
D03*
X2126372Y459487D02*
G54D23*
D03*
X2140140Y-359203D02*
G54D24*
D03*
X2140140Y174197D02*
G54D25*
D03*
X2140140Y706009D02*
G54D25*
D03*
G36*
X1938508Y833430D02*
X1920508Y833430D01*
X1920508Y851430D01*
X1938508Y851430D01*
X1938508Y833430D01*
G37*
X1956208Y842430D02*
G54D26*
D03*
X1983908Y842430D02*
G54D26*
D03*
X2011608Y842430D02*
G54D26*
D03*
X2039208Y842430D02*
G54D26*
D03*
X2066908Y842430D02*
G54D26*
D03*
X2094608Y842430D02*
G54D26*
D03*
X2122308Y842430D02*
G54D26*
D03*
X1942508Y870830D02*
G54D26*
D03*
X1970208Y870830D02*
G54D26*
D03*
X1997808Y870830D02*
G54D26*
D03*
X2025508Y870830D02*
G54D26*
D03*
X2053208Y870830D02*
G54D26*
D03*
X2080908Y870830D02*
G54D26*
D03*
X2108608Y870830D02*
G54D26*
D03*
G36*
X2157816Y890369D02*
X2224816Y890369D01*
X2224816Y823369D01*
X2157816Y823369D01*
X2157816Y890369D01*
G37*
G36*
X1826028Y890369D02*
X1893028Y890369D01*
X1893028Y823369D01*
X1826028Y823369D01*
X1826028Y890369D01*
G37*
G36*
X1401372Y890369D02*
X1468372Y890369D01*
X1468372Y823369D01*
X1401372Y823369D01*
X1401372Y890369D01*
G37*
G36*
X931472Y890369D02*
X998472Y890369D01*
X998472Y823369D01*
X931472Y823369D01*
X931472Y890369D01*
G37*
G36*
X1041389Y833830D02*
X1024189Y833830D01*
X1024189Y851030D01*
X1041389Y851030D01*
X1041389Y833830D01*
G37*
X1060489Y842430D02*
G54D27*
D03*
X1088089Y842430D02*
G54D27*
D03*
X1115789Y842430D02*
G54D27*
D03*
X1143489Y842430D02*
G54D27*
D03*
X1171189Y842430D02*
G54D27*
D03*
X1198889Y842430D02*
G54D27*
D03*
X1226589Y842430D02*
G54D27*
D03*
X1254289Y842430D02*
G54D27*
D03*
X1281889Y842430D02*
G54D27*
D03*
X1309589Y842430D02*
G54D27*
D03*
X1337289Y842430D02*
G54D27*
D03*
X1364989Y842430D02*
G54D27*
D03*
X1046689Y870830D02*
G54D27*
D03*
X1074389Y870830D02*
G54D27*
D03*
X1103089Y870830D02*
G54D27*
D03*
X1129789Y870830D02*
G54D27*
D03*
X1157489Y870830D02*
G54D27*
D03*
X1185189Y870830D02*
G54D27*
D03*
X1212889Y870830D02*
G54D27*
D03*
X1240489Y870830D02*
G54D27*
D03*
X1268189Y870830D02*
G54D27*
D03*
X1295889Y870830D02*
G54D27*
D03*
X1323589Y870830D02*
G54D27*
D03*
X1351289Y870830D02*
G54D27*
D03*
X1797202Y904004D02*
G54D28*
D03*
X1797202Y903004D02*
G54D28*
D03*
X1797202Y902004D02*
G54D28*
D03*
X1797202Y901004D02*
G54D28*
D03*
X1797202Y900004D02*
G54D28*
D03*
X1797202Y899004D02*
G54D28*
D03*
X1797202Y898004D02*
G54D28*
D03*
X1797202Y897004D02*
G54D28*
D03*
X1797202Y896004D02*
G54D28*
D03*
X1797202Y895004D02*
G54D28*
D03*
X1797202Y894004D02*
G54D28*
D03*
X1797202Y893004D02*
G54D28*
D03*
X1797202Y892004D02*
G54D28*
D03*
X1797202Y891004D02*
G54D28*
D03*
X1797202Y890004D02*
G54D28*
D03*
X1662265Y904004D02*
G54D28*
D03*
X1662265Y903004D02*
G54D28*
D03*
X1662265Y902004D02*
G54D28*
D03*
X1662265Y901004D02*
G54D28*
D03*
X1662265Y900004D02*
G54D28*
D03*
X1662265Y899004D02*
G54D28*
D03*
X1662265Y898004D02*
G54D28*
D03*
X1662265Y897004D02*
G54D28*
D03*
X1662265Y896004D02*
G54D28*
D03*
X1662265Y895004D02*
G54D28*
D03*
X1662265Y894004D02*
G54D28*
D03*
X1662265Y893004D02*
G54D28*
D03*
X1662265Y892004D02*
G54D28*
D03*
X1662265Y891004D02*
G54D28*
D03*
X1662265Y890004D02*
G54D28*
D03*
X1736733Y904941D02*
G54D28*
D03*
X1735734Y904941D02*
G54D28*
D03*
X1734734Y904941D02*
G54D28*
D03*
X1733734Y904941D02*
G54D28*
D03*
X1732734Y904941D02*
G54D28*
D03*
X1731734Y904941D02*
G54D28*
D03*
X1730733Y904941D02*
G54D28*
D03*
X1729733Y904941D02*
G54D28*
D03*
X1728734Y904941D02*
G54D28*
D03*
X1727734Y904941D02*
G54D28*
D03*
X1726734Y904941D02*
G54D28*
D03*
X1725734Y904941D02*
G54D28*
D03*
X1724734Y904941D02*
G54D28*
D03*
X1723733Y904941D02*
G54D28*
D03*
X1722733Y904941D02*
G54D28*
D03*
X1696808Y841647D02*
G54D29*
D03*
X1716808Y841647D02*
G54D29*
D03*
X1736808Y841647D02*
G54D29*
D03*
X1696808Y866647D02*
G54D29*
D03*
G36*
X1708308Y875147D02*
X1725308Y875147D01*
X1725308Y858147D01*
X1708308Y858147D01*
X1708308Y875147D01*
G37*
X1742808Y866647D02*
G54D29*
D03*
X1762808Y866647D02*
G54D29*
D03*
X1762808Y841647D02*
G54D29*
D03*
X1630396Y904004D02*
G54D28*
D03*
X1630396Y903004D02*
G54D28*
D03*
X1630396Y902004D02*
G54D28*
D03*
X1630396Y901004D02*
G54D28*
D03*
X1630396Y900004D02*
G54D28*
D03*
X1630396Y899004D02*
G54D28*
D03*
X1630396Y898004D02*
G54D28*
D03*
X1630396Y897004D02*
G54D28*
D03*
X1630396Y896004D02*
G54D28*
D03*
X1630396Y895004D02*
G54D28*
D03*
X1630396Y894004D02*
G54D28*
D03*
X1630396Y893004D02*
G54D28*
D03*
X1630396Y892004D02*
G54D28*
D03*
X1630396Y891004D02*
G54D28*
D03*
X1630396Y890004D02*
G54D28*
D03*
X1495459Y904004D02*
G54D28*
D03*
X1495459Y903004D02*
G54D28*
D03*
X1495459Y902004D02*
G54D28*
D03*
X1495459Y901004D02*
G54D28*
D03*
X1495459Y900004D02*
G54D28*
D03*
X1495459Y899004D02*
G54D28*
D03*
X1495459Y898004D02*
G54D28*
D03*
X1495459Y897004D02*
G54D28*
D03*
X1495459Y896004D02*
G54D28*
D03*
X1495459Y895004D02*
G54D28*
D03*
X1495459Y894004D02*
G54D28*
D03*
X1495459Y893004D02*
G54D28*
D03*
X1495459Y892004D02*
G54D28*
D03*
X1495459Y891004D02*
G54D28*
D03*
X1495459Y890004D02*
G54D28*
D03*
X1569927Y904941D02*
G54D28*
D03*
X1568928Y904941D02*
G54D28*
D03*
X1567928Y904941D02*
G54D28*
D03*
X1566928Y904941D02*
G54D28*
D03*
X1565928Y904941D02*
G54D28*
D03*
X1564928Y904941D02*
G54D28*
D03*
X1563927Y904941D02*
G54D28*
D03*
X1562927Y904941D02*
G54D28*
D03*
X1561928Y904941D02*
G54D28*
D03*
X1560928Y904941D02*
G54D28*
D03*
X1559928Y904941D02*
G54D28*
D03*
X1558928Y904941D02*
G54D28*
D03*
X1557928Y904941D02*
G54D28*
D03*
X1556927Y904941D02*
G54D28*
D03*
X1555927Y904941D02*
G54D28*
D03*
X1530002Y841647D02*
G54D29*
D03*
X1550002Y841647D02*
G54D29*
D03*
X1570002Y841647D02*
G54D29*
D03*
X1530002Y866647D02*
G54D29*
D03*
G36*
X1541502Y875147D02*
X1558502Y875147D01*
X1558502Y858147D01*
X1541502Y858147D01*
X1541502Y875147D01*
G37*
X1576002Y866647D02*
G54D29*
D03*
X1596002Y866647D02*
G54D29*
D03*
X1596002Y841647D02*
G54D29*
D03*
X900027Y904004D02*
G54D28*
D03*
X900027Y903004D02*
G54D28*
D03*
X900027Y902004D02*
G54D28*
D03*
X900027Y901004D02*
G54D28*
D03*
X900027Y900004D02*
G54D28*
D03*
X900027Y899004D02*
G54D28*
D03*
X900027Y898004D02*
G54D28*
D03*
X900027Y897004D02*
G54D28*
D03*
X900027Y896004D02*
G54D28*
D03*
X900027Y895004D02*
G54D28*
D03*
X900027Y894004D02*
G54D28*
D03*
X900027Y893004D02*
G54D28*
D03*
X900027Y892004D02*
G54D28*
D03*
X900027Y891004D02*
G54D28*
D03*
X900027Y890004D02*
G54D28*
D03*
X765089Y904004D02*
G54D28*
D03*
X765089Y903004D02*
G54D28*
D03*
X765089Y902004D02*
G54D28*
D03*
X765089Y901004D02*
G54D28*
D03*
X765089Y900004D02*
G54D28*
D03*
X765089Y899004D02*
G54D28*
D03*
X765089Y898004D02*
G54D28*
D03*
X765089Y897004D02*
G54D28*
D03*
X765089Y896004D02*
G54D28*
D03*
X765089Y895004D02*
G54D28*
D03*
X765089Y894004D02*
G54D28*
D03*
X765089Y893004D02*
G54D28*
D03*
X765089Y892004D02*
G54D28*
D03*
X765089Y891004D02*
G54D28*
D03*
X765089Y890004D02*
G54D28*
D03*
X839558Y904942D02*
G54D28*
D03*
X838558Y904942D02*
G54D28*
D03*
X837558Y904942D02*
G54D28*
D03*
X836558Y904942D02*
G54D28*
D03*
X835558Y904942D02*
G54D28*
D03*
X834558Y904942D02*
G54D28*
D03*
X833558Y904942D02*
G54D28*
D03*
X832558Y904942D02*
G54D28*
D03*
X831558Y904942D02*
G54D28*
D03*
X830558Y904942D02*
G54D28*
D03*
X829558Y904942D02*
G54D28*
D03*
X828558Y904942D02*
G54D28*
D03*
X827558Y904942D02*
G54D28*
D03*
X826558Y904942D02*
G54D28*
D03*
X825558Y904942D02*
G54D28*
D03*
X799633Y841647D02*
G54D29*
D03*
G36*
X791133Y875147D02*
X808133Y875147D01*
X808133Y858147D01*
X791133Y858147D01*
X791133Y875147D01*
G37*
X865633Y866647D02*
G54D29*
D03*
X865633Y841647D02*
G54D29*
D03*
X678095Y799156D02*
G54D30*
D03*
X679095Y799156D02*
G54D30*
D03*
X680095Y799156D02*
G54D30*
D03*
X681095Y799156D02*
G54D30*
D03*
X682095Y799156D02*
G54D30*
D03*
X683095Y799156D02*
G54D30*
D03*
X684095Y799156D02*
G54D30*
D03*
X685095Y799156D02*
G54D30*
D03*
X686095Y799156D02*
G54D30*
D03*
X687095Y799156D02*
G54D30*
D03*
X697145Y836462D02*
G54D30*
D03*
X698145Y836462D02*
G54D30*
D03*
X699145Y836462D02*
G54D30*
D03*
X700145Y836462D02*
G54D30*
D03*
X701145Y836462D02*
G54D30*
D03*
X702145Y836462D02*
G54D30*
D03*
X703145Y836462D02*
G54D30*
D03*
X704145Y836462D02*
G54D30*
D03*
X705145Y836462D02*
G54D30*
D03*
X706145Y836462D02*
G54D30*
D03*
X678095Y856306D02*
G54D30*
D03*
X679095Y856306D02*
G54D30*
D03*
X680095Y856306D02*
G54D30*
D03*
X681095Y856306D02*
G54D30*
D03*
X682095Y856306D02*
G54D30*
D03*
X683095Y856306D02*
G54D30*
D03*
X684095Y856306D02*
G54D30*
D03*
X685095Y856306D02*
G54D30*
D03*
X686095Y856306D02*
G54D30*
D03*
X687095Y856306D02*
G54D30*
D03*
X697145Y892818D02*
G54D30*
D03*
X698145Y892818D02*
G54D30*
D03*
X699145Y892818D02*
G54D30*
D03*
X700145Y892818D02*
G54D30*
D03*
X701145Y892818D02*
G54D30*
D03*
X702145Y892818D02*
G54D30*
D03*
X703145Y892818D02*
G54D30*
D03*
X704145Y892818D02*
G54D30*
D03*
X705145Y892818D02*
G54D30*
D03*
X706145Y892818D02*
G54D30*
D03*
X678095Y916630D02*
G54D30*
D03*
X679095Y916630D02*
G54D30*
D03*
X680095Y916630D02*
G54D30*
D03*
X681095Y916630D02*
G54D30*
D03*
X682095Y916630D02*
G54D30*
D03*
X683095Y916630D02*
G54D30*
D03*
X684095Y916630D02*
G54D30*
D03*
X685095Y916630D02*
G54D30*
D03*
X686095Y916630D02*
G54D30*
D03*
X687095Y916630D02*
G54D30*
D03*
X558238Y799156D02*
G54D30*
D03*
X559238Y799156D02*
G54D30*
D03*
X560238Y799156D02*
G54D30*
D03*
X561238Y799156D02*
G54D30*
D03*
X562238Y799156D02*
G54D30*
D03*
X563238Y799156D02*
G54D30*
D03*
X564238Y799156D02*
G54D30*
D03*
X565238Y799156D02*
G54D30*
D03*
X566238Y799156D02*
G54D30*
D03*
X567238Y799156D02*
G54D30*
D03*
X577288Y836462D02*
G54D30*
D03*
X578288Y836462D02*
G54D30*
D03*
X579288Y836462D02*
G54D30*
D03*
X580288Y836462D02*
G54D30*
D03*
X581288Y836462D02*
G54D30*
D03*
X582288Y836462D02*
G54D30*
D03*
X583288Y836462D02*
G54D30*
D03*
X584288Y836462D02*
G54D30*
D03*
X585288Y836462D02*
G54D30*
D03*
X586288Y836462D02*
G54D30*
D03*
X558238Y856306D02*
G54D30*
D03*
X559238Y856306D02*
G54D30*
D03*
X560238Y856306D02*
G54D30*
D03*
X561238Y856306D02*
G54D30*
D03*
X562238Y856306D02*
G54D30*
D03*
X563238Y856306D02*
G54D30*
D03*
X564238Y856306D02*
G54D30*
D03*
X565238Y856306D02*
G54D30*
D03*
X566238Y856306D02*
G54D30*
D03*
X567238Y856306D02*
G54D30*
D03*
X577288Y892818D02*
G54D30*
D03*
X578288Y892818D02*
G54D30*
D03*
X579288Y892818D02*
G54D30*
D03*
X580288Y892818D02*
G54D30*
D03*
X581288Y892818D02*
G54D30*
D03*
X582288Y892818D02*
G54D30*
D03*
X583288Y892818D02*
G54D30*
D03*
X584288Y892818D02*
G54D30*
D03*
X585288Y892818D02*
G54D30*
D03*
X586288Y892818D02*
G54D30*
D03*
X558238Y916630D02*
G54D30*
D03*
X559238Y916630D02*
G54D30*
D03*
X560238Y916630D02*
G54D30*
D03*
X561238Y916630D02*
G54D30*
D03*
X562238Y916630D02*
G54D30*
D03*
X563238Y916630D02*
G54D30*
D03*
X564238Y916630D02*
G54D30*
D03*
X565238Y916630D02*
G54D30*
D03*
X566238Y916630D02*
G54D30*
D03*
X567239Y916630D02*
G54D30*
D03*
G36*
X1460601Y693519D02*
X1469001Y693519D01*
X1469002Y669519D01*
X1460602Y669519D01*
X1460601Y693519D01*
G37*
X1477502Y681519D02*
G54D11*
D03*
G36*
X1486001Y693519D02*
X1494401Y693519D01*
X1494402Y669519D01*
X1486002Y669519D01*
X1486001Y693519D01*
G37*
X1509389Y700707D02*
G54D12*
D03*
X1509389Y713407D02*
G54D12*
D03*
X1509389Y726107D02*
G54D12*
D03*
X1509389Y738807D02*
G54D12*
D03*
X1509389Y751507D02*
G54D12*
D03*
X1490202Y770694D02*
G54D11*
D03*
X1477502Y770694D02*
G54D11*
D03*
X1464802Y770694D02*
G54D11*
D03*
X1452102Y770694D02*
G54D11*
D03*
X1439402Y770694D02*
G54D11*
D03*
X1420214Y751507D02*
G54D12*
D03*
X1420214Y738807D02*
G54D12*
D03*
X1420214Y726107D02*
G54D12*
D03*
X1420214Y713407D02*
G54D12*
D03*
X1420214Y700707D02*
G54D12*
D03*
X1439402Y681519D02*
G54D11*
D03*
X1452102Y681519D02*
G54D11*
D03*
X1464802Y618813D02*
G54D11*
D03*
X1452102Y618813D02*
G54D11*
D03*
X1439402Y618813D02*
G54D11*
D03*
X1420214Y599626D02*
G54D12*
D03*
X1420214Y586926D02*
G54D12*
D03*
X1420214Y574226D02*
G54D12*
D03*
X1420214Y561526D02*
G54D12*
D03*
X1420214Y548826D02*
G54D12*
D03*
X1439402Y529638D02*
G54D11*
D03*
X1452102Y529638D02*
G54D11*
D03*
X1464802Y529638D02*
G54D11*
D03*
X1477502Y529638D02*
G54D11*
D03*
X1490202Y529638D02*
G54D11*
D03*
X1509389Y548826D02*
G54D12*
D03*
X1509389Y561526D02*
G54D12*
D03*
X1509389Y574226D02*
G54D12*
D03*
X1509389Y586926D02*
G54D12*
D03*
X1509389Y599626D02*
G54D12*
D03*
X1490202Y618813D02*
G54D11*
D03*
X1477502Y618813D02*
G54D11*
D03*
X1554910Y546198D02*
G54D22*
D03*
X1567608Y546198D02*
G54D22*
D03*
X1580308Y546198D02*
G54D22*
D03*
X1593008Y546198D02*
G54D22*
D03*
X1605708Y546198D02*
G54D22*
D03*
X1618408Y546198D02*
G54D22*
D03*
X1631108Y546198D02*
G54D22*
D03*
X1643808Y546198D02*
G54D22*
D03*
X1643808Y602548D02*
G54D22*
D03*
X1631108Y602548D02*
G54D22*
D03*
X1618408Y602548D02*
G54D22*
D03*
X1605708Y602548D02*
G54D22*
D03*
X1593008Y602548D02*
G54D22*
D03*
X1580308Y602548D02*
G54D22*
D03*
X1567609Y602548D02*
G54D22*
D03*
X1554910Y602548D02*
G54D22*
D03*
X1681512Y546198D02*
G54D22*
D03*
X1694211Y546198D02*
G54D22*
D03*
X1706911Y546198D02*
G54D22*
D03*
X1719611Y546198D02*
G54D22*
D03*
X1732311Y546198D02*
G54D22*
D03*
X1745011Y546198D02*
G54D22*
D03*
X1757711Y546198D02*
G54D22*
D03*
X1770411Y546198D02*
G54D22*
D03*
X1770411Y602548D02*
G54D22*
D03*
X1757711Y602548D02*
G54D22*
D03*
X1745011Y602548D02*
G54D22*
D03*
X1732311Y602548D02*
G54D22*
D03*
X1719611Y602548D02*
G54D22*
D03*
X1706911Y602548D02*
G54D22*
D03*
X1694211Y602548D02*
G54D22*
D03*
X1681512Y602548D02*
G54D22*
D03*
X1862932Y795735D02*
G54D31*
D03*
X1862932Y757635D02*
G54D31*
D03*
X1862932Y770335D02*
G54D31*
D03*
X1862932Y783035D02*
G54D31*
D03*
X1862932Y732235D02*
G54D31*
D03*
X1862932Y744935D02*
G54D31*
D03*
X1905794Y795735D02*
G54D31*
D03*
X1905794Y757635D02*
G54D31*
D03*
X1905794Y770335D02*
G54D31*
D03*
X1905794Y783035D02*
G54D31*
D03*
X1905794Y732235D02*
G54D31*
D03*
X1905794Y744935D02*
G54D31*
D03*
X934244Y-217488D02*
G54D32*
D03*
X921544Y-217488D02*
G54D32*
D03*
X908844Y-217488D02*
G54D32*
D03*
X896144Y-217488D02*
G54D32*
D03*
X878831Y-234100D02*
G54D33*
D03*
X878831Y-246800D02*
G54D33*
D03*
X878831Y-259500D02*
G54D33*
D03*
X878831Y-272200D02*
G54D33*
D03*
X878831Y-284900D02*
G54D33*
D03*
X878831Y-297600D02*
G54D33*
D03*
X878831Y-310300D02*
G54D33*
D03*
X878831Y-323000D02*
G54D33*
D03*
X878831Y-335700D02*
G54D33*
D03*
X896144Y-352312D02*
G54D32*
D03*
X908844Y-352312D02*
G54D32*
D03*
X921544Y-352312D02*
G54D32*
D03*
X934244Y-352312D02*
G54D32*
D03*
X946944Y-352312D02*
G54D32*
D03*
X959644Y-352312D02*
G54D32*
D03*
X972344Y-352312D02*
G54D32*
D03*
X989656Y-335700D02*
G54D33*
D03*
X989656Y-323000D02*
G54D33*
D03*
X989656Y-310300D02*
G54D33*
D03*
X989656Y-297600D02*
G54D33*
D03*
X989656Y-284900D02*
G54D33*
D03*
X989656Y-272200D02*
G54D33*
D03*
X989656Y-259500D02*
G54D33*
D03*
X989656Y-246800D02*
G54D33*
D03*
X989656Y-234100D02*
G54D33*
D03*
X972344Y-217488D02*
G54D32*
D03*
X959644Y-217488D02*
G54D32*
D03*
X946944Y-217488D02*
G54D32*
D03*
X778167Y510892D02*
G54D22*
D03*
X790867Y510892D02*
G54D22*
D03*
X803567Y510892D02*
G54D22*
D03*
X816267Y510892D02*
G54D22*
D03*
X828967Y510892D02*
G54D22*
D03*
X841667Y510892D02*
G54D22*
D03*
X854367Y510892D02*
G54D22*
D03*
X867067Y510892D02*
G54D22*
D03*
G36*
X875267Y521392D02*
X884267Y521392D01*
X884267Y500392D01*
X875267Y500392D01*
X875267Y521392D01*
G37*
X892467Y510892D02*
G54D22*
D03*
X905167Y510892D02*
G54D22*
D03*
X917866Y510892D02*
G54D22*
D03*
X930565Y510892D02*
G54D22*
D03*
X943265Y510892D02*
G54D22*
D03*
X943265Y611654D02*
G54D22*
D03*
X930565Y611654D02*
G54D22*
D03*
X917866Y611654D02*
G54D22*
D03*
X905167Y611654D02*
G54D22*
D03*
X892467Y611654D02*
G54D22*
D03*
X879767Y611654D02*
G54D22*
D03*
X867067Y611654D02*
G54D22*
D03*
X854367Y611654D02*
G54D22*
D03*
X841667Y611654D02*
G54D22*
D03*
X828967Y611654D02*
G54D22*
D03*
G36*
X811767Y622154D02*
X820767Y622154D01*
X820767Y601154D01*
X811767Y601154D01*
X811767Y622154D01*
G37*
X803567Y611654D02*
G54D22*
D03*
X790867Y611654D02*
G54D22*
D03*
X778167Y611654D02*
G54D22*
D03*
X690734Y493694D02*
G54D29*
D03*
X716134Y493694D02*
G54D29*
D03*
X1281774Y-66054D02*
G54D22*
D03*
X1269074Y-66054D02*
G54D22*
D03*
X1256374Y-66054D02*
G54D22*
D03*
X1243674Y-66054D02*
G54D22*
D03*
X1230974Y-66054D02*
G54D22*
D03*
X1218274Y-66054D02*
G54D22*
D03*
X1205574Y-66054D02*
G54D22*
D03*
X1192874Y-66054D02*
G54D22*
D03*
X1180174Y-66054D02*
G54D22*
D03*
X1167474Y-66054D02*
G54D22*
D03*
X1167474Y-167579D02*
G54D22*
D03*
X1180174Y-167579D02*
G54D22*
D03*
X1192874Y-167579D02*
G54D22*
D03*
X1205574Y-167579D02*
G54D22*
D03*
X1218274Y-167579D02*
G54D22*
D03*
X1230974Y-167579D02*
G54D22*
D03*
X1243674Y-167579D02*
G54D22*
D03*
X1256374Y-167579D02*
G54D22*
D03*
X1269074Y-167579D02*
G54D22*
D03*
X1281774Y-167579D02*
G54D22*
D03*
X1485372Y-66054D02*
G54D22*
D03*
X1472672Y-66054D02*
G54D22*
D03*
X1459972Y-66054D02*
G54D22*
D03*
X1447272Y-66054D02*
G54D22*
D03*
X1434572Y-66054D02*
G54D22*
D03*
X1421871Y-66054D02*
G54D22*
D03*
X1409171Y-66054D02*
G54D22*
D03*
X1396471Y-66054D02*
G54D22*
D03*
X1383771Y-66054D02*
G54D22*
D03*
X1371071Y-66054D02*
G54D22*
D03*
X1371071Y-167579D02*
G54D22*
D03*
X1383771Y-167579D02*
G54D22*
D03*
X1396471Y-167579D02*
G54D22*
D03*
X1409171Y-167579D02*
G54D22*
D03*
X1421871Y-167579D02*
G54D22*
D03*
X1434572Y-167579D02*
G54D22*
D03*
X1447272Y-167579D02*
G54D22*
D03*
X1459972Y-167579D02*
G54D22*
D03*
X1472672Y-167579D02*
G54D22*
D03*
X1485372Y-167579D02*
G54D22*
D03*
X1727994Y-99300D02*
G54D13*
D03*
X1740694Y-99300D02*
G54D13*
D03*
X1753394Y-99300D02*
G54D13*
D03*
X1766094Y-99300D02*
G54D13*
D03*
X1785581Y-79812D02*
G54D14*
D03*
X1785581Y-67112D02*
G54D14*
D03*
X1785581Y-54412D02*
G54D14*
D03*
X1785581Y-41712D02*
G54D14*
D03*
X1785581Y-29012D02*
G54D14*
D03*
X1785581Y-16312D02*
G54D14*
D03*
X1785581Y-3612D02*
G54D14*
D03*
X1766094Y15875D02*
G54D13*
D03*
X1753394Y15875D02*
G54D13*
D03*
X1740694Y15875D02*
G54D13*
D03*
X1727994Y15875D02*
G54D13*
D03*
X1715294Y15875D02*
G54D13*
D03*
X1702594Y15875D02*
G54D13*
D03*
X1689894Y15875D02*
G54D13*
D03*
X1670406Y-3612D02*
G54D14*
D03*
X1670406Y-16312D02*
G54D14*
D03*
X1670406Y-29012D02*
G54D14*
D03*
X1670406Y-41712D02*
G54D14*
D03*
X1670406Y-54412D02*
G54D14*
D03*
X1670406Y-67112D02*
G54D14*
D03*
X1670406Y-79812D02*
G54D14*
D03*
X1689894Y-99300D02*
G54D13*
D03*
X1702594Y-99300D02*
G54D13*
D03*
X1715294Y-99300D02*
G54D13*
D03*
X1975654Y-127318D02*
G54D34*
D03*
X1962954Y-127318D02*
G54D34*
D03*
X1950254Y-127318D02*
G54D34*
D03*
X1937554Y-127318D02*
G54D34*
D03*
X1924854Y-127318D02*
G54D34*
D03*
X1912154Y-127318D02*
G54D34*
D03*
X1899454Y-127318D02*
G54D34*
D03*
X1899454Y-183272D02*
G54D34*
D03*
X1912154Y-183272D02*
G54D34*
D03*
X1924854Y-183272D02*
G54D34*
D03*
X1937554Y-183272D02*
G54D34*
D03*
X1950254Y-183272D02*
G54D34*
D03*
X1962954Y-183272D02*
G54D34*
D03*
X1975654Y-183272D02*
G54D34*
D03*
X1593850Y-80169D02*
G54D35*
D03*
X1593850Y-165100D02*
G54D35*
D03*
X1559719Y-98425D02*
G54D36*
D03*
X1559719Y-146844D02*
G54D36*
D03*
G36*
X880728Y705979D02*
X864728Y705979D01*
X864728Y721979D01*
X880728Y721979D01*
X880728Y705979D01*
G37*
X872728Y739379D02*
G54D37*
D03*
X847328Y713979D02*
G54D37*
D03*
X847328Y739379D02*
G54D37*
D03*
X821928Y713979D02*
G54D37*
D03*
X821928Y739379D02*
G54D37*
D03*
X796528Y713979D02*
G54D37*
D03*
X796528Y739379D02*
G54D37*
D03*
X796132Y788194D02*
G54D38*
D03*
X821532Y788194D02*
G54D38*
D03*
X846932Y788194D02*
G54D38*
D03*
X872332Y788194D02*
G54D38*
D03*
X796132Y674688D02*
G54D38*
D03*
X821532Y674688D02*
G54D38*
D03*
X846932Y674688D02*
G54D38*
D03*
X872332Y674688D02*
G54D38*
D03*
G36*
X681286Y696068D02*
X696086Y696068D01*
X696086Y681268D01*
X681286Y681268D01*
X681286Y696068D01*
G37*
X688686Y714068D02*
G54D39*
D03*
X714086Y688668D02*
G54D39*
D03*
X714086Y714068D02*
G54D39*
D03*
X739486Y688668D02*
G54D39*
D03*
X739486Y714068D02*
G54D39*
D03*
X574278Y763191D02*
G54D38*
D03*
X599678Y763191D02*
G54D38*
D03*
X625078Y763191D02*
G54D38*
D03*
X574278Y648891D02*
G54D38*
D03*
X599678Y648891D02*
G54D38*
D03*
X625078Y648891D02*
G54D38*
D03*
X688578Y763191D02*
G54D38*
D03*
X713978Y763191D02*
G54D38*
D03*
X739378Y763191D02*
G54D38*
D03*
X688578Y648891D02*
G54D38*
D03*
X713978Y648891D02*
G54D38*
D03*
X739378Y648891D02*
G54D38*
D03*
G36*
X566986Y696068D02*
X581786Y696068D01*
X581786Y681268D01*
X566986Y681268D01*
X566986Y696068D01*
G37*
X574386Y714068D02*
G54D39*
D03*
X599786Y688668D02*
G54D39*
D03*
X599786Y714068D02*
G54D39*
D03*
X625186Y688668D02*
G54D39*
D03*
X625186Y714068D02*
G54D39*
D03*
X271463Y501109D02*
G54D22*
D03*
X284163Y501109D02*
G54D22*
D03*
X296863Y501109D02*
G54D22*
D03*
X309563Y501109D02*
G54D22*
D03*
X309563Y557459D02*
G54D22*
D03*
X296863Y557459D02*
G54D22*
D03*
X284163Y557459D02*
G54D22*
D03*
X271463Y557459D02*
G54D22*
D03*
X453617Y646721D02*
G54D22*
D03*
X440917Y646721D02*
G54D22*
D03*
X428217Y646721D02*
G54D22*
D03*
X415517Y646721D02*
G54D22*
D03*
X415517Y590371D02*
G54D22*
D03*
X428217Y590371D02*
G54D22*
D03*
X440916Y590371D02*
G54D22*
D03*
X453617Y590371D02*
G54D22*
D03*
X453617Y547905D02*
G54D22*
D03*
X440917Y547905D02*
G54D22*
D03*
X428217Y547905D02*
G54D22*
D03*
X415517Y547905D02*
G54D22*
D03*
X415517Y491555D02*
G54D22*
D03*
X428217Y491555D02*
G54D22*
D03*
X440916Y491555D02*
G54D22*
D03*
X453617Y491555D02*
G54D22*
D03*
X956854Y782452D02*
G54D22*
D03*
X944154Y782452D02*
G54D22*
D03*
X931454Y782452D02*
G54D22*
D03*
X918754Y782452D02*
G54D22*
D03*
X918754Y726102D02*
G54D22*
D03*
X931454Y726102D02*
G54D22*
D03*
X944154Y726102D02*
G54D22*
D03*
X956854Y726102D02*
G54D22*
D03*
X229800Y708434D02*
G54D12*
D03*
X229800Y721134D02*
G54D12*
D03*
X229800Y733834D02*
G54D12*
D03*
X229800Y746534D02*
G54D12*
D03*
X211900Y764434D02*
G54D11*
D03*
X199200Y764434D02*
G54D11*
D03*
X186500Y764434D02*
G54D11*
D03*
X173800Y764434D02*
G54D11*
D03*
X161100Y764434D02*
G54D11*
D03*
X148400Y764434D02*
G54D11*
D03*
X135700Y764434D02*
G54D11*
D03*
X117800Y746534D02*
G54D12*
D03*
X117800Y733834D02*
G54D12*
D03*
X117800Y721134D02*
G54D12*
D03*
X117800Y708434D02*
G54D12*
D03*
X117800Y695734D02*
G54D12*
D03*
X117800Y683034D02*
G54D12*
D03*
X117800Y670334D02*
G54D12*
D03*
X135700Y652434D02*
G54D11*
D03*
X148400Y652434D02*
G54D11*
D03*
X161100Y652434D02*
G54D11*
D03*
X173800Y652434D02*
G54D11*
D03*
X186500Y652434D02*
G54D11*
D03*
X199200Y652434D02*
G54D11*
D03*
X211900Y652434D02*
G54D11*
D03*
X229800Y670334D02*
G54D12*
D03*
X229800Y683034D02*
G54D12*
D03*
X229800Y695734D02*
G54D12*
D03*
G36*
X172340Y-683516D02*
X198340Y-683516D01*
X198340Y-709516D01*
X172340Y-709516D01*
X172340Y-683516D01*
G37*
X226616Y-696516D02*
G54D40*
D03*
X185340Y-750490D02*
G54D40*
D03*
X226616Y-750490D02*
G54D40*
D03*
G36*
X356728Y-709153D02*
X372728Y-709153D01*
X372728Y-725153D01*
X356728Y-725153D01*
X356728Y-709153D01*
G37*
X364728Y-691753D02*
G54D36*
D03*
X390128Y-717153D02*
G54D36*
D03*
X390128Y-691753D02*
G54D36*
D03*
X415528Y-717153D02*
G54D36*
D03*
X415528Y-691753D02*
G54D36*
D03*
X440928Y-717153D02*
G54D36*
D03*
X440928Y-691753D02*
G54D36*
D03*
X466328Y-717153D02*
G54D36*
D03*
X466328Y-691753D02*
G54D36*
D03*
X491728Y-717153D02*
G54D36*
D03*
X491728Y-691753D02*
G54D36*
D03*
X517128Y-717153D02*
G54D36*
D03*
X517128Y-691753D02*
G54D36*
D03*
X542528Y-717153D02*
G54D36*
D03*
X542528Y-691753D02*
G54D36*
D03*
X567928Y-717153D02*
G54D36*
D03*
X567928Y-691753D02*
G54D36*
D03*
X593328Y-717153D02*
G54D36*
D03*
X593328Y-691753D02*
G54D36*
D03*
X618728Y-717153D02*
G54D36*
D03*
X618728Y-691753D02*
G54D36*
D03*
X644128Y-717153D02*
G54D36*
D03*
X644128Y-691753D02*
G54D36*
D03*
X669528Y-717153D02*
G54D36*
D03*
X669528Y-691753D02*
G54D36*
D03*
X694928Y-717153D02*
G54D36*
D03*
X694928Y-691753D02*
G54D36*
D03*
X720328Y-717153D02*
G54D36*
D03*
X720328Y-691753D02*
G54D36*
D03*
X745728Y-717153D02*
G54D36*
D03*
X745728Y-691753D02*
G54D36*
D03*
X771128Y-717153D02*
G54D36*
D03*
X771128Y-691753D02*
G54D36*
D03*
X796528Y-717153D02*
G54D36*
D03*
X796528Y-691753D02*
G54D36*
D03*
X821928Y-717153D02*
G54D36*
D03*
X821928Y-691753D02*
G54D36*
D03*
X847328Y-717153D02*
G54D36*
D03*
X847328Y-691753D02*
G54D36*
D03*
X872728Y-717153D02*
G54D36*
D03*
X872728Y-691753D02*
G54D36*
D03*
X898128Y-717153D02*
G54D36*
D03*
X898128Y-691753D02*
G54D36*
D03*
X923528Y-717153D02*
G54D36*
D03*
X923528Y-691753D02*
G54D36*
D03*
X948928Y-717153D02*
G54D36*
D03*
X948928Y-691753D02*
G54D36*
D03*
X974328Y-717153D02*
G54D36*
D03*
X974328Y-691753D02*
G54D36*
D03*
G36*
X1866838Y-788131D02*
X1882838Y-788131D01*
X1882838Y-804131D01*
X1866838Y-804131D01*
X1866838Y-788131D01*
G37*
X1874838Y-770731D02*
G54D36*
D03*
X1900238Y-796131D02*
G54D36*
D03*
X1900238Y-770731D02*
G54D36*
D03*
X1925638Y-796131D02*
G54D36*
D03*
X1925638Y-770731D02*
G54D36*
D03*
X1951038Y-796131D02*
G54D36*
D03*
X1951038Y-770731D02*
G54D36*
D03*
X1976438Y-796131D02*
G54D36*
D03*
X1976438Y-770731D02*
G54D36*
D03*
X2001837Y-796131D02*
G54D36*
D03*
X2001838Y-770731D02*
G54D36*
D03*
X2027238Y-796131D02*
G54D36*
D03*
X2027238Y-770731D02*
G54D36*
D03*
X2052638Y-796131D02*
G54D36*
D03*
X2052638Y-770731D02*
G54D36*
D03*
X2078038Y-796131D02*
G54D36*
D03*
X2078038Y-770731D02*
G54D36*
D03*
X2103438Y-796131D02*
G54D36*
D03*
X2103438Y-770731D02*
G54D36*
D03*
X2094048Y-669758D02*
G54D41*
D03*
X2054361Y-669758D02*
G54D41*
D03*
X2014673Y-669758D02*
G54D41*
D03*
X1974986Y-669758D02*
G54D41*
D03*
X1895611Y-669758D02*
G54D41*
D03*
G36*
X1838673Y-687008D02*
X1838673Y-652508D01*
X1873173Y-652508D01*
X1873173Y-687008D01*
X1838673Y-687008D01*
G37*
X1180652Y-541716D02*
G54D23*
D03*
X1206052Y-541716D02*
G54D23*
D03*
X1231452Y-541716D02*
G54D23*
D03*
X1256852Y-541716D02*
G54D23*
D03*
X1282252Y-541716D02*
G54D23*
D03*
X1307652Y-541716D02*
G54D23*
D03*
X1333052Y-541716D02*
G54D23*
D03*
X1358452Y-541716D02*
G54D23*
D03*
X1383852Y-541716D02*
G54D23*
D03*
X1409252Y-541716D02*
G54D23*
D03*
X1536252Y-541716D02*
G54D23*
D03*
X1561652Y-541716D02*
G54D23*
D03*
X1587052Y-541716D02*
G54D23*
D03*
X1612452Y-541716D02*
G54D23*
D03*
X1637852Y-541716D02*
G54D23*
D03*
X1663252Y-541716D02*
G54D23*
D03*
X1688652Y-541716D02*
G54D23*
D03*
X1714052Y-541716D02*
G54D23*
D03*
X1739452Y-541716D02*
G54D23*
D03*
X1764852Y-541716D02*
G54D23*
D03*
X1790252Y-541716D02*
G54D23*
D03*
X1815652Y-541716D02*
G54D23*
D03*
X1841052Y-541716D02*
G54D23*
D03*
X1866452Y-541716D02*
G54D23*
D03*
X1891852Y-541716D02*
G54D23*
D03*
X1917252Y-541716D02*
G54D23*
D03*
X1942652Y-541716D02*
G54D23*
D03*
X1193352Y-567116D02*
G54D23*
D03*
X1218752Y-567116D02*
G54D23*
D03*
X1244152Y-567116D02*
G54D23*
D03*
X1269552Y-567116D02*
G54D23*
D03*
X1294952Y-567116D02*
G54D23*
D03*
X1320352Y-567116D02*
G54D23*
D03*
X1345752Y-567116D02*
G54D23*
D03*
X1371152Y-567116D02*
G54D23*
D03*
X1396552Y-567116D02*
G54D23*
D03*
X1421952Y-567116D02*
G54D23*
D03*
X1548952Y-567116D02*
G54D23*
D03*
X1574352Y-567116D02*
G54D23*
D03*
X1599752Y-567116D02*
G54D23*
D03*
X1625152Y-567116D02*
G54D23*
D03*
X1650551Y-567116D02*
G54D23*
D03*
X1675952Y-567116D02*
G54D23*
D03*
X1701352Y-567116D02*
G54D23*
D03*
X1726752Y-567116D02*
G54D23*
D03*
X1752152Y-567116D02*
G54D23*
D03*
X1777552Y-567116D02*
G54D23*
D03*
X1802952Y-567116D02*
G54D23*
D03*
X1828352Y-567116D02*
G54D23*
D03*
X1853752Y-567116D02*
G54D23*
D03*
X1879152Y-567116D02*
G54D23*
D03*
X1904552Y-567116D02*
G54D23*
D03*
X1929952Y-567116D02*
G54D23*
D03*
X1955352Y-567116D02*
G54D23*
D03*
G36*
X994251Y-533116D02*
X1011451Y-533116D01*
X1011451Y-550316D01*
X994251Y-550316D01*
X994251Y-533116D01*
G37*
X1028252Y-541716D02*
G54D23*
D03*
X1053652Y-541716D02*
G54D23*
D03*
X1079052Y-541716D02*
G54D23*
D03*
X1104452Y-541716D02*
G54D23*
D03*
X1129852Y-541716D02*
G54D23*
D03*
X1155252Y-541716D02*
G54D23*
D03*
X1015552Y-567116D02*
G54D23*
D03*
X1040952Y-567116D02*
G54D23*
D03*
X1066352Y-567116D02*
G54D23*
D03*
X1091752Y-567116D02*
G54D23*
D03*
X1117151Y-567116D02*
G54D23*
D03*
X1142552Y-567116D02*
G54D23*
D03*
X1167952Y-567116D02*
G54D23*
D03*
X1434652Y-541716D02*
G54D23*
D03*
X1447352Y-567116D02*
G54D23*
D03*
X1510852Y-541716D02*
G54D23*
D03*
X1523552Y-567116D02*
G54D23*
D03*
G36*
X1098025Y-650350D02*
X1080025Y-650350D01*
X1080025Y-632350D01*
X1098025Y-632350D01*
X1098025Y-650350D01*
G37*
X1063625Y-641350D02*
G54D26*
D03*
G36*
X1098634Y-729020D02*
X1098634Y-747020D01*
X1080634Y-747020D01*
X1080634Y-729020D01*
X1098634Y-729020D01*
G37*
X1089634Y-763420D02*
G54D26*
D03*
X1089634Y-788820D02*
G54D26*
D03*
X2167460Y-633426D02*
G54D42*
D03*
X2167460Y-688988D02*
G54D42*
D03*
X522630Y746199D02*
G54D43*
D03*
X484530Y746199D02*
G54D43*
D03*
X522630Y689049D02*
G54D43*
D03*
X484530Y689049D02*
G54D43*
D03*
G36*
X286904Y748550D02*
X301904Y748550D01*
X301904Y720550D01*
X286904Y720550D01*
X286904Y748550D01*
G37*
X294404Y772650D02*
G54D44*
D03*
X294404Y658350D02*
G54D44*
D03*
X294404Y696450D02*
G54D44*
D03*
X2142060Y-527857D02*
G54D42*
D03*
X2142060Y-583419D02*
G54D42*
D03*
X2142060Y-413557D02*
G54D42*
D03*
X2142060Y-469119D02*
G54D42*
D03*
X428732Y-611726D02*
G54D42*
D03*
X428732Y-556164D02*
G54D42*
D03*
X1778343Y-174551D02*
G54D43*
D03*
X1740243Y-174551D02*
G54D43*
D03*
X1059292Y765925D02*
G54D45*
D03*
X1003730Y765925D02*
G54D45*
D03*
X585995Y539772D02*
G54D42*
D03*
X585995Y595334D02*
G54D42*
D03*
X358607Y648348D02*
G54D46*
D03*
X358607Y628348D02*
G54D46*
D03*
X383369Y638348D02*
G54D46*
D03*
X987028Y672307D02*
G54D47*
D03*
X924719Y672307D02*
G54D47*
D03*
X1356519Y777479D02*
G54D47*
D03*
X1294210Y777479D02*
G54D47*
D03*
X1235075Y781844D02*
G54D48*
D03*
X1186656Y781844D02*
G54D48*
D03*
X1943894Y783432D02*
G54D49*
D03*
X1989932Y783432D02*
G54D49*
D03*
X2020888Y783432D02*
G54D49*
D03*
X2066925Y783432D02*
G54D49*
D03*
X2103438Y783432D02*
G54D49*
D03*
X2149475Y783432D02*
G54D49*
D03*
X1839889Y-29608D02*
G54D50*
D03*
X1839889Y-68502D02*
G54D50*
D03*
X370658Y759379D02*
G54D50*
D03*
X370658Y720486D02*
G54D50*
D03*
X307692Y606590D02*
G54D49*
D03*
X268798Y606590D02*
G54D49*
D03*
X487931Y604980D02*
G54D49*
D03*
X526825Y604980D02*
G54D49*
D03*
X526825Y566086D02*
G54D49*
D03*
X487931Y566086D02*
G54D49*
D03*
X487931Y510921D02*
G54D49*
D03*
X526825Y510921D02*
G54D49*
D03*
X365058Y587698D02*
G54D50*
D03*
X365058Y548804D02*
G54D50*
D03*
X2208212Y793353D02*
G54D51*
D03*
X2208212Y773509D02*
G54D51*
D03*
X2182812Y793353D02*
G54D51*
D03*
X2182812Y773509D02*
G54D51*
D03*
X1748234Y109140D02*
G54D51*
D03*
X1748234Y89297D02*
G54D51*
D03*
X1717278Y109140D02*
G54D51*
D03*
X1717278Y89297D02*
G54D51*
D03*
X1794848Y57605D02*
G54D51*
D03*
X1775004Y57605D02*
G54D51*
D03*
X1833166Y25003D02*
G54D51*
D03*
X1833166Y5160D02*
G54D51*
D03*
X1692672Y-164703D02*
G54D51*
D03*
X1692672Y-184547D02*
G54D51*
D03*
X1670447Y-164703D02*
G54D51*
D03*
X1670447Y-184547D02*
G54D51*
D03*
X1612900Y-5556D02*
G54D51*
D03*
X1612900Y-25400D02*
G54D51*
D03*
X183926Y822310D02*
G54D51*
D03*
X164082Y822310D02*
G54D51*
D03*
X234328Y822310D02*
G54D51*
D03*
X214485Y822310D02*
G54D51*
D03*
X348628Y821913D02*
G54D51*
D03*
X328785Y821913D02*
G54D51*
D03*
X399428Y821913D02*
G54D51*
D03*
X379585Y821913D02*
G54D51*
D03*
X449832Y803260D02*
G54D51*
D03*
X429988Y803260D02*
G54D51*
D03*
X449832Y777860D02*
G54D51*
D03*
X429988Y777860D02*
G54D51*
D03*
X449832Y752460D02*
G54D51*
D03*
X429988Y752460D02*
G54D51*
D03*
X449832Y727060D02*
G54D51*
D03*
X429988Y727060D02*
G54D51*
D03*
X449832Y701660D02*
G54D51*
D03*
X429988Y701660D02*
G54D51*
D03*
G36*
X136170Y494298D02*
X136170Y477098D01*
X118970Y477098D01*
X118970Y494298D01*
X136170Y494298D01*
G37*
X127570Y460298D02*
G54D23*
D03*
X127570Y434898D02*
G54D23*
D03*
X127570Y409498D02*
G54D23*
D03*
X127570Y384098D02*
G54D23*
D03*
X127570Y358698D02*
G54D23*
D03*
X127570Y333298D02*
G54D23*
D03*
X127570Y307898D02*
G54D23*
D03*
X127570Y282498D02*
G54D23*
D03*
X127570Y257098D02*
G54D23*
D03*
X127570Y231698D02*
G54D23*
D03*
X127570Y206298D02*
G54D23*
D03*
X127570Y180898D02*
G54D23*
D03*
X127570Y155498D02*
G54D23*
D03*
X127570Y130098D02*
G54D23*
D03*
X127570Y104698D02*
G54D23*
D03*
X127570Y79298D02*
G54D23*
D03*
X127570Y53898D02*
G54D23*
D03*
X127570Y28498D02*
G54D23*
D03*
X127570Y3098D02*
G54D23*
D03*
X127570Y-22302D02*
G54D23*
D03*
X127570Y-47702D02*
G54D23*
D03*
X127570Y-73102D02*
G54D23*
D03*
X127570Y-98502D02*
G54D23*
D03*
X127570Y-123902D02*
G54D23*
D03*
X127570Y-149302D02*
G54D23*
D03*
X127570Y-174702D02*
G54D23*
D03*
X127570Y-200102D02*
G54D23*
D03*
X127570Y-225502D02*
G54D23*
D03*
X127570Y-250902D02*
G54D23*
D03*
X152970Y485698D02*
G54D23*
D03*
X152970Y460298D02*
G54D23*
D03*
X152971Y434898D02*
G54D23*
D03*
X152971Y409498D02*
G54D23*
D03*
X152970Y384098D02*
G54D23*
D03*
X152971Y358698D02*
G54D23*
D03*
X152970Y333298D02*
G54D23*
D03*
X152971Y307898D02*
G54D23*
D03*
X152970Y282498D02*
G54D23*
D03*
X152970Y257098D02*
G54D23*
D03*
X152970Y231698D02*
G54D23*
D03*
X152970Y206298D02*
G54D23*
D03*
X152970Y180898D02*
G54D23*
D03*
X152970Y155498D02*
G54D23*
D03*
X152970Y130098D02*
G54D23*
D03*
X152970Y104698D02*
G54D23*
D03*
X152970Y79298D02*
G54D23*
D03*
X152970Y53898D02*
G54D23*
D03*
X152970Y28498D02*
G54D23*
D03*
X152970Y3098D02*
G54D23*
D03*
X152970Y-22302D02*
G54D23*
D03*
X152970Y-47702D02*
G54D23*
D03*
X152970Y-73102D02*
G54D23*
D03*
X152970Y-98502D02*
G54D23*
D03*
X152970Y-123902D02*
G54D23*
D03*
X152970Y-149302D02*
G54D23*
D03*
X152970Y-174702D02*
G54D23*
D03*
X152970Y-200102D02*
G54D23*
D03*
X152970Y-225502D02*
G54D23*
D03*
X152970Y-250902D02*
G54D23*
D03*
X178370Y485698D02*
G54D23*
D03*
X178370Y460298D02*
G54D23*
D03*
X178370Y434898D02*
G54D23*
D03*
X178370Y409498D02*
G54D23*
D03*
X178370Y384098D02*
G54D23*
D03*
X178370Y358698D02*
G54D23*
D03*
X178370Y333298D02*
G54D23*
D03*
X178370Y307898D02*
G54D23*
D03*
X178370Y282498D02*
G54D23*
D03*
X178370Y257098D02*
G54D23*
D03*
X178370Y231698D02*
G54D23*
D03*
X178370Y206298D02*
G54D23*
D03*
X178370Y180898D02*
G54D23*
D03*
X178370Y155498D02*
G54D23*
D03*
X178370Y130098D02*
G54D23*
D03*
X178370Y104698D02*
G54D23*
D03*
X178370Y79298D02*
G54D23*
D03*
X178370Y53898D02*
G54D23*
D03*
X178370Y28498D02*
G54D23*
D03*
X178370Y3098D02*
G54D23*
D03*
X178370Y-22302D02*
G54D23*
D03*
X178370Y-47702D02*
G54D23*
D03*
X178370Y-73102D02*
G54D23*
D03*
X178370Y-98502D02*
G54D23*
D03*
X178370Y-123902D02*
G54D23*
D03*
X178370Y-149302D02*
G54D23*
D03*
X178370Y-174702D02*
G54D23*
D03*
X178370Y-200102D02*
G54D23*
D03*
X178370Y-225502D02*
G54D23*
D03*
X178370Y-250902D02*
G54D23*
D03*
X127570Y-276302D02*
G54D23*
D03*
X127570Y-301702D02*
G54D23*
D03*
X152970Y-276302D02*
G54D23*
D03*
X152971Y-301702D02*
G54D23*
D03*
X178370Y-276302D02*
G54D23*
D03*
X178370Y-301702D02*
G54D23*
D03*
X127570Y-377902D02*
G54D23*
D03*
X127570Y-403302D02*
G54D23*
D03*
X127570Y-428702D02*
G54D23*
D03*
X127570Y-454102D02*
G54D23*
D03*
X127570Y-479502D02*
G54D23*
D03*
X127570Y-504902D02*
G54D23*
D03*
X152970Y-377902D02*
G54D23*
D03*
X152971Y-403302D02*
G54D23*
D03*
X152970Y-428702D02*
G54D23*
D03*
X152970Y-454102D02*
G54D23*
D03*
X152970Y-479502D02*
G54D23*
D03*
X152971Y-504902D02*
G54D23*
D03*
X178370Y-377902D02*
G54D23*
D03*
X178370Y-403302D02*
G54D23*
D03*
X178370Y-428702D02*
G54D23*
D03*
X178370Y-454102D02*
G54D23*
D03*
X178370Y-479502D02*
G54D23*
D03*
X178370Y-504902D02*
G54D23*
D03*
G36*
X896108Y-32353D02*
X896108Y-49553D01*
X878908Y-49553D01*
X878908Y-32353D01*
X896108Y-32353D01*
G37*
X887508Y-66353D02*
G54D23*
D03*
X887508Y-91754D02*
G54D23*
D03*
X1558924Y-10716D02*
G54D52*
D03*
X1590674Y-10716D02*
G54D52*
D03*
X2006600Y735012D02*
G54D10*
D03*
X2017712Y735012D02*
G54D10*
D03*
X1988344Y742950D02*
G54D10*
D03*
X2063750Y735013D02*
G54D10*
D03*
X1962944Y611188D02*
G54D10*
D03*
X2011362Y601464D02*
G54D10*
D03*
X2022475Y598488D02*
G54D10*
D03*
X2023269Y585788D02*
G54D10*
D03*
X1993106Y694531D02*
G54D10*
D03*
X1974056Y694531D02*
G54D10*
D03*
X1961356Y702469D02*
G54D10*
D03*
X1949450Y656431D02*
G54D10*
D03*
X1925638Y758031D02*
G54D10*
D03*
X1979612Y812006D02*
G54D10*
D03*
X2012950Y815975D02*
G54D10*
D03*
X2046288Y814784D02*
G54D10*
D03*
X2073672Y813594D02*
G54D10*
D03*
X2139553Y818753D02*
G54D10*
D03*
X2207022Y759420D02*
G54D10*
D03*
X1891506Y707231D02*
G54D10*
D03*
X1862534Y717550D02*
G54D10*
D03*
X1839913Y807244D02*
G54D10*
D03*
X1838722Y790178D02*
G54D10*
D03*
X1838722Y769541D02*
G54D10*
D03*
X1838722Y754856D02*
G54D10*
D03*
X1838722Y740569D02*
G54D10*
D03*
X1838722Y723503D02*
G54D10*
D03*
X1838722Y700484D02*
G54D10*
D03*
X1999456Y575469D02*
G54D10*
D03*
X2011362Y575469D02*
G54D10*
D03*
X2024062Y575469D02*
G54D10*
D03*
X1991916Y565150D02*
G54D10*
D03*
X2005409Y559197D02*
G54D10*
D03*
X1992312Y552450D02*
G54D10*
D03*
X2006203Y546497D02*
G54D10*
D03*
X2006203Y528241D02*
G54D10*
D03*
X2048272Y511572D02*
G54D10*
D03*
X2050256Y494109D02*
G54D10*
D03*
X2025650Y488156D02*
G54D10*
D03*
X1999456Y491331D02*
G54D10*
D03*
X2012156Y474662D02*
G54D10*
D03*
X1986756Y481012D02*
G54D10*
D03*
X2198290Y508000D02*
G54D10*
D03*
X2099468Y309959D02*
G54D10*
D03*
X2099866Y299641D02*
G54D10*
D03*
X2099866Y242888D02*
G54D10*
D03*
X2099866Y232172D02*
G54D10*
D03*
X2009775Y655241D02*
G54D10*
D03*
X2068314Y656034D02*
G54D10*
D03*
X1826816Y586978D02*
G54D10*
D03*
X1809353Y619919D02*
G54D10*
D03*
X1790700Y620316D02*
G54D10*
D03*
X1833166Y655241D02*
G54D10*
D03*
X1722834Y627062D02*
G54D10*
D03*
X1736328Y623491D02*
G54D10*
D03*
X1733947Y638175D02*
G54D10*
D03*
X2103438Y748506D02*
G54D10*
D03*
X2025650Y420688D02*
G54D10*
D03*
X2038350Y421481D02*
G54D10*
D03*
X2000250Y400447D02*
G54D10*
D03*
X1987550Y394295D02*
G54D10*
D03*
X1942703Y440531D02*
G54D10*
D03*
X1885950Y440928D02*
G54D10*
D03*
X1898650Y404416D02*
G54D10*
D03*
X1911747Y408186D02*
G54D10*
D03*
X1924447Y413544D02*
G54D10*
D03*
X1843484Y382191D02*
G54D10*
D03*
X1843484Y371872D02*
G54D10*
D03*
X1832372Y401637D02*
G54D10*
D03*
X1805781Y379809D02*
G54D10*
D03*
X1802209Y391319D02*
G54D10*
D03*
X1799034Y424259D02*
G54D10*
D03*
X2051447Y377825D02*
G54D10*
D03*
X2038350Y378222D02*
G54D10*
D03*
X2025650Y378619D02*
G54D10*
D03*
X2198688Y345678D02*
G54D10*
D03*
X2197497Y298450D02*
G54D10*
D03*
X2187178Y279400D02*
G54D10*
D03*
X2194322Y266700D02*
G54D10*
D03*
X2206625Y255191D02*
G54D10*
D03*
X2166938Y223838D02*
G54D10*
D03*
X2172494Y205978D02*
G54D10*
D03*
X2095103Y194469D02*
G54D10*
D03*
X2092325Y177006D02*
G54D10*
D03*
X2084784Y170260D02*
G54D10*
D03*
X2066528Y131366D02*
G54D10*
D03*
X2070894Y121047D02*
G54D10*
D03*
X2062559Y114697D02*
G54D10*
D03*
X2080816Y101600D02*
G54D10*
D03*
X2072878Y96838D02*
G54D10*
D03*
X2073672Y85328D02*
G54D10*
D03*
X2099469Y33734D02*
G54D10*
D03*
X2203450Y15478D02*
G54D10*
D03*
X2185194Y26988D02*
G54D10*
D03*
X2168128Y2778D02*
G54D10*
D03*
X2076847Y-68262D02*
G54D10*
D03*
X2110978Y-252412D02*
G54D10*
D03*
X2097881Y-202406D02*
G54D10*
D03*
X2064941Y-183356D02*
G54D10*
D03*
X2052241Y-180578D02*
G54D10*
D03*
X2039541Y-177800D02*
G54D10*
D03*
X2027238Y-175816D02*
G54D10*
D03*
X2021681Y-203597D02*
G54D10*
D03*
X2051447Y-211534D02*
G54D10*
D03*
X2011759Y-212328D02*
G54D10*
D03*
X2014141Y-242094D02*
G54D10*
D03*
X2080816Y-254794D02*
G54D10*
D03*
X2051050Y-304006D02*
G54D10*
D03*
X2176066Y-317103D02*
G54D10*
D03*
X2091928Y-372269D02*
G54D10*
D03*
X2057797Y-339328D02*
G54D10*
D03*
X2020491Y-332978D02*
G54D10*
D03*
X2020888Y-345678D02*
G54D10*
D03*
X2020888Y-358775D02*
G54D10*
D03*
X2020888Y-371078D02*
G54D10*
D03*
X2020888Y-384175D02*
G54D10*
D03*
X2028825Y-403225D02*
G54D10*
D03*
X2022475Y-482600D02*
G54D10*
D03*
X2112962Y-482600D02*
G54D10*
D03*
X2092325Y-554038D02*
G54D10*
D03*
X2084388Y-569119D02*
G54D10*
D03*
X2143125Y-738981D02*
G54D10*
D03*
X2086769Y-726281D02*
G54D10*
D03*
X2033587Y-726281D02*
G54D10*
D03*
X1915319Y-713581D02*
G54D10*
D03*
X2003425Y-630238D02*
G54D10*
D03*
X2045097Y-585788D02*
G54D10*
D03*
X1918891Y-447278D02*
G54D10*
D03*
X1905397Y-402828D02*
G54D10*
D03*
X1900238Y-384175D02*
G54D10*
D03*
X1900238Y-370681D02*
G54D10*
D03*
X1900238Y-357981D02*
G54D10*
D03*
X1900238Y-345083D02*
G54D10*
D03*
X1900238Y-332581D02*
G54D10*
D03*
X1982787Y-383381D02*
G54D10*
D03*
X1982788Y-370681D02*
G54D10*
D03*
X1981994Y-345281D02*
G54D10*
D03*
X1981994Y-332581D02*
G54D10*
D03*
X1982788Y-358378D02*
G54D10*
D03*
X1862137Y-383778D02*
G54D10*
D03*
X1862138Y-371078D02*
G54D10*
D03*
X1862138Y-358378D02*
G54D10*
D03*
X1862138Y-345480D02*
G54D10*
D03*
X1862138Y-332978D02*
G54D10*
D03*
X1778000Y-332383D02*
G54D10*
D03*
X1778000Y-345678D02*
G54D10*
D03*
X1778000Y-358378D02*
G54D10*
D03*
X1778000Y-371078D02*
G54D10*
D03*
X1778000Y-384572D02*
G54D10*
D03*
X1781969Y-402828D02*
G54D10*
D03*
X1976438Y-202406D02*
G54D10*
D03*
X1972866Y-154384D02*
G54D10*
D03*
X1900237Y-144066D02*
G54D10*
D03*
X1912541Y-103584D02*
G54D10*
D03*
X1925241Y-104775D02*
G54D10*
D03*
X1943894Y-104775D02*
G54D10*
D03*
X1958181Y-100013D02*
G54D10*
D03*
X1975644Y-101203D02*
G54D10*
D03*
X1883172Y-76994D02*
G54D10*
D03*
X1925241Y-39688D02*
G54D10*
D03*
X1937941Y-40084D02*
G54D10*
D03*
X1962944Y-40084D02*
G54D10*
D03*
X1956594Y-27384D02*
G54D10*
D03*
X1978025Y-29766D02*
G54D10*
D03*
X1988741Y-40084D02*
G54D10*
D03*
X2051844Y-9525D02*
G54D10*
D03*
X2039144Y-9525D02*
G54D10*
D03*
X2026841Y-9525D02*
G54D10*
D03*
X2039144Y2381D02*
G54D10*
D03*
X2026841Y3175D02*
G54D10*
D03*
X2001441Y-8334D02*
G54D10*
D03*
X1988344Y-1984D02*
G54D10*
D03*
X1950244Y18256D02*
G54D10*
D03*
X1934766Y18256D02*
G54D10*
D03*
X1886347Y18256D02*
G54D10*
D03*
X1886347Y-21034D02*
G54D10*
D03*
X1871662Y-22225D02*
G54D10*
D03*
X1872456Y38497D02*
G54D10*
D03*
X1864122Y45244D02*
G54D10*
D03*
X1853803Y50403D02*
G54D10*
D03*
X1855391Y61516D02*
G54D10*
D03*
X1864122Y56753D02*
G54D10*
D03*
X1918494Y65088D02*
G54D10*
D03*
X1969294Y65484D02*
G54D10*
D03*
X2007394Y59134D02*
G54D10*
D03*
X2026047Y62706D02*
G54D10*
D03*
X2039541Y61516D02*
G54D10*
D03*
X2051844Y61516D02*
G54D10*
D03*
X1987550Y107156D02*
G54D10*
D03*
X2001044Y109538D02*
G54D10*
D03*
X1994694Y119062D02*
G54D10*
D03*
X2038350Y160734D02*
G54D10*
D03*
X2026047Y158750D02*
G54D10*
D03*
X2001044Y157956D02*
G54D10*
D03*
X1988344Y157956D02*
G54D10*
D03*
X1956197Y156766D02*
G54D10*
D03*
X1931194Y99219D02*
G54D10*
D03*
X1918494Y99219D02*
G54D10*
D03*
X1886347Y156766D02*
G54D10*
D03*
X2000647Y198834D02*
G54D10*
D03*
X1987550Y202803D02*
G54D10*
D03*
X1943100Y196056D02*
G54D10*
D03*
X2051447Y242094D02*
G54D10*
D03*
X2038350Y241697D02*
G54D10*
D03*
X2025650Y241697D02*
G54D10*
D03*
X1937544Y237728D02*
G54D10*
D03*
X1924447Y237728D02*
G54D10*
D03*
X1911747Y237728D02*
G54D10*
D03*
X1899047Y237728D02*
G54D10*
D03*
X1886744Y237728D02*
G54D10*
D03*
X1892697Y263128D02*
G54D10*
D03*
X1905397Y269081D02*
G54D10*
D03*
X1886347Y299641D02*
G54D10*
D03*
X1956197Y300037D02*
G54D10*
D03*
X1962547Y279400D02*
G54D10*
D03*
X1976041Y276225D02*
G54D10*
D03*
X1987947Y275431D02*
G54D10*
D03*
X1987947Y301228D02*
G54D10*
D03*
X2001838Y276622D02*
G54D10*
D03*
X2000647Y301228D02*
G54D10*
D03*
X2012752Y301228D02*
G54D10*
D03*
X2026047Y301228D02*
G54D10*
D03*
X2038747Y301625D02*
G54D10*
D03*
X2012553Y342106D02*
G54D10*
D03*
X2026047Y341312D02*
G54D10*
D03*
X2038350Y341312D02*
G54D10*
D03*
X1942306Y528638D02*
G54D10*
D03*
X1924050Y804862D02*
G54D10*
D03*
X1774428Y642541D02*
G54D10*
D03*
X1758156Y623887D02*
G54D10*
D03*
X1706562Y681831D02*
G54D10*
D03*
X1802209Y685800D02*
G54D10*
D03*
X1718072Y747712D02*
G54D10*
D03*
X1718072Y713581D02*
G54D10*
D03*
X1732359Y735806D02*
G54D10*
D03*
X1745456Y741759D02*
G54D10*
D03*
X1808559Y746522D02*
G54D10*
D03*
X1789112Y821134D02*
G54D10*
D03*
X1763712Y821531D02*
G54D10*
D03*
X1788716Y853281D02*
G54D10*
D03*
X1667669Y859631D02*
G54D10*
D03*
X2161381Y751681D02*
G54D10*
D03*
X2166938Y774700D02*
G54D10*
D03*
X1770062Y796131D02*
G54D10*
D03*
X1744662Y796131D02*
G54D10*
D03*
X1706562Y788988D02*
G54D10*
D03*
X1704578Y816372D02*
G54D10*
D03*
X1778794Y560387D02*
G54D10*
D03*
X1764506Y561578D02*
G54D10*
D03*
X1741488Y562769D02*
G54D10*
D03*
X1705769Y583009D02*
G54D10*
D03*
X1701006Y561578D02*
G54D10*
D03*
X1680369Y572691D02*
G54D10*
D03*
X1758156Y528241D02*
G54D10*
D03*
X1745059Y528241D02*
G54D10*
D03*
X1720056Y523478D02*
G54D10*
D03*
X1713309Y509191D02*
G54D10*
D03*
X1694656Y524669D02*
G54D10*
D03*
X1681956Y515938D02*
G54D10*
D03*
X1664891Y497681D02*
G54D10*
D03*
X1655366Y470694D02*
G54D10*
D03*
X1668066Y472678D02*
G54D10*
D03*
X1635919Y467916D02*
G54D10*
D03*
X1625203Y463153D02*
G54D10*
D03*
X1656556Y442119D02*
G54D10*
D03*
X1615678Y459978D02*
G54D10*
D03*
X1597025Y465138D02*
G54D10*
D03*
X1618059Y525859D02*
G54D10*
D03*
X1601391Y501650D02*
G54D10*
D03*
X1593056Y517128D02*
G54D10*
D03*
X1577578Y522288D02*
G54D10*
D03*
X1550988Y499269D02*
G54D10*
D03*
X1630759Y565150D02*
G54D10*
D03*
X1643459Y586978D02*
G54D10*
D03*
X1618059Y586978D02*
G54D10*
D03*
X1615281Y566341D02*
G54D10*
D03*
X1579959Y570706D02*
G54D10*
D03*
X1566862Y562769D02*
G54D10*
D03*
X1567259Y587375D02*
G54D10*
D03*
X1554956Y577056D02*
G54D10*
D03*
X1549400Y625872D02*
G54D10*
D03*
X1567259Y628253D02*
G54D10*
D03*
X1580356Y627062D02*
G54D10*
D03*
X1533922Y606028D02*
G54D10*
D03*
X1508919Y620712D02*
G54D10*
D03*
X1605359Y625872D02*
G54D10*
D03*
X1656159Y630238D02*
G54D10*
D03*
X1679178Y627460D02*
G54D10*
D03*
X1690291Y653653D02*
G54D10*
D03*
X1668463Y688181D02*
G54D10*
D03*
X1618853Y687388D02*
G54D10*
D03*
X1604566Y680641D02*
G54D10*
D03*
X1591866Y680641D02*
G54D10*
D03*
X1614091Y718741D02*
G54D10*
D03*
X1574006Y703659D02*
G54D10*
D03*
X1564084Y685800D02*
G54D10*
D03*
X1565275Y725488D02*
G54D10*
D03*
X1546622Y725091D02*
G54D10*
D03*
X1564084Y738584D02*
G54D10*
D03*
X1532334Y720328D02*
G54D10*
D03*
X1531541Y738981D02*
G54D10*
D03*
X1527969Y781050D02*
G54D10*
D03*
X1628775Y856853D02*
G54D10*
D03*
X1668463Y789781D02*
G54D10*
D03*
X1649809Y789781D02*
G54D10*
D03*
X1615678Y791369D02*
G54D10*
D03*
X1582738Y791369D02*
G54D10*
D03*
X1551186Y790774D02*
G54D10*
D03*
X1539081Y816372D02*
G54D10*
D03*
X1576388Y816372D02*
G54D10*
D03*
X1609328Y815975D02*
G54D10*
D03*
X1757759Y639762D02*
G54D10*
D03*
X1766888Y364331D02*
G54D10*
D03*
X1771650Y173037D02*
G54D10*
D03*
X1797844Y151606D02*
G54D10*
D03*
X1807766Y160338D02*
G54D10*
D03*
X1835547Y183356D02*
G54D10*
D03*
X1846262Y179388D02*
G54D10*
D03*
X1851025Y168672D02*
G54D10*
D03*
X1843087Y91678D02*
G54D10*
D03*
X1855391Y82947D02*
G54D10*
D03*
X1858367Y91678D02*
G54D10*
D03*
X1806178Y90488D02*
G54D10*
D03*
X1759347Y104775D02*
G54D10*
D03*
X1714897Y143669D02*
G54D10*
D03*
X1981200Y-250825D02*
G54D10*
D03*
X1991519Y-256778D02*
G54D10*
D03*
X1983978Y-269478D02*
G54D10*
D03*
X1983978Y-282972D02*
G54D10*
D03*
X2020094Y-282575D02*
G54D10*
D03*
X2020094Y-269875D02*
G54D10*
D03*
X1973262Y-307578D02*
G54D10*
D03*
X1900238Y-250428D02*
G54D10*
D03*
X1899841Y-268883D02*
G54D10*
D03*
X1899444Y-282575D02*
G54D10*
D03*
X1861741Y-256976D02*
G54D10*
D03*
X1861741Y-268883D02*
G54D10*
D03*
X1861741Y-282575D02*
G54D10*
D03*
X1799431Y-174228D02*
G54D10*
D03*
X1813719Y-173434D02*
G54D10*
D03*
X1825228Y-163910D02*
G54D10*
D03*
X1846659Y-178594D02*
G54D10*
D03*
X1828800Y-108744D02*
G54D10*
D03*
X1862931Y-114697D02*
G54D10*
D03*
X1812925Y-44847D02*
G54D10*
D03*
X1816894Y-12303D02*
G54D10*
D03*
X1785144Y13097D02*
G54D10*
D03*
X1752997Y-397D02*
G54D10*
D03*
X1740694Y0D02*
G54D10*
D03*
X1749425Y-18653D02*
G54D10*
D03*
X1730375Y-15875D02*
G54D10*
D03*
X1715294Y-2381D02*
G54D10*
D03*
X1702197Y-1984D02*
G54D10*
D03*
X1689497Y-3175D02*
G54D10*
D03*
X1692672Y-66675D02*
G54D10*
D03*
X1702197Y-55166D02*
G54D10*
D03*
X1702594Y-123428D02*
G54D10*
D03*
X1677988Y-101203D02*
G54D10*
D03*
X1727597Y-123428D02*
G54D10*
D03*
X1753394Y-124222D02*
G54D10*
D03*
X1597025Y-28972D02*
G54D10*
D03*
X1574800Y-27781D02*
G54D10*
D03*
X1575991Y-8334D02*
G54D10*
D03*
X1612900Y46434D02*
G54D10*
D03*
X1635125Y60325D02*
G54D10*
D03*
X1634728Y85725D02*
G54D10*
D03*
X1645047Y98028D02*
G54D10*
D03*
X1633934Y111125D02*
G54D10*
D03*
X1687116Y110728D02*
G54D10*
D03*
X1677988Y123825D02*
G54D10*
D03*
X1659334Y146447D02*
G54D10*
D03*
X1658739Y175419D02*
G54D10*
D03*
X1679972Y288528D02*
G54D10*
D03*
X1654175Y306388D02*
G54D10*
D03*
X1639491Y305197D02*
G54D10*
D03*
X1612900Y319088D02*
G54D10*
D03*
X1624409Y345083D02*
G54D10*
D03*
X1652191Y366316D02*
G54D10*
D03*
X1665288Y353219D02*
G54D10*
D03*
X1689894Y354409D02*
G54D10*
D03*
X1646634Y401241D02*
G54D10*
D03*
X1633934Y414338D02*
G54D10*
D03*
X1622028Y390922D02*
G54D10*
D03*
X1619647Y428625D02*
G54D10*
D03*
X1583928Y425847D02*
G54D10*
D03*
X1585912Y206375D02*
G54D10*
D03*
X2075656Y752872D02*
G54D10*
D03*
X2010569Y751681D02*
G54D53*
D03*
X1935559Y750094D02*
G54D53*
D03*
X2107009Y716359D02*
G54D53*
D03*
X2183210Y719931D02*
G54D53*
D03*
X2207022Y695325D02*
G54D53*
D03*
X2054622Y672703D02*
G54D53*
D03*
X1935956Y650676D02*
G54D53*
D03*
X1923256Y630634D02*
G54D53*
D03*
X1883966Y725091D02*
G54D53*
D03*
X1905794Y712391D02*
G54D53*
D03*
X1847453Y636984D02*
G54D53*
D03*
X1847056Y605631D02*
G54D53*
D03*
X1448594Y745331D02*
G54D53*
D03*
X1395809Y734219D02*
G54D53*
D03*
X1593453Y281781D02*
G54D10*
D03*
X1622425Y281781D02*
G54D10*
D03*
X1599406Y256778D02*
G54D10*
D03*
X1625203Y256778D02*
G54D10*
D03*
X1599803Y231775D02*
G54D10*
D03*
X1625203Y231775D02*
G54D10*
D03*
X1599009Y206375D02*
G54D10*
D03*
X1625203Y206375D02*
G54D10*
D03*
X1588691Y265906D02*
G54D10*
D03*
X1508522Y310356D02*
G54D10*
D03*
X1516062Y199628D02*
G54D10*
D03*
X1508919Y220266D02*
G54D10*
D03*
X1512888Y230584D02*
G54D10*
D03*
X1476375Y247253D02*
G54D10*
D03*
X1462484Y269478D02*
G54D10*
D03*
X1462484Y282178D02*
G54D10*
D03*
X1460103Y307975D02*
G54D10*
D03*
X1474788Y308174D02*
G54D10*
D03*
X1482725Y320278D02*
G54D10*
D03*
X1382316Y342106D02*
G54D10*
D03*
X1377156Y325438D02*
G54D10*
D03*
X1935559Y-231378D02*
G54D10*
D03*
X1918891Y-307578D02*
G54D10*
D03*
X1817291Y-447278D02*
G54D10*
D03*
X1778000Y-282376D02*
G54D10*
D03*
X1778000Y-269478D02*
G54D10*
D03*
X1778000Y-231775D02*
G54D10*
D03*
X1741091Y-256976D02*
G54D10*
D03*
X1741091Y-269478D02*
G54D10*
D03*
X1741091Y-282575D02*
G54D10*
D03*
X1744662Y-308769D02*
G54D10*
D03*
X1741091Y-332581D02*
G54D10*
D03*
X1741091Y-345678D02*
G54D10*
D03*
X1741091Y-358180D02*
G54D10*
D03*
X1741091Y-371078D02*
G54D10*
D03*
X1741091Y-383778D02*
G54D10*
D03*
X1702991Y-434578D02*
G54D10*
D03*
X1664097Y-602456D02*
G54D10*
D03*
X1670844Y-524669D02*
G54D10*
D03*
X1657350Y-525860D02*
G54D10*
D03*
X1676202Y-509190D02*
G54D10*
D03*
X1663303Y-508397D02*
G54D10*
D03*
X1656953Y-500062D02*
G54D10*
D03*
X1634331Y-500460D02*
G54D10*
D03*
X1627584Y-524669D02*
G54D10*
D03*
X1797844Y-314722D02*
G54D10*
D03*
X1970719Y726658D02*
G54D51*
D03*
X1950875Y726658D02*
G54D51*
D03*
X2062162Y33734D02*
G54D10*
D03*
X2122090Y-510778D02*
G54D53*
D03*
X2122487Y-398066D02*
G54D53*
D03*
X2161381Y-510778D02*
G54D53*
D03*
X2166938Y-604837D02*
G54D53*
D03*
X2096294Y-248444D02*
G54D53*
D03*
X2040731Y-482600D02*
G54D53*
D03*
X2039938Y-508397D02*
G54D10*
D03*
X2020888Y-220662D02*
G54D10*
D03*
X1681956Y374650D02*
G54D10*
D03*
X1743869Y-75406D02*
G54D10*
D03*
X1755775Y-61516D02*
G54D10*
D03*
X1746647Y-44053D02*
G54D10*
D03*
X1820466Y48022D02*
G54D10*
D03*
X1644650Y-53975D02*
G54D10*
D03*
X1645047Y-70644D02*
G54D10*
D03*
X1649016Y-87312D02*
G54D10*
D03*
X1624409Y-94853D02*
G54D10*
D03*
X1651000Y-32147D02*
G54D10*
D03*
X1648222Y-7144D02*
G54D10*
D03*
X1587103Y-45640D02*
G54D10*
D03*
X1545828Y-50006D02*
G54D10*
D03*
X1572816Y-184150D02*
G54D10*
D03*
X1637109Y-180975D02*
G54D10*
D03*
X1624012Y-151606D02*
G54D10*
D03*
X1649809Y-170656D02*
G54D10*
D03*
X1724422Y-160338D02*
G54D10*
D03*
X1577181Y-205978D02*
G54D10*
D03*
X1550988Y-198438D02*
G54D10*
D03*
X1619647Y-243483D02*
G54D10*
D03*
X1631553Y-244078D02*
G54D10*
D03*
X1631156Y-254397D02*
G54D10*
D03*
X1620044Y-260747D02*
G54D10*
D03*
X1619647Y-275828D02*
G54D10*
D03*
X1619647Y-288131D02*
G54D10*
D03*
X1664097Y-307181D02*
G54D10*
D03*
X1657747Y-282178D02*
G54D10*
D03*
X1657747Y-270272D02*
G54D10*
D03*
X1657747Y-256381D02*
G54D10*
D03*
X1657747Y-244475D02*
G54D10*
D03*
X1656953Y-231775D02*
G54D10*
D03*
X1611709Y-305991D02*
G54D10*
D03*
X1660128Y-403225D02*
G54D10*
D03*
X1658144Y-384175D02*
G54D10*
D03*
X1657747Y-370880D02*
G54D10*
D03*
X1657747Y-358378D02*
G54D10*
D03*
X1658144Y-345281D02*
G54D10*
D03*
X1657747Y-332383D02*
G54D10*
D03*
X1620044Y-332581D02*
G54D10*
D03*
X1619647Y-345281D02*
G54D10*
D03*
X1620044Y-358378D02*
G54D10*
D03*
X1620044Y-371078D02*
G54D10*
D03*
X1620044Y-383778D02*
G54D10*
D03*
X1613297Y-434578D02*
G54D10*
D03*
X1590278Y-425053D02*
G54D10*
D03*
X1582341Y-439738D02*
G54D10*
D03*
X1559719Y-402828D02*
G54D10*
D03*
X1546225Y-402828D02*
G54D10*
D03*
X1537097Y-383778D02*
G54D10*
D03*
X1537097Y-370681D02*
G54D10*
D03*
X1537097Y-357981D02*
G54D10*
D03*
X1537097Y-345281D02*
G54D10*
D03*
X1537097Y-332978D02*
G54D10*
D03*
X1498997Y-332978D02*
G54D10*
D03*
X1498997Y-345281D02*
G54D10*
D03*
X1498997Y-357981D02*
G54D10*
D03*
X1498997Y-371078D02*
G54D10*
D03*
X1498997Y-383778D02*
G54D10*
D03*
X1522016Y-421084D02*
G54D10*
D03*
X1519238Y-442912D02*
G54D10*
D03*
X1514475Y-461566D02*
G54D10*
D03*
X1506934Y-474067D02*
G54D10*
D03*
X1486297Y-434578D02*
G54D10*
D03*
X1476375Y-485378D02*
G54D10*
D03*
X1385888Y-601662D02*
G54D10*
D03*
X1353741Y-502840D02*
G54D10*
D03*
X1371203Y-498475D02*
G54D10*
D03*
X1440656Y-476647D02*
G54D10*
D03*
X1407319Y-455216D02*
G54D10*
D03*
X1358900Y-434181D02*
G54D10*
D03*
X1424781Y-402431D02*
G54D10*
D03*
X1445816Y-402431D02*
G54D10*
D03*
X1416050Y-383381D02*
G54D10*
D03*
X1416050Y-371078D02*
G54D10*
D03*
X1416050Y-358378D02*
G54D10*
D03*
X1416050Y-345678D02*
G54D10*
D03*
X1416050Y-332780D02*
G54D10*
D03*
X1450181Y-307181D02*
G54D10*
D03*
X1460897Y-298450D02*
G54D10*
D03*
X1417638Y-292497D02*
G54D10*
D03*
X1417638Y-282178D02*
G54D10*
D03*
X1417638Y-269081D02*
G54D10*
D03*
X1500584Y-282178D02*
G54D10*
D03*
X1500584Y-269875D02*
G54D10*
D03*
X1499791Y-256778D02*
G54D10*
D03*
X1504950Y-245269D02*
G54D10*
D03*
X1535906Y-269478D02*
G54D10*
D03*
X1535906Y-256381D02*
G54D10*
D03*
X1572419Y-282178D02*
G54D10*
D03*
X1569641Y-309960D02*
G54D10*
D03*
X1485900Y-194469D02*
G54D10*
D03*
X1472009Y-188119D02*
G54D10*
D03*
X1457722Y-204788D02*
G54D10*
D03*
X1519238Y-189706D02*
G54D10*
D03*
X1514475Y-167878D02*
G54D10*
D03*
X1500584Y-124619D02*
G54D10*
D03*
X1497806Y-105172D02*
G54D10*
D03*
X1479550Y-116681D02*
G54D10*
D03*
X1477566Y-88106D02*
G54D10*
D03*
X1461691Y-146050D02*
G54D10*
D03*
X1410891Y-146447D02*
G54D10*
D03*
X1444228Y-198438D02*
G54D10*
D03*
X1434306Y-186531D02*
G54D10*
D03*
X1422400Y-182960D02*
G54D10*
D03*
X1403747Y-181769D02*
G54D10*
D03*
X1393825Y-186928D02*
G54D10*
D03*
X1380331Y-187325D02*
G54D10*
D03*
X1365250Y-184547D02*
G54D10*
D03*
X1377950Y-231378D02*
G54D10*
D03*
X1377950Y-243681D02*
G54D10*
D03*
X1377950Y-256778D02*
G54D10*
D03*
X1377950Y-269081D02*
G54D10*
D03*
X1377950Y-282178D02*
G54D10*
D03*
X1362472Y-306388D02*
G54D10*
D03*
X1338659Y-304800D02*
G54D10*
D03*
X1324769Y-312738D02*
G54D10*
D03*
X1378347Y-332780D02*
G54D10*
D03*
X1378347Y-345281D02*
G54D10*
D03*
X1378347Y-357981D02*
G54D10*
D03*
X1378347Y-371078D02*
G54D10*
D03*
X1378347Y-383778D02*
G54D10*
D03*
X1321594Y-402828D02*
G54D10*
D03*
X1287859Y-519906D02*
G54D10*
D03*
X1280319Y-513953D02*
G54D10*
D03*
X1266428Y-510381D02*
G54D10*
D03*
X1258888Y-498872D02*
G54D10*
D03*
X1235472Y-522684D02*
G54D10*
D03*
X1225550Y-508794D02*
G54D10*
D03*
X1214041Y-508794D02*
G54D10*
D03*
X1216819Y-522684D02*
G54D10*
D03*
X1201341Y-496094D02*
G54D10*
D03*
X1143000Y-517128D02*
G54D10*
D03*
X1155303Y-516731D02*
G54D10*
D03*
X1148159Y-508397D02*
G54D10*
D03*
X1154112Y-489744D02*
G54D10*
D03*
X1150144Y-476647D02*
G54D10*
D03*
X1085850Y-489744D02*
G54D10*
D03*
X1084659Y-508397D02*
G54D10*
D03*
X997347Y-562372D02*
G54D10*
D03*
X1353344Y-143669D02*
G54D10*
D03*
X1353344Y-133350D02*
G54D10*
D03*
X1336675Y-133350D02*
G54D10*
D03*
X1336675Y-142875D02*
G54D10*
D03*
X1320403Y-144462D02*
G54D10*
D03*
X1320403Y-133350D02*
G54D10*
D03*
X1302544Y-133350D02*
G54D10*
D03*
X1302544Y-143272D02*
G54D10*
D03*
X1268016Y-135731D02*
G54D10*
D03*
X1282303Y-152003D02*
G54D10*
D03*
X1302544Y-117078D02*
G54D10*
D03*
X1323975Y-174228D02*
G54D10*
D03*
X1231900Y-147240D02*
G54D10*
D03*
X1218406Y-135731D02*
G54D10*
D03*
X1205706Y-144462D02*
G54D10*
D03*
X1193403Y-144860D02*
G54D10*
D03*
X1161256Y-144462D02*
G54D10*
D03*
X1152525Y-111919D02*
G54D10*
D03*
X1167209Y-86519D02*
G54D10*
D03*
X1268016Y-90488D02*
G54D10*
D03*
X1282303Y-90488D02*
G54D10*
D03*
X1325562Y-93266D02*
G54D10*
D03*
X1308497Y-77788D02*
G54D10*
D03*
X1308894Y-66278D02*
G54D10*
D03*
X1304925Y-55166D02*
G54D10*
D03*
X1297384Y-42466D02*
G54D10*
D03*
X1272778Y-24606D02*
G54D10*
D03*
X1263253Y-36116D02*
G54D10*
D03*
X1237456Y-43260D02*
G54D10*
D03*
X1224756Y-30560D02*
G54D10*
D03*
X1212056Y-30560D02*
G54D10*
D03*
X1199356Y-30560D02*
G54D10*
D03*
X1181497Y-32147D02*
G54D10*
D03*
X1199356Y-3969D02*
G54D10*
D03*
X1167606Y26590D02*
G54D10*
D03*
X1156097Y53578D02*
G54D10*
D03*
X1135062Y53578D02*
G54D10*
D03*
X1135856Y22622D02*
G54D10*
D03*
X1148556Y-16669D02*
G54D10*
D03*
X1134666Y-14288D02*
G54D10*
D03*
X1134666Y-24210D02*
G54D10*
D03*
X1140619Y-33338D02*
G54D10*
D03*
X1410494Y-50800D02*
G54D10*
D03*
X1448594Y-29567D02*
G54D10*
D03*
X1466850Y-33734D02*
G54D10*
D03*
X1466056Y-22225D02*
G54D10*
D03*
X1451372Y-8334D02*
G54D10*
D03*
X1465659Y3175D02*
G54D10*
D03*
X1503759Y-17066D02*
G54D10*
D03*
X1506141Y-27781D02*
G54D10*
D03*
X1465262Y-51197D02*
G54D10*
D03*
X1538288Y-28575D02*
G54D10*
D03*
X1521817Y3175D02*
G54D10*
D03*
X1541066Y19447D02*
G54D10*
D03*
X1525588Y22225D02*
G54D10*
D03*
X1522016Y41275D02*
G54D10*
D03*
X1540669Y42466D02*
G54D10*
D03*
X1441053Y17462D02*
G54D10*
D03*
X1466453Y28575D02*
G54D10*
D03*
X1450975Y46434D02*
G54D10*
D03*
X1407120Y46434D02*
G54D10*
D03*
X1391444Y36910D02*
G54D10*
D03*
X1378347Y36910D02*
G54D10*
D03*
X1371600Y11906D02*
G54D10*
D03*
X1385094Y50800D02*
G54D10*
D03*
X1326555Y9525D02*
G54D10*
D03*
X1374775Y107156D02*
G54D10*
D03*
X1364853Y107156D02*
G54D10*
D03*
X1353741Y107156D02*
G54D10*
D03*
X1340644Y118666D02*
G54D10*
D03*
X1466453Y123428D02*
G54D10*
D03*
X1555750Y75406D02*
G54D10*
D03*
X1564481Y81756D02*
G54D10*
D03*
X1522809Y123825D02*
G54D10*
D03*
X1584722Y93266D02*
G54D10*
D03*
X1602978Y85328D02*
G54D10*
D03*
X1588294Y110728D02*
G54D10*
D03*
X1584722Y127000D02*
G54D10*
D03*
X1626791Y127000D02*
G54D10*
D03*
X1626394Y144066D02*
G54D10*
D03*
X1602581Y156766D02*
G54D10*
D03*
X1515666Y177006D02*
G54D10*
D03*
X1454944Y244475D02*
G54D10*
D03*
X1434306Y231775D02*
G54D10*
D03*
X1425575Y219075D02*
G54D10*
D03*
X1450975Y209153D02*
G54D10*
D03*
X1454944Y170259D02*
G54D10*
D03*
X1433909Y152797D02*
G54D10*
D03*
X1434703Y192484D02*
G54D10*
D03*
X1412875Y200025D02*
G54D10*
D03*
X1410494Y187722D02*
G54D10*
D03*
X1420416Y141684D02*
G54D10*
D03*
X1410494Y142081D02*
G54D10*
D03*
X1383506Y157956D02*
G54D10*
D03*
X1392634Y183753D02*
G54D10*
D03*
X1381522Y183753D02*
G54D10*
D03*
X1336278Y165894D02*
G54D10*
D03*
X1334294Y141288D02*
G54D10*
D03*
X1304925Y135334D02*
G54D10*
D03*
X1309688Y183753D02*
G54D10*
D03*
X1300956Y200025D02*
G54D10*
D03*
X1291828Y221853D02*
G54D10*
D03*
X1307306Y257175D02*
G54D10*
D03*
X1348184Y238125D02*
G54D10*
D03*
X1360884Y234156D02*
G54D10*
D03*
X1351756Y257175D02*
G54D10*
D03*
X1380728Y244872D02*
G54D10*
D03*
X1392634Y288925D02*
G54D10*
D03*
X1424384Y307975D02*
G54D10*
D03*
X1389062Y301625D02*
G54D10*
D03*
X1369616Y306388D02*
G54D10*
D03*
X1320006Y330597D02*
G54D10*
D03*
X1308100Y301625D02*
G54D10*
D03*
X1298178Y283766D02*
G54D10*
D03*
X1260872Y355203D02*
G54D10*
D03*
X1239441Y319881D02*
G54D10*
D03*
X1235472Y297656D02*
G54D10*
D03*
X1206103Y310356D02*
G54D10*
D03*
X1217612Y257175D02*
G54D10*
D03*
X1216025Y271066D02*
G54D10*
D03*
X1206103Y263128D02*
G54D10*
D03*
X1186259Y265906D02*
G54D10*
D03*
X1169194Y267494D02*
G54D10*
D03*
X1193800Y294878D02*
G54D10*
D03*
X1179909Y304403D02*
G54D10*
D03*
X1181100Y314325D02*
G54D10*
D03*
X1157684Y291306D02*
G54D10*
D03*
X1164431Y305594D02*
G54D10*
D03*
X1157684Y314325D02*
G54D10*
D03*
X1144984Y317103D02*
G54D10*
D03*
X1132284Y318294D02*
G54D10*
D03*
X1189434Y340916D02*
G54D10*
D03*
X1166812Y357584D02*
G54D10*
D03*
X1144984Y348456D02*
G54D10*
D03*
X1094581Y246062D02*
G54D10*
D03*
X1106488Y238125D02*
G54D10*
D03*
X1119188Y241300D02*
G54D10*
D03*
X1118791Y230981D02*
G54D10*
D03*
X1119188Y217884D02*
G54D10*
D03*
X1108472Y209153D02*
G54D10*
D03*
X1097756Y214312D02*
G54D10*
D03*
X1160859Y226616D02*
G54D10*
D03*
X1143794Y248841D02*
G54D10*
D03*
X1182291Y230981D02*
G54D10*
D03*
X1198959Y234553D02*
G54D10*
D03*
X1238647Y215106D02*
G54D10*
D03*
X1229916Y187325D02*
G54D10*
D03*
X1217612Y174625D02*
G54D10*
D03*
X1231900Y157163D02*
G54D10*
D03*
X1224359Y135334D02*
G54D10*
D03*
X1215628Y128984D02*
G54D10*
D03*
X1213247Y115887D02*
G54D10*
D03*
X1201738Y112316D02*
G54D10*
D03*
X1191419Y103584D02*
G54D10*
D03*
X1161653Y168275D02*
G54D10*
D03*
X1173559Y145256D02*
G54D10*
D03*
X1158478Y137716D02*
G54D10*
D03*
X1153319Y127794D02*
G54D10*
D03*
X1160859Y121444D02*
G54D10*
D03*
X1144588Y121444D02*
G54D10*
D03*
X1130697Y122634D02*
G54D10*
D03*
X1120775Y133747D02*
G54D10*
D03*
X1262459Y75406D02*
G54D10*
D03*
X1200547Y56753D02*
G54D10*
D03*
X1529159Y491331D02*
G54D10*
D03*
X1522016Y390128D02*
G54D10*
D03*
X1534319Y390128D02*
G54D10*
D03*
X1558528Y406797D02*
G54D10*
D03*
X1538288Y410766D02*
G54D10*
D03*
X1497806Y409178D02*
G54D10*
D03*
X1466056Y409178D02*
G54D10*
D03*
X1485106Y449262D02*
G54D10*
D03*
X1460103Y440928D02*
G54D10*
D03*
X1473597Y479028D02*
G54D10*
D03*
X1444228Y478631D02*
G54D10*
D03*
X1414859Y471091D02*
G54D10*
D03*
X1422003Y409178D02*
G54D10*
D03*
X1403747Y423466D02*
G54D10*
D03*
X1393428Y415925D02*
G54D10*
D03*
X1389459Y396875D02*
G54D10*
D03*
X1368028Y489347D02*
G54D10*
D03*
X1381919Y527447D02*
G54D10*
D03*
X1421209Y537766D02*
G54D10*
D03*
X1452562Y552847D02*
G54D10*
D03*
X1445022Y569119D02*
G54D10*
D03*
X1444625Y593725D02*
G54D10*
D03*
X1465262Y593725D02*
G54D10*
D03*
X1481138Y599281D02*
G54D10*
D03*
X1400572Y552450D02*
G54D10*
D03*
X1373584Y555228D02*
G54D10*
D03*
X1377950Y580628D02*
G54D10*
D03*
X1377950Y593725D02*
G54D10*
D03*
X1377553Y615950D02*
G54D10*
D03*
X1364456Y606028D02*
G54D10*
D03*
X1368425Y635000D02*
G54D10*
D03*
X1368425Y663178D02*
G54D10*
D03*
X1378347Y696119D02*
G54D10*
D03*
X1368028Y723900D02*
G54D10*
D03*
X1356916Y738981D02*
G54D10*
D03*
X1440259Y646112D02*
G54D10*
D03*
X1498203Y655241D02*
G54D10*
D03*
X1470422Y698500D02*
G54D10*
D03*
X1442244Y704850D02*
G54D10*
D03*
X1482725Y724297D02*
G54D10*
D03*
X1478756Y748109D02*
G54D10*
D03*
X1656953Y580628D02*
G54D10*
D03*
X1424781Y764778D02*
G54D10*
D03*
X1382316Y771128D02*
G54D10*
D03*
X1387475Y792956D02*
G54D10*
D03*
X1407319Y816769D02*
G54D10*
D03*
X1318419Y786606D02*
G54D10*
D03*
X1287462Y559197D02*
G54D10*
D03*
X1287066Y582612D02*
G54D10*
D03*
X1261666Y590550D02*
G54D10*
D03*
X1237456Y585788D02*
G54D10*
D03*
X1210469Y573484D02*
G54D10*
D03*
X1260872Y517128D02*
G54D10*
D03*
X1322784Y513556D02*
G54D10*
D03*
X1223169Y493316D02*
G54D10*
D03*
X1210866Y493712D02*
G54D10*
D03*
X1204516Y504428D02*
G54D10*
D03*
X1191816Y504428D02*
G54D10*
D03*
X1168400Y504031D02*
G54D10*
D03*
X1146969Y490934D02*
G54D10*
D03*
X1125538Y517128D02*
G54D10*
D03*
X1125538Y530225D02*
G54D10*
D03*
X1181100Y554038D02*
G54D10*
D03*
X1123950Y568325D02*
G54D10*
D03*
X1124347Y581025D02*
G54D10*
D03*
X1208088Y585788D02*
G54D10*
D03*
X1198959Y608806D02*
G54D10*
D03*
X1188641Y654050D02*
G54D10*
D03*
X1178719Y645319D02*
G54D10*
D03*
X1119981Y631428D02*
G54D10*
D03*
X1172369Y697309D02*
G54D10*
D03*
X1313259Y584597D02*
G54D10*
D03*
X1312466Y612378D02*
G54D10*
D03*
X1312466Y637381D02*
G54D10*
D03*
X1312069Y663178D02*
G54D10*
D03*
X1312069Y688578D02*
G54D10*
D03*
X1197769Y733028D02*
G54D10*
D03*
X1184672Y736600D02*
G54D10*
D03*
X1160066Y747316D02*
G54D10*
D03*
X1134666Y743347D02*
G54D10*
D03*
X1147762Y770334D02*
G54D10*
D03*
X1081881Y694928D02*
G54D10*
D03*
X1067991Y702469D02*
G54D10*
D03*
X1054894Y702469D02*
G54D10*
D03*
X1004491Y597694D02*
G54D10*
D03*
X993378Y597297D02*
G54D10*
D03*
X1137444Y393303D02*
G54D10*
D03*
X1128712Y400844D02*
G54D10*
D03*
X1105694Y377825D02*
G54D10*
D03*
X1105694Y408384D02*
G54D10*
D03*
X1099741Y427434D02*
G54D10*
D03*
X1089819Y427038D02*
G54D10*
D03*
X1185466Y429022D02*
G54D10*
D03*
X1160066Y429022D02*
G54D10*
D03*
X1231106Y441325D02*
G54D10*
D03*
X1245394Y443706D02*
G54D10*
D03*
X1260475Y446484D02*
G54D10*
D03*
X1274762Y450056D02*
G54D10*
D03*
X1453356Y-231378D02*
G54D10*
D03*
X1278334Y-227012D02*
G54D10*
D03*
X1294209Y-231378D02*
G54D10*
D03*
X1295003Y-282178D02*
G54D10*
D03*
X1290241Y-262533D02*
G54D10*
D03*
X1255712Y-289719D02*
G54D10*
D03*
X1256903Y-269081D02*
G54D10*
D03*
X1256903Y-256778D02*
G54D10*
D03*
X1218803Y-223838D02*
G54D10*
D03*
X1185466Y-221059D02*
G54D10*
D03*
X1170384Y-259160D02*
G54D10*
D03*
X1173956Y-281781D02*
G54D10*
D03*
X1144191Y-285750D02*
G54D10*
D03*
X1144191Y-254000D02*
G54D10*
D03*
X1140619Y-237728D02*
G54D10*
D03*
X1090612Y-226219D02*
G54D10*
D03*
X1093391Y-242888D02*
G54D10*
D03*
X1099741Y-256381D02*
G54D10*
D03*
X1099741Y-269478D02*
G54D10*
D03*
X1099741Y-282178D02*
G54D10*
D03*
X1244203Y-434181D02*
G54D10*
D03*
X1295003Y-383381D02*
G54D10*
D03*
X1295003Y-370681D02*
G54D10*
D03*
X1295003Y-357981D02*
G54D10*
D03*
X1295003Y-345083D02*
G54D10*
D03*
X1295003Y-332383D02*
G54D10*
D03*
X1256506Y-332581D02*
G54D10*
D03*
X1256506Y-345281D02*
G54D10*
D03*
X1256506Y-357584D02*
G54D10*
D03*
X1256506Y-370681D02*
G54D10*
D03*
X1256506Y-382984D02*
G54D10*
D03*
X1174750Y-332184D02*
G54D10*
D03*
X1174750Y-344488D02*
G54D10*
D03*
X1174750Y-357584D02*
G54D10*
D03*
X1175147Y-370681D02*
G54D10*
D03*
X1175544Y-382984D02*
G54D10*
D03*
X1179512Y-402431D02*
G54D10*
D03*
X1136650Y-383381D02*
G54D10*
D03*
X1136650Y-370681D02*
G54D10*
D03*
X1136650Y-357584D02*
G54D10*
D03*
X1136650Y-345281D02*
G54D10*
D03*
X1136650Y-332581D02*
G54D10*
D03*
X995362Y-620712D02*
G54D10*
D03*
X1055291Y-620316D02*
G54D10*
D03*
X997347Y-642540D02*
G54D10*
D03*
X1029494Y-642144D02*
G54D10*
D03*
X1587103Y352028D02*
G54D10*
D03*
X1432520Y443508D02*
G54D10*
D03*
X1103312Y473075D02*
G54D10*
D03*
X1265238Y376634D02*
G54D10*
D03*
X1085850Y469503D02*
G54D10*
D03*
X1085056Y480616D02*
G54D10*
D03*
X1085850Y490934D02*
G54D10*
D03*
X956072Y597297D02*
G54D10*
D03*
X967184Y597297D02*
G54D10*
D03*
X967581Y587772D02*
G54D10*
D03*
X968375Y577056D02*
G54D10*
D03*
X925116Y635000D02*
G54D10*
D03*
X911225Y641350D02*
G54D10*
D03*
X943769Y493713D02*
G54D10*
D03*
X947738Y421084D02*
G54D10*
D03*
X912416Y460375D02*
G54D10*
D03*
X905669Y447675D02*
G54D10*
D03*
X892969Y446484D02*
G54D10*
D03*
X1365250Y-143272D02*
G54D10*
D03*
X1371203Y-82947D02*
G54D10*
D03*
X1670844Y-218678D02*
G54D10*
D03*
G36*
X1100439Y286366D02*
X1100439Y303566D01*
X1117639Y303566D01*
X1117639Y286366D01*
X1100439Y286366D01*
G37*
X1109040Y345766D02*
G54D23*
D03*
X880269Y-667147D02*
G54D10*
D03*
X898128Y-665956D02*
G54D10*
D03*
X923528Y-654050D02*
G54D10*
D03*
X944562Y-606028D02*
G54D10*
D03*
X918766Y-610394D02*
G54D10*
D03*
X892969Y-624681D02*
G54D10*
D03*
X837009Y-653653D02*
G54D10*
D03*
X812800Y-642144D02*
G54D10*
D03*
X821928Y-636191D02*
G54D10*
D03*
X868759Y-604044D02*
G54D10*
D03*
X865981Y-554831D02*
G54D10*
D03*
X852884Y-540544D02*
G54D10*
D03*
X852884Y-530225D02*
G54D10*
D03*
X830659Y-586581D02*
G54D10*
D03*
X829072Y-567134D02*
G54D10*
D03*
X808831Y-550466D02*
G54D10*
D03*
X840581Y-483394D02*
G54D10*
D03*
X860822Y-459581D02*
G54D10*
D03*
X856853Y-449262D02*
G54D10*
D03*
X902891Y-441722D02*
G54D10*
D03*
X915591Y-441722D02*
G54D10*
D03*
X902891Y-426640D02*
G54D10*
D03*
X892572Y-407194D02*
G54D10*
D03*
X909638Y-407590D02*
G54D10*
D03*
X937022Y-407590D02*
G54D10*
D03*
X950516Y-407590D02*
G54D10*
D03*
X972344Y-374253D02*
G54D10*
D03*
X887412Y-374253D02*
G54D10*
D03*
X866775Y-379016D02*
G54D10*
D03*
X972344Y-322262D02*
G54D10*
D03*
X956072Y-306784D02*
G54D10*
D03*
X942181Y-312340D02*
G54D10*
D03*
X922337Y-327025D02*
G54D10*
D03*
X971153Y-297260D02*
G54D10*
D03*
X971153Y-284560D02*
G54D10*
D03*
X958850Y-283369D02*
G54D10*
D03*
X971153Y-271860D02*
G54D10*
D03*
X971153Y-259160D02*
G54D10*
D03*
X959644Y-233760D02*
G54D10*
D03*
X946944Y-234950D02*
G54D10*
D03*
X927497Y-241300D02*
G54D10*
D03*
X916384Y-241300D02*
G54D10*
D03*
X944166Y-272653D02*
G54D10*
D03*
X897334Y-269081D02*
G54D10*
D03*
X896144Y-315516D02*
G54D10*
D03*
X862012Y-322660D02*
G54D10*
D03*
X861616Y-309562D02*
G54D10*
D03*
X867966Y-197644D02*
G54D10*
D03*
X858044Y-192881D02*
G54D10*
D03*
X855266Y-217884D02*
G54D10*
D03*
X833834Y-237331D02*
G54D10*
D03*
X833834Y-248840D02*
G54D10*
D03*
X828675Y-267890D02*
G54D10*
D03*
X823912Y-434181D02*
G54D10*
D03*
X812006Y-467122D02*
G54D10*
D03*
X759222Y-503634D02*
G54D10*
D03*
X771922Y-489347D02*
G54D10*
D03*
X772319Y-554434D02*
G54D10*
D03*
X759222Y-567531D02*
G54D10*
D03*
X759222Y-579834D02*
G54D10*
D03*
X745331Y-592534D02*
G54D10*
D03*
X745331Y-618331D02*
G54D10*
D03*
X612378Y-647303D02*
G54D10*
D03*
X1263253Y777875D02*
G54D54*
D03*
X1177330Y754856D02*
G54D54*
D03*
X704056Y-639762D02*
G54D54*
D03*
X1042591Y720130D02*
G54D54*
D03*
X889794Y572294D02*
G54D10*
D03*
X868362Y568325D02*
G54D10*
D03*
X796925Y553244D02*
G54D10*
D03*
X777875Y556022D02*
G54D10*
D03*
X841375Y635397D02*
G54D10*
D03*
X816769Y648494D02*
G54D10*
D03*
X795338Y641747D02*
G54D10*
D03*
X777478Y633016D02*
G54D10*
D03*
X956469Y707628D02*
G54D10*
D03*
X931069Y709216D02*
G54D10*
D03*
X946547Y744538D02*
G54D10*
D03*
X969962Y765572D02*
G54D10*
D03*
X1028303Y671909D02*
G54D10*
D03*
X1082675Y769938D02*
G54D10*
D03*
X943769Y768747D02*
G54D10*
D03*
X905272Y779066D02*
G54D10*
D03*
X854869Y379412D02*
G54D10*
D03*
X863600Y385366D02*
G54D10*
D03*
X772319Y379412D02*
G54D10*
D03*
X796528Y379016D02*
G54D10*
D03*
X842566Y346075D02*
G54D10*
D03*
X880666Y332978D02*
G54D10*
D03*
X903684Y346075D02*
G54D10*
D03*
X904478Y257572D02*
G54D10*
D03*
X933053Y194072D02*
G54D10*
D03*
X949325Y192881D02*
G54D10*
D03*
X754856Y273447D02*
G54D10*
D03*
X746919Y282972D02*
G54D10*
D03*
X821531Y273844D02*
G54D10*
D03*
X839391Y291703D02*
G54D10*
D03*
X865188Y313134D02*
G54D10*
D03*
X873919Y253603D02*
G54D10*
D03*
X861616Y253603D02*
G54D10*
D03*
X791766Y273844D02*
G54D10*
D03*
X663972Y336947D02*
G54D10*
D03*
X653653Y313928D02*
G54D10*
D03*
X620316Y300434D02*
G54D10*
D03*
X598488Y323453D02*
G54D10*
D03*
X892572Y168672D02*
G54D10*
D03*
X908050Y148431D02*
G54D10*
D03*
X892572Y148431D02*
G54D10*
D03*
X879872Y148034D02*
G54D10*
D03*
X866378Y148034D02*
G54D10*
D03*
X953691Y117872D02*
G54D10*
D03*
X949722Y155972D02*
G54D10*
D03*
X964406Y55562D02*
G54D10*
D03*
X962819Y27781D02*
G54D10*
D03*
X935038Y38100D02*
G54D10*
D03*
X949325Y-5160D02*
G54D10*
D03*
X949325Y-51990D02*
G54D10*
D03*
X974725Y-52388D02*
G54D10*
D03*
X985838Y-43260D02*
G54D10*
D03*
X978694Y-94060D02*
G54D10*
D03*
X991394Y-108347D02*
G54D10*
D03*
X921147Y-98028D02*
G54D10*
D03*
X929084Y-91678D02*
G54D10*
D03*
X935434Y-105966D02*
G54D10*
D03*
X914003Y-74216D02*
G54D10*
D03*
X908447Y-57944D02*
G54D10*
D03*
X932656Y-119856D02*
G54D10*
D03*
X925116Y-138112D02*
G54D10*
D03*
X907256Y-146050D02*
G54D10*
D03*
X896144Y-144462D02*
G54D10*
D03*
X885428Y-120650D02*
G54D10*
D03*
X857647Y-128984D02*
G54D10*
D03*
X854869Y-106760D02*
G54D10*
D03*
X833041Y-148828D02*
G54D10*
D03*
X828874Y-114300D02*
G54D10*
D03*
X810816Y-100806D02*
G54D10*
D03*
X804466Y-148431D02*
G54D10*
D03*
X781447Y-123031D02*
G54D10*
D03*
X764381Y-129381D02*
G54D10*
D03*
X752475Y-144860D02*
G54D10*
D03*
X733425Y-128190D02*
G54D10*
D03*
X781050Y-104378D02*
G54D10*
D03*
X789384Y-98028D02*
G54D10*
D03*
X770731Y-84138D02*
G54D10*
D03*
X824309Y-69850D02*
G54D10*
D03*
X724297Y-77788D02*
G54D10*
D03*
X694928Y-74216D02*
G54D10*
D03*
X704056Y-111919D02*
G54D10*
D03*
X710803Y-134540D02*
G54D10*
D03*
X667941Y-109140D02*
G54D10*
D03*
X685006Y-139700D02*
G54D10*
D03*
X657225Y-148431D02*
G54D10*
D03*
X644525Y-148431D02*
G54D10*
D03*
X652066Y-95250D02*
G54D10*
D03*
X608806Y-80169D02*
G54D10*
D03*
X619522Y-150019D02*
G54D10*
D03*
X600472Y-146844D02*
G54D10*
D03*
X607616Y-124222D02*
G54D10*
D03*
X593924Y-116880D02*
G54D10*
D03*
X581422Y-105966D02*
G54D10*
D03*
X554038Y-133350D02*
G54D10*
D03*
X579438Y-167481D02*
G54D10*
D03*
X556617Y-171648D02*
G54D10*
D03*
X538956Y-177403D02*
G54D10*
D03*
X540544Y-129381D02*
G54D10*
D03*
X505619Y-134144D02*
G54D10*
D03*
X874712Y-12700D02*
G54D10*
D03*
X910034Y30560D02*
G54D10*
D03*
X881459Y42862D02*
G54D10*
D03*
X908844Y71040D02*
G54D10*
D03*
X936625Y74612D02*
G54D10*
D03*
X842566Y62310D02*
G54D10*
D03*
X842764Y7144D02*
G54D10*
D03*
X829866Y11112D02*
G54D10*
D03*
X806450Y-9128D02*
G54D10*
D03*
X810419Y18653D02*
G54D10*
D03*
X792956Y26590D02*
G54D10*
D03*
X780256Y26590D02*
G54D10*
D03*
X766961Y-3969D02*
G54D10*
D03*
X786209Y39290D02*
G54D10*
D03*
X817562Y47228D02*
G54D10*
D03*
X792559Y97631D02*
G54D10*
D03*
X779859Y97631D02*
G54D10*
D03*
X766961Y102394D02*
G54D10*
D03*
X754459Y94853D02*
G54D10*
D03*
X741759Y81756D02*
G54D10*
D03*
X721519Y79375D02*
G54D10*
D03*
X711597Y74216D02*
G54D10*
D03*
X704850Y84534D02*
G54D10*
D03*
X688181Y99219D02*
G54D10*
D03*
X667941Y96044D02*
G54D10*
D03*
X661988Y74216D02*
G54D10*
D03*
X647700Y74216D02*
G54D10*
D03*
X646906Y61912D02*
G54D10*
D03*
X659606Y54372D02*
G54D10*
D03*
X685006Y57944D02*
G54D10*
D03*
X741759Y-9128D02*
G54D10*
D03*
X718741Y2381D02*
G54D10*
D03*
X711200Y8731D02*
G54D10*
D03*
X704850Y-3969D02*
G54D10*
D03*
X735409Y38894D02*
G54D10*
D03*
X698500Y37703D02*
G54D10*
D03*
X672703Y30162D02*
G54D10*
D03*
X666353Y9922D02*
G54D10*
D03*
X650478Y38100D02*
G54D10*
D03*
X741363Y169862D02*
G54D10*
D03*
X748903Y155575D02*
G54D10*
D03*
X728266Y154384D02*
G54D10*
D03*
X715566Y166290D02*
G54D10*
D03*
X707231Y162322D02*
G54D10*
D03*
X696516Y158353D02*
G54D10*
D03*
X692150Y134144D02*
G54D10*
D03*
X682228Y127397D02*
G54D10*
D03*
X679053Y150812D02*
G54D10*
D03*
X665559Y140890D02*
G54D10*
D03*
X651272Y136922D02*
G54D10*
D03*
X704453Y178991D02*
G54D10*
D03*
X622300Y92075D02*
G54D10*
D03*
X614362Y132755D02*
G54D10*
D03*
X581422Y95647D02*
G54D10*
D03*
X575469Y77788D02*
G54D10*
D03*
X588963Y148828D02*
G54D10*
D03*
X596900Y176609D02*
G54D10*
D03*
X644922Y176213D02*
G54D10*
D03*
X661591Y200422D02*
G54D10*
D03*
X648494Y207962D02*
G54D10*
D03*
X656431Y220662D02*
G54D10*
D03*
X652859Y237331D02*
G54D10*
D03*
X680244Y238522D02*
G54D10*
D03*
X645319Y220662D02*
G54D10*
D03*
X631825Y220662D02*
G54D10*
D03*
X591741Y202406D02*
G54D10*
D03*
X601266Y215106D02*
G54D10*
D03*
X596900Y244872D02*
G54D10*
D03*
X620712Y253206D02*
G54D10*
D03*
X594916Y264319D02*
G54D10*
D03*
X586581Y276026D02*
G54D10*
D03*
X860822Y486966D02*
G54D10*
D03*
X853281Y494506D02*
G54D10*
D03*
X838994Y485775D02*
G54D10*
D03*
X809625Y492125D02*
G54D10*
D03*
X762397Y546894D02*
G54D10*
D03*
X749697Y527844D02*
G54D10*
D03*
X678259Y627459D02*
G54D10*
D03*
X656034Y597694D02*
G54D10*
D03*
X632222Y597694D02*
G54D10*
D03*
X619522Y600472D02*
G54D10*
D03*
X612378Y626666D02*
G54D10*
D03*
X598488Y626666D02*
G54D10*
D03*
X587772Y619919D02*
G54D10*
D03*
X575072Y626269D02*
G54D10*
D03*
X726281Y781050D02*
G54D10*
D03*
X657622Y516334D02*
G54D10*
D03*
X645319Y527844D02*
G54D10*
D03*
X625872Y534988D02*
G54D10*
D03*
X549275Y555625D02*
G54D10*
D03*
X545306Y574675D02*
G54D10*
D03*
X549275Y523875D02*
G54D10*
D03*
X546894Y502444D02*
G54D10*
D03*
X562769Y499666D02*
G54D10*
D03*
X593328Y495102D02*
G54D10*
D03*
X573881Y503238D02*
G54D10*
D03*
X591344Y469106D02*
G54D10*
D03*
X581819Y475059D02*
G54D10*
D03*
X570309Y479028D02*
G54D10*
D03*
X559991Y478234D02*
G54D10*
D03*
X551259Y475059D02*
G54D10*
D03*
X530225Y467519D02*
G54D10*
D03*
X553641Y452438D02*
G54D10*
D03*
X518319Y463153D02*
G54D10*
D03*
X503634Y463153D02*
G54D10*
D03*
X463550Y459581D02*
G54D10*
D03*
X474662Y456009D02*
G54D10*
D03*
X485378Y456009D02*
G54D10*
D03*
X531416Y433388D02*
G54D10*
D03*
X521097Y423466D02*
G54D10*
D03*
X492919Y433784D02*
G54D10*
D03*
X480219Y431403D02*
G54D10*
D03*
X465931Y430212D02*
G54D10*
D03*
X438150Y434975D02*
G54D10*
D03*
X430212Y445294D02*
G54D10*
D03*
X449660Y417116D02*
G54D10*
D03*
X403225Y434181D02*
G54D10*
D03*
X552847Y363140D02*
G54D10*
D03*
X506809Y363934D02*
G54D10*
D03*
X479822Y363339D02*
G54D10*
D03*
X484188Y385762D02*
G54D10*
D03*
X468908Y363934D02*
G54D10*
D03*
X449262Y365522D02*
G54D10*
D03*
X435372Y363934D02*
G54D10*
D03*
X418703Y363934D02*
G54D10*
D03*
X404019Y370681D02*
G54D10*
D03*
X393303Y377428D02*
G54D10*
D03*
X388938Y366712D02*
G54D10*
D03*
X372666Y366316D02*
G54D10*
D03*
X358775Y412353D02*
G54D10*
D03*
X371872Y412353D02*
G54D10*
D03*
X381794Y411956D02*
G54D10*
D03*
X332184Y398462D02*
G54D10*
D03*
X346869Y383381D02*
G54D10*
D03*
X338534Y374253D02*
G54D10*
D03*
X265906Y436562D02*
G54D10*
D03*
X242094Y367903D02*
G54D10*
D03*
X282972Y333772D02*
G54D10*
D03*
X281384Y309959D02*
G54D10*
D03*
X280988Y268684D02*
G54D10*
D03*
X267494Y259953D02*
G54D10*
D03*
X281781Y288925D02*
G54D10*
D03*
X267494Y313531D02*
G54D10*
D03*
X248047Y305991D02*
G54D10*
D03*
X236140Y336550D02*
G54D10*
D03*
X219869Y338138D02*
G54D10*
D03*
X201216Y336550D02*
G54D10*
D03*
X201612Y281781D02*
G54D10*
D03*
X219472Y259953D02*
G54D10*
D03*
X236140Y269081D02*
G54D10*
D03*
X214312Y229791D02*
G54D10*
D03*
X223441Y238919D02*
G54D10*
D03*
X241697Y217091D02*
G54D10*
D03*
X283766Y95250D02*
G54D10*
D03*
X296466Y95250D02*
G54D10*
D03*
X282178Y65088D02*
G54D10*
D03*
X282178Y76994D02*
G54D10*
D03*
X301625Y73819D02*
G54D10*
D03*
X314722Y76200D02*
G54D10*
D03*
X325834Y75803D02*
G54D10*
D03*
X830262Y-215106D02*
G54D10*
D03*
X783034Y-315516D02*
G54D10*
D03*
X761603Y-308372D02*
G54D10*
D03*
X751681Y-296069D02*
G54D10*
D03*
X736203Y-296069D02*
G54D10*
D03*
X710803Y-298450D02*
G54D10*
D03*
X685403Y-286940D02*
G54D10*
D03*
X660400Y-285750D02*
G54D10*
D03*
X667544Y-255190D02*
G54D10*
D03*
X609203Y-282178D02*
G54D10*
D03*
X584200Y-281781D02*
G54D10*
D03*
X540147Y-323453D02*
G54D10*
D03*
X542925Y-311944D02*
G54D10*
D03*
X516334Y-332581D02*
G54D10*
D03*
X577453Y-382389D02*
G54D10*
D03*
X476647Y-345281D02*
G54D10*
D03*
X459978Y-332184D02*
G54D10*
D03*
X452438Y-315912D02*
G54D10*
D03*
X438547Y-348853D02*
G54D10*
D03*
X479425Y-275431D02*
G54D10*
D03*
X433388Y-275828D02*
G54D10*
D03*
X409178Y-314325D02*
G54D10*
D03*
X364331Y-269081D02*
G54D10*
D03*
X434181Y-218281D02*
G54D10*
D03*
X496094Y-219472D02*
G54D10*
D03*
X509588Y-214312D02*
G54D10*
D03*
X459581Y-165100D02*
G54D10*
D03*
X475060Y-165497D02*
G54D10*
D03*
X423069Y-133350D02*
G54D10*
D03*
X438150Y-133350D02*
G54D10*
D03*
X455612Y-134541D02*
G54D10*
D03*
X441325Y-119062D02*
G54D10*
D03*
X454819Y-115094D02*
G54D10*
D03*
X427831Y-106760D02*
G54D10*
D03*
X471488Y-121840D02*
G54D10*
D03*
X481410Y-121840D02*
G54D10*
D03*
X494903Y-115490D02*
G54D10*
D03*
X502840Y-86519D02*
G54D10*
D03*
X527447Y-81756D02*
G54D10*
D03*
X552847Y-80566D02*
G54D10*
D03*
X477440Y-53578D02*
G54D10*
D03*
X454819Y-82947D02*
G54D10*
D03*
X436562Y-79375D02*
G54D10*
D03*
X444897Y-74612D02*
G54D10*
D03*
X415330Y-92869D02*
G54D10*
D03*
X346472Y-161131D02*
G54D10*
D03*
X379412Y-142081D02*
G54D10*
D03*
X365919Y-124222D02*
G54D10*
D03*
X352425Y-123825D02*
G54D10*
D03*
X379412Y-99219D02*
G54D10*
D03*
X320675Y-97631D02*
G54D10*
D03*
X334566Y-95250D02*
G54D10*
D03*
X303212Y-161131D02*
G54D10*
D03*
X295672Y-154781D02*
G54D10*
D03*
X289322Y-139303D02*
G54D10*
D03*
X291703Y-128588D02*
G54D10*
D03*
X282972Y-123825D02*
G54D10*
D03*
X280988Y-114697D02*
G54D10*
D03*
X232172Y-127000D02*
G54D10*
D03*
X243284Y-126206D02*
G54D10*
D03*
X238125Y-140494D02*
G54D10*
D03*
X230584Y-148034D02*
G54D10*
D03*
X191294Y-159940D02*
G54D10*
D03*
X198834Y-167084D02*
G54D10*
D03*
X194866Y-188912D02*
G54D10*
D03*
X194866Y-214312D02*
G54D10*
D03*
X209947Y-209550D02*
G54D10*
D03*
X230981Y-199231D02*
G54D10*
D03*
X223044Y-173831D02*
G54D10*
D03*
X238125Y-230188D02*
G54D10*
D03*
X231775Y-238125D02*
G54D10*
D03*
X223838Y-257175D02*
G54D10*
D03*
X224234Y-272653D02*
G54D10*
D03*
X238125Y-302816D02*
G54D10*
D03*
X238125Y-290512D02*
G54D10*
D03*
X225425Y-296466D02*
G54D10*
D03*
X617538Y-25400D02*
G54D10*
D03*
X574675Y-23812D02*
G54D10*
D03*
X570309Y19447D02*
G54D10*
D03*
X569119Y37703D02*
G54D10*
D03*
X606028Y30162D02*
G54D10*
D03*
X596503Y38100D02*
G54D10*
D03*
X558800Y34925D02*
G54D10*
D03*
X552450Y28575D02*
G54D10*
D03*
X539353Y-28972D02*
G54D10*
D03*
X540147Y-11906D02*
G54D10*
D03*
X526653Y-24408D02*
G54D10*
D03*
X527050Y8334D02*
G54D10*
D03*
X501650Y22622D02*
G54D10*
D03*
X481410Y16669D02*
G54D10*
D03*
X489545Y-20836D02*
G54D10*
D03*
X481410Y-26194D02*
G54D10*
D03*
X500062Y-28178D02*
G54D10*
D03*
X523081Y48419D02*
G54D10*
D03*
X529828Y57150D02*
G54D10*
D03*
X513159Y59531D02*
G54D10*
D03*
X499864Y47625D02*
G54D10*
D03*
X488156Y61912D02*
G54D10*
D03*
X478234Y61912D02*
G54D10*
D03*
X467122Y61912D02*
G54D10*
D03*
X382588Y5556D02*
G54D10*
D03*
X411956Y9525D02*
G54D10*
D03*
X427038Y8334D02*
G54D10*
D03*
X435372Y16669D02*
G54D10*
D03*
X394494Y25797D02*
G54D10*
D03*
X388938Y62706D02*
G54D10*
D03*
X398860Y62310D02*
G54D10*
D03*
X409178Y62310D02*
G54D10*
D03*
X419497Y62310D02*
G54D10*
D03*
X430213Y54769D02*
G54D10*
D03*
X420290Y49610D02*
G54D10*
D03*
X402034Y49212D02*
G54D10*
D03*
X392510Y38497D02*
G54D10*
D03*
X409972Y39290D02*
G54D10*
D03*
X315912Y33338D02*
G54D10*
D03*
X327819Y33338D02*
G54D10*
D03*
X337740Y33338D02*
G54D10*
D03*
X347266Y34528D02*
G54D10*
D03*
X360760Y34528D02*
G54D10*
D03*
X371475Y34925D02*
G54D10*
D03*
X370284Y51197D02*
G54D10*
D03*
X721519Y-481012D02*
G54D10*
D03*
X747712Y-475060D02*
G54D10*
D03*
X763191Y-449262D02*
G54D10*
D03*
X679450Y-462360D02*
G54D10*
D03*
X696912Y-469900D02*
G54D10*
D03*
X633809Y-440531D02*
G54D10*
D03*
X570309Y-417116D02*
G54D10*
D03*
X587772Y-459581D02*
G54D10*
D03*
X606822Y-541734D02*
G54D10*
D03*
X649287Y-503634D02*
G54D10*
D03*
X659606Y-567531D02*
G54D10*
D03*
X675878Y-554831D02*
G54D10*
D03*
X674291Y-598884D02*
G54D10*
D03*
X678656Y-618331D02*
G54D10*
D03*
X705247Y-618331D02*
G54D10*
D03*
X690562Y-579834D02*
G54D10*
D03*
X706438Y-567134D02*
G54D10*
D03*
X706041Y-541734D02*
G54D10*
D03*
X706438Y-506016D02*
G54D10*
D03*
X697706Y-516334D02*
G54D10*
D03*
X533400Y-567531D02*
G54D10*
D03*
X552847Y-542131D02*
G54D10*
D03*
X550466Y-515938D02*
G54D10*
D03*
X508000Y-611584D02*
G54D10*
D03*
X497681Y-605234D02*
G54D10*
D03*
X466725Y-564753D02*
G54D10*
D03*
X475853Y-538162D02*
G54D10*
D03*
X475456Y-470297D02*
G54D10*
D03*
X467122Y-506412D02*
G54D10*
D03*
X421084Y-508397D02*
G54D10*
D03*
X385366Y-535384D02*
G54D10*
D03*
X381397Y-617934D02*
G54D10*
D03*
X375047Y-605234D02*
G54D10*
D03*
X368697Y-592534D02*
G54D10*
D03*
X357188Y-592534D02*
G54D10*
D03*
X357188Y-579834D02*
G54D10*
D03*
X343694Y-567531D02*
G54D10*
D03*
X329406Y-579834D02*
G54D10*
D03*
X313928Y-567531D02*
G54D10*
D03*
X329010Y-554434D02*
G54D10*
D03*
X367506Y-548084D02*
G54D10*
D03*
X371475Y-529034D02*
G54D10*
D03*
X350838Y-542131D02*
G54D10*
D03*
X347662Y-510381D02*
G54D10*
D03*
X321469Y-515938D02*
G54D10*
D03*
X467122Y-432990D02*
G54D10*
D03*
X277812Y-503237D02*
G54D10*
D03*
X259556Y-509984D02*
G54D10*
D03*
X195659Y-631825D02*
G54D10*
D03*
X213916Y-649287D02*
G54D10*
D03*
X252412Y-632222D02*
G54D10*
D03*
X284163Y-668734D02*
G54D10*
D03*
X304403Y-733425D02*
G54D10*
D03*
X343694Y-668337D02*
G54D10*
D03*
X286544Y-51990D02*
G54D10*
D03*
X311944Y-26590D02*
G54D10*
D03*
X603250Y-605631D02*
G54D10*
D03*
X288131Y-378619D02*
G54D10*
D03*
X600472Y791369D02*
G54D10*
D03*
X631031Y791766D02*
G54D10*
D03*
X645319Y764778D02*
G54D10*
D03*
X561578Y752078D02*
G54D10*
D03*
X577850Y425450D02*
G54D10*
D03*
X441325Y507206D02*
G54D10*
D03*
X455216Y508794D02*
G54D10*
D03*
X470694Y512762D02*
G54D10*
D03*
X466328Y522684D02*
G54D10*
D03*
X440928Y569912D02*
G54D10*
D03*
X453628Y565944D02*
G54D10*
D03*
X466725Y565547D02*
G54D10*
D03*
X401240Y538162D02*
G54D10*
D03*
X387747Y552053D02*
G54D10*
D03*
X388938Y569912D02*
G54D10*
D03*
X415131Y569912D02*
G54D10*
D03*
X390128Y587772D02*
G54D10*
D03*
X415925Y611584D02*
G54D10*
D03*
X390128Y611981D02*
G54D10*
D03*
X441325Y613172D02*
G54D10*
D03*
X467519Y605234D02*
G54D10*
D03*
X333375Y593725D02*
G54D10*
D03*
X323850Y607219D02*
G54D10*
D03*
X271462Y581422D02*
G54D10*
D03*
X283369Y572294D02*
G54D10*
D03*
X296069Y572294D02*
G54D10*
D03*
X294481Y636587D02*
G54D10*
D03*
X314722Y636587D02*
G54D10*
D03*
X242094Y615950D02*
G54D10*
D03*
X222250Y619522D02*
G54D10*
D03*
X199231Y619522D02*
G54D10*
D03*
X203994Y682625D02*
G54D10*
D03*
X211931Y701675D02*
G54D10*
D03*
X251222Y669925D02*
G54D10*
D03*
X251222Y683022D02*
G54D10*
D03*
X251222Y695325D02*
G54D10*
D03*
X251222Y714772D02*
G54D10*
D03*
X266303Y722312D02*
G54D10*
D03*
X252412Y733822D02*
G54D10*
D03*
X252412Y746522D02*
G54D10*
D03*
X261144Y760016D02*
G54D10*
D03*
X239713Y760809D02*
G54D10*
D03*
X248444Y785812D02*
G54D10*
D03*
X240506Y797322D02*
G54D10*
D03*
X250031Y806847D02*
G54D10*
D03*
X251222Y822325D02*
G54D10*
D03*
X232569Y806847D02*
G54D10*
D03*
X161131Y803275D02*
G54D10*
D03*
X135731Y794941D02*
G54D10*
D03*
X109538Y767953D02*
G54D10*
D03*
X124222Y757634D02*
G54D10*
D03*
X159544Y840978D02*
G54D10*
D03*
X281384Y805656D02*
G54D10*
D03*
X313531Y790575D02*
G54D10*
D03*
X369094Y790575D02*
G54D10*
D03*
X349647Y804069D02*
G54D10*
D03*
X333772Y846931D02*
G54D10*
D03*
X407988Y857647D02*
G54D10*
D03*
X441325Y866378D02*
G54D10*
D03*
X441325Y828278D02*
G54D10*
D03*
X414338Y821928D02*
G54D10*
D03*
X414338Y803672D02*
G54D10*
D03*
X414338Y777875D02*
G54D10*
D03*
X413544Y745728D02*
G54D10*
D03*
X466328Y762397D02*
G54D10*
D03*
X484981Y718344D02*
G54D10*
D03*
X498475Y787797D02*
G54D10*
D03*
X396081Y649287D02*
G54D10*
D03*
X415131Y667147D02*
G54D10*
D03*
X356790Y671909D02*
G54D10*
D03*
X406400Y698897D02*
G54D10*
D03*
X396081Y720725D02*
G54D10*
D03*
X464741Y701278D02*
G54D10*
D03*
X464344Y688975D02*
G54D10*
D03*
X468710Y663575D02*
G54D10*
D03*
X506809Y650478D02*
G54D10*
D03*
X554434Y615553D02*
G54D10*
D03*
X293687Y715169D02*
G54D10*
D03*
X317500Y711597D02*
G54D10*
D03*
X140890Y724694D02*
G54D10*
D03*
X136128Y670322D02*
G54D10*
D03*
X125809Y642144D02*
G54D10*
D03*
X95647Y655241D02*
G54D10*
D03*
X95647Y629444D02*
G54D10*
D03*
X113110Y521891D02*
G54D10*
D03*
X114697Y548481D02*
G54D10*
D03*
X163116Y526653D02*
G54D10*
D03*
X167084Y500062D02*
G54D10*
D03*
X181769Y534194D02*
G54D10*
D03*
X195262Y534591D02*
G54D10*
D03*
X180578Y548481D02*
G54D10*
D03*
X183356Y575072D02*
G54D10*
D03*
X211534Y548481D02*
G54D10*
D03*
X225425Y564753D02*
G54D10*
D03*
X215106Y525462D02*
G54D10*
D03*
X124222Y609600D02*
G54D10*
D03*
X147638Y576659D02*
G54D10*
D03*
X327025Y542925D02*
G54D10*
D03*
X296069Y524272D02*
G54D10*
D03*
X283766Y524272D02*
G54D10*
D03*
X271462Y524272D02*
G54D10*
D03*
X620316Y406003D02*
G54D10*
D03*
X588962Y-747316D02*
G54D10*
D03*
X811212Y-738584D02*
G54D10*
D03*
X860822Y-726678D02*
G54D10*
D03*
X1960959Y-482600D02*
G54D10*
D03*
X114300Y-295275D02*
G54D10*
D03*
X108744Y-327819D02*
G54D10*
D03*
X117078Y-342106D02*
G54D10*
D03*
X227806Y-343694D02*
G54D10*
D03*
X117475Y44847D02*
G54D10*
D03*
X192484Y473075D02*
G54D10*
D03*
X108347Y-568722D02*
G54D10*
D03*
X426640Y-527844D02*
G54D54*
D03*
X426640Y-640953D02*
G54D54*
D03*
X282972Y238919D02*
G54D10*
D03*
X1414859Y621903D02*
G54D10*
D03*
X103386Y-318889D02*
G54D10*
D03*
X1597422Y11112D02*
G54D10*
D03*
X1885950Y502047D02*
G54D10*
D03*
X1830784Y-133350D02*
G54D10*
D03*
X984250Y711200D02*
G54D10*
D03*
X783828Y753467D02*
G54D10*
D03*
X550466Y663575D02*
G54D10*
D03*
X918766Y830659D02*
G54D10*
D03*
X878681Y820341D02*
G54D10*
D03*
X995759Y648891D02*
G54D10*
D03*
X1485503Y848916D02*
G54D10*
D03*
X1724819Y-207566D02*
G54D10*
D03*
X1106091Y174625D02*
G54D10*
D03*
X744141Y865981D02*
G54D10*
D03*
X2109391Y-616744D02*
G54D10*
D03*
X1520428Y681434D02*
G54D10*
D03*
G54D55*
X187722Y907256D02*
X187722Y925034D01*
X194388Y913923D01*
X201055Y925034D01*
X201055Y907256D01*
G54D55*
X205944Y916145D02*
X208610Y917256D01*
X211810Y917256D01*
X213944Y915034D01*
X213944Y907256D01*
G54D55*
X213944Y910590D02*
X212610Y912812D01*
X209944Y913256D01*
X207277Y912812D01*
X205944Y910590D01*
X206477Y908367D01*
X208610Y907256D01*
X209944Y907256D01*
X210477Y907256D01*
X212610Y908367D01*
X213944Y910590D01*
G54D55*
X225500Y916590D02*
X222833Y917256D01*
X220166Y916590D01*
X218833Y914367D01*
X218833Y909923D01*
X220166Y907701D01*
X222833Y907256D01*
X225500Y907701D01*
G54D55*
X230389Y907256D02*
X230389Y917256D01*
G54D55*
X230389Y920590D02*
X230389Y920590D01*
G54D55*
X235278Y907256D02*
X235278Y917256D01*
G54D55*
X235278Y915034D02*
X236611Y916590D01*
X239278Y917256D01*
X241944Y916590D01*
X243278Y915034D01*
X243278Y907256D01*
G54D55*
X250834Y925034D02*
X250834Y908367D01*
X252167Y907256D01*
X253500Y907701D01*
G54D55*
X248167Y917256D02*
X253500Y917256D01*
G54D55*
X266389Y909923D02*
X266389Y914367D01*
X265056Y916590D01*
X262389Y917256D01*
X259722Y916590D01*
X258389Y914367D01*
X258389Y909923D01*
X259722Y907701D01*
X262389Y907256D01*
X265056Y907701D01*
X266389Y909923D01*
G54D55*
X271278Y908367D02*
X273944Y907256D01*
X276611Y907256D01*
X279278Y908367D01*
X279278Y910590D01*
X277944Y911701D01*
X272611Y912812D01*
X271278Y913923D01*
X271278Y916145D01*
X273944Y917256D01*
X276611Y917256D01*
X279278Y916145D01*
G54D55*
X284167Y907256D02*
X284167Y925034D01*
G54D55*
X284167Y914367D02*
X285500Y916590D01*
X288167Y917256D01*
X290834Y916590D01*
X292167Y914367D01*
X292167Y907256D01*
G54D55*
X302212Y925034D02*
X302212Y907256D01*
X311545Y907256D01*
G54D55*
X327100Y910590D02*
X325767Y908367D01*
X323100Y907256D01*
X320434Y907256D01*
X317767Y908367D01*
X316434Y910590D01*
X316434Y921701D01*
X317767Y923923D01*
X320434Y925034D01*
X323100Y925034D01*
X325767Y923923D01*
X327100Y921701D01*
G54D55*
X337146Y907256D02*
X337146Y925034D01*
G54D55*
X342035Y907256D02*
X342035Y925034D01*
G54D55*
X346924Y907256D02*
X346924Y925034D01*
G54D55*
X193595Y887967D02*
X190928Y887967D01*
X188262Y889078D01*
X186928Y891300D01*
X186928Y893522D01*
X188262Y895745D01*
X190928Y896856D01*
X193595Y896856D01*
X196262Y895745D01*
X197595Y893522D01*
X197595Y891300D01*
X196262Y889078D01*
X193595Y887967D01*
X196262Y886856D01*
X197595Y884634D01*
X197595Y882412D01*
X196262Y880189D01*
X193595Y879078D01*
X190928Y879078D01*
X188262Y880189D01*
X186928Y882412D01*
X186928Y884634D01*
X188262Y886856D01*
X190928Y887967D01*
G54D55*
X213151Y879078D02*
X202484Y879078D01*
X202484Y880189D01*
X203818Y882412D01*
X211818Y889078D01*
X213151Y891300D01*
X213151Y893522D01*
X211818Y895745D01*
X209151Y896856D01*
X206484Y896856D01*
X203818Y895745D01*
X202484Y893522D01*
G54D55*
X228707Y893522D02*
X228707Y882412D01*
X227374Y880189D01*
X224707Y879078D01*
X222040Y879078D01*
X219374Y880189D01*
X218040Y882412D01*
X218040Y893522D01*
X219374Y895745D01*
X222040Y896856D01*
X224707Y896856D01*
X227374Y895745D01*
X228707Y893522D01*
G54D55*
X233596Y886856D02*
X244263Y886856D01*
G54D55*
X259819Y893522D02*
X259819Y882412D01*
X258486Y880189D01*
X255819Y879078D01*
X253152Y879078D01*
X250486Y880189D01*
X249152Y882412D01*
X249152Y893522D01*
X250486Y895745D01*
X253152Y896856D01*
X255819Y896856D01*
X258486Y895745D01*
X259819Y893522D01*
G54D55*
X275375Y893522D02*
X274042Y895745D01*
X271375Y896856D01*
X268708Y896856D01*
X266042Y895745D01*
X264708Y893522D01*
X264708Y887967D01*
X264708Y886856D01*
X268708Y889078D01*
X271375Y889078D01*
X274042Y887967D01*
X275375Y885745D01*
X275375Y882412D01*
X274042Y880189D01*
X271375Y879078D01*
X268708Y879078D01*
X266042Y880189D01*
X264708Y882412D01*
X264708Y887967D01*
G54D55*
X290931Y896856D02*
X280264Y896856D01*
X280264Y889078D01*
X281598Y889078D01*
X284264Y890189D01*
X286931Y890189D01*
X289598Y889078D01*
X290931Y886856D01*
X290931Y882412D01*
X289598Y880189D01*
X286931Y879078D01*
X284264Y879078D01*
X281598Y880189D01*
X280264Y882412D01*
G54D55*
X306487Y893522D02*
X306487Y882412D01*
X305154Y880189D01*
X302487Y879078D01*
X299820Y879078D01*
X297154Y880189D01*
X295820Y882412D01*
X295820Y893522D01*
X297154Y895745D01*
X299820Y896856D01*
X302487Y896856D01*
X305154Y895745D01*
X306487Y893522D01*
G54D55*
X311376Y886856D02*
X322043Y886856D01*
G54D55*
X326932Y879078D02*
X326932Y896856D01*
X333599Y896856D01*
X336266Y895745D01*
X337599Y893522D01*
X337599Y891300D01*
X336266Y889078D01*
X333599Y887967D01*
X336266Y886856D01*
X337599Y884634D01*
X337599Y882412D01*
X336266Y880189D01*
X333599Y879078D01*
X326932Y879078D01*
G54D55*
X326932Y887967D02*
X333599Y887967D01*
G54D55*
X143669Y854472D02*
X143669Y864472D01*
G54D55*
X143669Y862694D02*
X146336Y864472D01*
X149002Y863805D01*
X150336Y862250D01*
X150336Y854472D01*
G54D55*
X150336Y862694D02*
X153002Y864472D01*
X155669Y863805D01*
X157002Y862250D01*
X157002Y854472D01*
G54D55*
X161891Y863361D02*
X164558Y864472D01*
X167758Y864472D01*
X169891Y862250D01*
X169891Y854472D01*
G54D55*
X169891Y857805D02*
X168558Y860028D01*
X165891Y860472D01*
X163224Y860028D01*
X161891Y857805D01*
X162424Y855583D01*
X164558Y854472D01*
X165891Y854472D01*
X166424Y854472D01*
X168558Y855583D01*
X169891Y857805D01*
G54D55*
X174780Y864472D02*
X185447Y854472D01*
G54D55*
X174780Y854472D02*
X185447Y864472D01*
G54D55*
X190336Y865583D02*
X197003Y872250D01*
X197003Y854472D01*
G54D55*
X201892Y864472D02*
X209892Y864472D01*
X201892Y854472D01*
X209892Y854472D01*
G54D55*
X214781Y864472D02*
X222781Y864472D01*
X214781Y854472D01*
X222781Y854472D01*
G54D55*
X227670Y864472D02*
X235670Y864472D01*
X227670Y854472D01*
X235670Y854472D01*
G54D55*
X245715Y865583D02*
X252382Y872250D01*
X252382Y854472D01*
G54D55*
X257271Y872250D02*
X267938Y872250D01*
X266604Y870027D01*
X263938Y866694D01*
X261271Y862250D01*
X259938Y858916D01*
X259938Y854472D01*
G54D55*
X272827Y862250D02*
X283494Y862250D01*
G54D55*
X299050Y868916D02*
X299050Y857805D01*
X297716Y855583D01*
X295050Y854472D01*
X292383Y854472D01*
X289716Y855583D01*
X288383Y857805D01*
X288383Y868916D01*
X289716Y871138D01*
X292383Y872250D01*
X295050Y872250D01*
X297716Y871138D01*
X299050Y868916D01*
G54D55*
X303939Y868916D02*
X305272Y871138D01*
X307939Y872250D01*
X310606Y872250D01*
X313272Y871138D01*
X314606Y868916D01*
X314606Y866694D01*
X313272Y864472D01*
X310606Y863361D01*
X313272Y862250D01*
X314606Y860028D01*
X314606Y857805D01*
X313272Y855583D01*
X310606Y854472D01*
X307939Y854472D01*
X305272Y855583D01*
X303939Y857805D01*
G54D55*
X319495Y862250D02*
X330162Y862250D01*
G54D55*
X345718Y854472D02*
X335051Y854472D01*
X335051Y855583D01*
X336384Y857805D01*
X344384Y864472D01*
X345718Y866694D01*
X345718Y868916D01*
X344384Y871138D01*
X341718Y872250D01*
X339051Y872250D01*
X336384Y871138D01*
X335051Y868916D01*
G54D55*
X361274Y868916D02*
X361274Y857805D01*
X359940Y855583D01*
X357274Y854472D01*
X354607Y854472D01*
X351940Y855583D01*
X350607Y857805D01*
X350607Y868916D01*
X351940Y871138D01*
X354607Y872250D01*
X357274Y872250D01*
X359940Y871138D01*
X361274Y868916D01*
G54D55*
X376830Y854472D02*
X366163Y854472D01*
X366163Y855583D01*
X367496Y857805D01*
X375496Y864472D01*
X376830Y866694D01*
X376830Y868916D01*
X375496Y871138D01*
X372830Y872250D01*
X370163Y872250D01*
X367496Y871138D01*
X366163Y868916D01*
G54D55*
X392386Y854472D02*
X381719Y854472D01*
X381719Y855583D01*
X383052Y857805D01*
X391052Y864472D01*
X392386Y866694D01*
X392386Y868916D01*
X391052Y871138D01*
X388386Y872250D01*
X385719Y872250D01*
X383052Y871138D01*
X381719Y868916D01*
G54D56*
X2241915Y638188D02*
X2250915Y638188D01*
G54D56*
X2249315Y638188D02*
X2250915Y635788D01*
X2250315Y633388D01*
X2248915Y632188D01*
X2241915Y632188D01*
G54D56*
X2249315Y632188D02*
X2250915Y629788D01*
X2250315Y627388D01*
X2248915Y626188D01*
X2241915Y626188D01*
G54D56*
X2249915Y621788D02*
X2250915Y619388D01*
X2250915Y616508D01*
X2248915Y614588D01*
X2241915Y614588D01*
G54D56*
X2244915Y614588D02*
X2246915Y615788D01*
X2247315Y618188D01*
X2246915Y620588D01*
X2244915Y621788D01*
X2242915Y621308D01*
X2241915Y619388D01*
X2241915Y618188D01*
X2241915Y617708D01*
X2242915Y615788D01*
X2244915Y614588D01*
G54D56*
X2250915Y610188D02*
X2241915Y600588D01*
G54D56*
X2241915Y610188D02*
X2250915Y600588D01*
G54D56*
X2251915Y596188D02*
X2257915Y590188D01*
X2241915Y590188D01*
G54D56*
X2250915Y585788D02*
X2250915Y578588D01*
X2241915Y585788D01*
X2241915Y578588D01*
G54D56*
X2250915Y574188D02*
X2250915Y566988D01*
X2241915Y574188D01*
X2241915Y566988D01*
G54D56*
X2250915Y562588D02*
X2250915Y555388D01*
X2241915Y562588D01*
X2241915Y555388D01*
G54D56*
X2248915Y546348D02*
X2248915Y536748D01*
G54D56*
X2257915Y527708D02*
X2241915Y521708D01*
X2257915Y515708D01*
G54D56*
X2251915Y511308D02*
X2257915Y505308D01*
X2241915Y505308D01*
G54D56*
X2241915Y500908D02*
X2241915Y500908D01*
G54D56*
X2251915Y496508D02*
X2257915Y490508D01*
X2241915Y490508D01*
G54D56*
X2241915Y486108D02*
X2257915Y486108D01*
X2257915Y480108D01*
X2256915Y477708D01*
X2254915Y476508D01*
X2252915Y476508D01*
X2250915Y477708D01*
X2249915Y480108D01*
X2248915Y477708D01*
X2246915Y476508D01*
X2244915Y476508D01*
X2242915Y477708D01*
X2241915Y480108D01*
X2241915Y486108D01*
G54D56*
X2249915Y486108D02*
X2249915Y480108D01*
G54D56*
X2248915Y467468D02*
X2248915Y457868D01*
G54D56*
X2251915Y448828D02*
X2257915Y442828D01*
X2241915Y442828D01*
G54D56*
X2257915Y438428D02*
X2257915Y428828D01*
X2255915Y430028D01*
X2252915Y432428D01*
X2248915Y434828D01*
X2245915Y436028D01*
X2241915Y436028D01*
G54D56*
X2248915Y424428D02*
X2248915Y414828D01*
G54D56*
X2254915Y400828D02*
X2244915Y400828D01*
X2242915Y402028D01*
X2241915Y404428D01*
X2241915Y406828D01*
X2242915Y409228D01*
X2244915Y410428D01*
X2254915Y410428D01*
X2256915Y409228D01*
X2257915Y406828D01*
X2257915Y404428D01*
X2256915Y402028D01*
X2254915Y400828D01*
G54D56*
X2254915Y396428D02*
X2256915Y395228D01*
X2257915Y392828D01*
X2257915Y390428D01*
X2256915Y388028D01*
X2254915Y386828D01*
X2252915Y386828D01*
X2250915Y388028D01*
X2249915Y390428D01*
X2248915Y388028D01*
X2246915Y386828D01*
X2244915Y386828D01*
X2242915Y388028D01*
X2241915Y390428D01*
X2241915Y392828D01*
X2242915Y395228D01*
X2244915Y396428D01*
G54D56*
X2248915Y382428D02*
X2248915Y372828D01*
G54D56*
X2241915Y358828D02*
X2241915Y368428D01*
X2242915Y368428D01*
X2244915Y367228D01*
X2250915Y360028D01*
X2252915Y358828D01*
X2254915Y358828D01*
X2256915Y360028D01*
X2257915Y362428D01*
X2257915Y364828D01*
X2256915Y367228D01*
X2254915Y368428D01*
G54D56*
X2254915Y344828D02*
X2244915Y344828D01*
X2242915Y346028D01*
X2241915Y348428D01*
X2241915Y350828D01*
X2242915Y353228D01*
X2244915Y354428D01*
X2254915Y354428D01*
X2256915Y353228D01*
X2257915Y350828D01*
X2257915Y348428D01*
X2256915Y346028D01*
X2254915Y344828D01*
G54D56*
X2241915Y330828D02*
X2241915Y340428D01*
X2242915Y340428D01*
X2244915Y339228D01*
X2250915Y332028D01*
X2252915Y330828D01*
X2254915Y330828D01*
X2256915Y332028D01*
X2257915Y334428D01*
X2257915Y336828D01*
X2256915Y339228D01*
X2254915Y340428D01*
G54D56*
X2241915Y316828D02*
X2241915Y326428D01*
X2242915Y326428D01*
X2244915Y325228D01*
X2250915Y318028D01*
X2252915Y316828D01*
X2254915Y316828D01*
X2256915Y318028D01*
X2257915Y320428D01*
X2257915Y322828D01*
X2256915Y325228D01*
X2254915Y326428D01*
M02*
