%FSLAX34Y34*%
%MOMM*%
%LNSMDMASK_BOTTOM*%
G71*
G01*
%ADD10R,1.300X1.900*%
%ADD11R,1.300X1.600*%
%ADD12R,1.300X1.000*%
%ADD13R,2.700X2.300*%
%ADD14R,3.100X2.300*%
%ADD15R,1.300X3.500*%
%ADD16R,1.900X2.200*%
%ADD17R,1.800X5.300*%
%ADD18R,1.500X2.800*%
%ADD19R,2.600X1.300*%
%ADD20R,2.000X1.500*%
%ADD21R,1.900X0.700*%
%ADD22R,2.600X1.200*%
%ADD23R,2.000X5.400*%
%ADD24R,1.500X1.200*%
%ADD25R,1.000X1.200*%
%ADD26R,0.800X0.800*%
%ADD27R,1.800X0.700*%
%LPD*%
X180578Y853679D02*
G54D10*
D03*
X211336Y853679D02*
G54D10*
D03*
X237530Y853679D02*
G54D10*
D03*
X268287Y853679D02*
G54D10*
D03*
X196652Y771525D02*
G54D11*
D03*
X219670Y771525D02*
G54D11*
D03*
X299046Y821531D02*
G54D11*
D03*
X322064Y821531D02*
G54D11*
D03*
X202605Y739775D02*
G54D11*
D03*
X225624Y739775D02*
G54D11*
D03*
X139502Y707628D02*
G54D11*
D03*
X162520Y707628D02*
G54D11*
D03*
X169664Y637778D02*
G54D11*
D03*
X192683Y637778D02*
G54D11*
D03*
X157758Y599877D02*
G54D11*
D03*
X180777Y599877D02*
G54D11*
D03*
X221258Y600274D02*
G54D11*
D03*
X244277Y600274D02*
G54D11*
D03*
X184150Y822127D02*
G54D12*
D03*
X207169Y822127D02*
G54D12*
D03*
X198040Y796727D02*
G54D12*
D03*
X221060Y796727D02*
G54D12*
D03*
X298847Y853480D02*
G54D12*
D03*
X321866Y853480D02*
G54D12*
D03*
X240903Y771327D02*
G54D12*
D03*
X263922Y771327D02*
G54D12*
D03*
X202803Y714177D02*
G54D12*
D03*
X225822Y714177D02*
G54D12*
D03*
X273050Y701080D02*
G54D12*
D03*
X296069Y701080D02*
G54D12*
D03*
X273050Y676077D02*
G54D12*
D03*
X296069Y676077D02*
G54D12*
D03*
X215305Y637580D02*
G54D12*
D03*
X238324Y637580D02*
G54D12*
D03*
X139303Y682427D02*
G54D12*
D03*
X162322Y682427D02*
G54D12*
D03*
X119856Y653852D02*
G54D12*
D03*
X142875Y653852D02*
G54D12*
D03*
X119856Y628452D02*
G54D12*
D03*
X142875Y628452D02*
G54D12*
D03*
X129778Y555427D02*
G54D12*
D03*
X152797Y555427D02*
G54D12*
D03*
X249039Y557808D02*
G54D11*
D03*
X272058Y557808D02*
G54D11*
D03*
X348655Y593527D02*
G54D11*
D03*
X371674Y593527D02*
G54D11*
D03*
X348258Y536377D02*
G54D11*
D03*
X371277Y536377D02*
G54D11*
D03*
X424458Y521097D02*
G54D11*
D03*
X447477Y521097D02*
G54D11*
D03*
X487958Y523478D02*
G54D11*
D03*
X510977Y523478D02*
G54D11*
D03*
X487958Y548878D02*
G54D11*
D03*
X510977Y548878D02*
G54D11*
D03*
X399058Y631428D02*
G54D11*
D03*
X422077Y631428D02*
G54D11*
D03*
X431205Y675878D02*
G54D11*
D03*
X454224Y675878D02*
G54D11*
D03*
X431205Y701278D02*
G54D11*
D03*
X454224Y701278D02*
G54D11*
D03*
X507008Y593725D02*
G54D11*
D03*
X530027Y593725D02*
G54D11*
D03*
X577652Y650280D02*
G54D11*
D03*
X600670Y650280D02*
G54D11*
D03*
X615355Y555030D02*
G54D11*
D03*
X638374Y555030D02*
G54D11*
D03*
X671314Y545505D02*
G54D11*
D03*
X694333Y545505D02*
G54D11*
D03*
X727670Y574477D02*
G54D11*
D03*
X750689Y574477D02*
G54D11*
D03*
X727670Y543917D02*
G54D11*
D03*
X750689Y543917D02*
G54D11*
D03*
X776089Y510977D02*
G54D11*
D03*
X799108Y510977D02*
G54D11*
D03*
X502047Y803077D02*
G54D12*
D03*
X525066Y803077D02*
G54D12*
D03*
X502047Y771724D02*
G54D12*
D03*
X525066Y771724D02*
G54D12*
D03*
X587772Y752277D02*
G54D12*
D03*
X610791Y752277D02*
G54D12*
D03*
X647700Y752277D02*
G54D12*
D03*
X670719Y752277D02*
G54D12*
D03*
X701874Y752475D02*
G54D12*
D03*
X724892Y752475D02*
G54D12*
D03*
X745926Y752475D02*
G54D12*
D03*
X768945Y752475D02*
G54D12*
D03*
X516334Y675680D02*
G54D12*
D03*
X539353Y675680D02*
G54D12*
D03*
X525066Y650280D02*
G54D12*
D03*
X548084Y650280D02*
G54D12*
D03*
X456010Y593527D02*
G54D12*
D03*
X479028Y593527D02*
G54D12*
D03*
X348456Y561777D02*
G54D12*
D03*
X371475Y561777D02*
G54D12*
D03*
X555625Y602655D02*
G54D12*
D03*
X578644Y602655D02*
G54D12*
D03*
X615553Y580827D02*
G54D12*
D03*
X638572Y580827D02*
G54D12*
D03*
X671116Y516136D02*
G54D12*
D03*
X694134Y516136D02*
G54D12*
D03*
X728662Y516136D02*
G54D12*
D03*
X751681Y516136D02*
G54D12*
D03*
X774700Y536774D02*
G54D12*
D03*
X797719Y536774D02*
G54D12*
D03*
X778669Y574874D02*
G54D12*
D03*
X801688Y574874D02*
G54D12*
D03*
X824111Y574874D02*
G54D11*
D03*
X847130Y574874D02*
G54D11*
D03*
X876498Y637580D02*
G54D11*
D03*
X899517Y637580D02*
G54D11*
D03*
X876498Y669330D02*
G54D11*
D03*
X899517Y669330D02*
G54D11*
D03*
X819348Y669727D02*
G54D11*
D03*
X842367Y669727D02*
G54D11*
D03*
X953889Y635596D02*
G54D11*
D03*
X976908Y635596D02*
G54D11*
D03*
X745133Y852488D02*
G54D12*
D03*
X768152Y852488D02*
G54D12*
D03*
X745133Y820341D02*
G54D12*
D03*
X768152Y820341D02*
G54D12*
D03*
X794345Y796925D02*
G54D12*
D03*
X817364Y796925D02*
G54D12*
D03*
X852289Y796925D02*
G54D12*
D03*
X875308Y796925D02*
G54D12*
D03*
X909042Y796925D02*
G54D12*
D03*
X932061Y796925D02*
G54D12*
D03*
X960041Y796925D02*
G54D12*
D03*
X983059Y796925D02*
G54D12*
D03*
X908447Y758825D02*
G54D12*
D03*
X931466Y758825D02*
G54D12*
D03*
X209352Y449858D02*
G54D11*
D03*
X232370Y449858D02*
G54D11*
D03*
X260548Y449858D02*
G54D11*
D03*
X283567Y449858D02*
G54D11*
D03*
X308967Y442317D02*
G54D11*
D03*
X331986Y442317D02*
G54D11*
D03*
X244674Y291108D02*
G54D11*
D03*
X267692Y291108D02*
G54D11*
D03*
X420886Y79177D02*
G54D11*
D03*
X443905Y79177D02*
G54D11*
D03*
X564555Y-80367D02*
G54D11*
D03*
X587574Y-80367D02*
G54D11*
D03*
X592931Y-440730D02*
G54D11*
D03*
X615950Y-440730D02*
G54D11*
D03*
X563563Y-518914D02*
G54D11*
D03*
X586581Y-518914D02*
G54D11*
D03*
X486172Y-567730D02*
G54D11*
D03*
X509191Y-567730D02*
G54D11*
D03*
X1872853Y-618133D02*
G54D11*
D03*
X1895872Y-618133D02*
G54D11*
D03*
X1876425Y-726083D02*
G54D11*
D03*
X1899444Y-726083D02*
G54D11*
D03*
X1987550Y-725686D02*
G54D11*
D03*
X2010569Y-725686D02*
G54D11*
D03*
X2070894Y-588764D02*
G54D11*
D03*
X2093911Y-588764D02*
G54D11*
D03*
X2073274Y-536376D02*
G54D11*
D03*
X2096292Y-536376D02*
G54D11*
D03*
X2073275Y-507008D02*
G54D11*
D03*
X2096292Y-507008D02*
G54D11*
D03*
X1981596Y-534789D02*
G54D11*
D03*
X2004614Y-534789D02*
G54D11*
D03*
X1981596Y-506611D02*
G54D11*
D03*
X2004614Y-506611D02*
G54D11*
D03*
X2042715Y-284758D02*
G54D11*
D03*
X2065733Y-284758D02*
G54D11*
D03*
X1666478Y-188714D02*
G54D11*
D03*
X1689495Y-188714D02*
G54D11*
D03*
X1650603Y-122039D02*
G54D11*
D03*
X1673620Y-122039D02*
G54D11*
D03*
X1712912Y-92670D02*
G54D11*
D03*
X1735930Y-92670D02*
G54D11*
D03*
X1693862Y-27980D02*
G54D11*
D03*
X1716880Y-27980D02*
G54D11*
D03*
X1608931Y-27583D02*
G54D11*
D03*
X1631948Y-27583D02*
G54D11*
D03*
X1765300Y-30758D02*
G54D11*
D03*
X1788317Y-30758D02*
G54D11*
D03*
X1416446Y86320D02*
G54D11*
D03*
X1439464Y86320D02*
G54D11*
D03*
X297260Y332383D02*
G54D12*
D03*
X320278Y332383D02*
G54D12*
D03*
X297260Y301427D02*
G54D12*
D03*
X320278Y301427D02*
G54D12*
D03*
X238125Y238720D02*
G54D12*
D03*
X261144Y238720D02*
G54D12*
D03*
X209153Y207764D02*
G54D12*
D03*
X232172Y207764D02*
G54D12*
D03*
X401240Y351036D02*
G54D12*
D03*
X424260Y351036D02*
G54D12*
D03*
X529431Y348258D02*
G54D12*
D03*
X552450Y348258D02*
G54D12*
D03*
X441722Y50602D02*
G54D12*
D03*
X464740Y50602D02*
G54D12*
D03*
X610791Y239117D02*
G54D12*
D03*
X633809Y239117D02*
G54D12*
D03*
X609997Y204192D02*
G54D12*
D03*
X633016Y204192D02*
G54D12*
D03*
X608012Y174824D02*
G54D12*
D03*
X631031Y174824D02*
G54D12*
D03*
X614362Y143074D02*
G54D12*
D03*
X637381Y143074D02*
G54D12*
D03*
X697706Y191492D02*
G54D12*
D03*
X720725Y191492D02*
G54D12*
D03*
X466328Y-135136D02*
G54D12*
D03*
X489347Y-135136D02*
G54D12*
D03*
X476250Y-332382D02*
G54D12*
D03*
X499269Y-332382D02*
G54D12*
D03*
X154384Y-632420D02*
G54D12*
D03*
X177403Y-632420D02*
G54D12*
D03*
X211534Y-632817D02*
G54D12*
D03*
X234553Y-632817D02*
G54D12*
D03*
X301625Y-668932D02*
G54D12*
D03*
X324644Y-668932D02*
G54D12*
D03*
X854075Y-657026D02*
G54D12*
D03*
X877094Y-657026D02*
G54D12*
D03*
X908844Y-374452D02*
G54D12*
D03*
X931862Y-374452D02*
G54D12*
D03*
X1135856Y-401439D02*
G54D12*
D03*
X1158875Y-401439D02*
G54D12*
D03*
X1135856Y-425252D02*
G54D12*
D03*
X1158875Y-425252D02*
G54D12*
D03*
X1281509Y-401439D02*
G54D12*
D03*
X1304528Y-401439D02*
G54D12*
D03*
X1281509Y-425252D02*
G54D12*
D03*
X1304528Y-425252D02*
G54D12*
D03*
X1383109Y-401637D02*
G54D12*
D03*
X1406128Y-401637D02*
G54D12*
D03*
X1383109Y-425450D02*
G54D12*
D03*
X1406128Y-425450D02*
G54D12*
D03*
X1461294Y-401836D02*
G54D12*
D03*
X1484312Y-401836D02*
G54D12*
D03*
X1504156Y-401836D02*
G54D12*
D03*
X1527175Y-401836D02*
G54D12*
D03*
X1574800Y-402232D02*
G54D12*
D03*
X1597819Y-402232D02*
G54D12*
D03*
X1618456Y-402232D02*
G54D12*
D03*
X1641475Y-402232D02*
G54D12*
D03*
X1739106Y-401637D02*
G54D12*
D03*
X1762125Y-401637D02*
G54D12*
D03*
X1739106Y-425450D02*
G54D12*
D03*
X1762125Y-425450D02*
G54D12*
D03*
X1866900Y-401637D02*
G54D12*
D03*
X1889919Y-401637D02*
G54D12*
D03*
X1866900Y-425450D02*
G54D12*
D03*
X1889919Y-425450D02*
G54D12*
D03*
X1987550Y-401637D02*
G54D12*
D03*
X2010569Y-401637D02*
G54D12*
D03*
X1987550Y-425450D02*
G54D12*
D03*
X2010569Y-425450D02*
G54D12*
D03*
X1981597Y-482004D02*
G54D12*
D03*
X2004616Y-482004D02*
G54D12*
D03*
X2073870Y-482203D02*
G54D12*
D03*
X2096888Y-482203D02*
G54D12*
D03*
X1967111Y-617934D02*
G54D12*
D03*
X1990129Y-617934D02*
G54D12*
D03*
X2070695Y-613966D02*
G54D12*
D03*
X2093713Y-613966D02*
G54D12*
D03*
X2046089Y-725488D02*
G54D12*
D03*
X2069107Y-725488D02*
G54D12*
D03*
X2102446Y-725488D02*
G54D12*
D03*
X2125471Y-725488D02*
G54D12*
D03*
X614759Y313730D02*
G54D12*
D03*
X637778Y313730D02*
G54D12*
D03*
X718741Y315714D02*
G54D12*
D03*
X741759Y315714D02*
G54D12*
D03*
X715962Y385564D02*
G54D12*
D03*
X738981Y385564D02*
G54D12*
D03*
X948134Y407392D02*
G54D12*
D03*
X971153Y407392D02*
G54D12*
D03*
X907256Y310555D02*
G54D12*
D03*
X930275Y310555D02*
G54D12*
D03*
X956072Y206574D02*
G54D12*
D03*
X979091Y206574D02*
G54D12*
D03*
X906859Y171252D02*
G54D12*
D03*
X929878Y171252D02*
G54D12*
D03*
X952103Y171252D02*
G54D12*
D03*
X975122Y171252D02*
G54D12*
D03*
X1268809Y295474D02*
G54D12*
D03*
X1291828Y295474D02*
G54D12*
D03*
X1244798Y397470D02*
G54D11*
D03*
X1267817Y397470D02*
G54D11*
D03*
X1197967Y324446D02*
G54D11*
D03*
X1220986Y324446D02*
G54D11*
D03*
X1179711Y191889D02*
G54D11*
D03*
X1202730Y191889D02*
G54D11*
D03*
X1244402Y191889D02*
G54D11*
D03*
X1267420Y191889D02*
G54D11*
D03*
X1547614Y291902D02*
G54D11*
D03*
X1570633Y291902D02*
G54D11*
D03*
X1652389Y555824D02*
G54D11*
D03*
X1675408Y555824D02*
G54D11*
D03*
X1212850Y237530D02*
G54D12*
D03*
X1235869Y237530D02*
G54D12*
D03*
X1198959Y214511D02*
G54D12*
D03*
X1221978Y214511D02*
G54D12*
D03*
X1244600Y168474D02*
G54D12*
D03*
X1267619Y168474D02*
G54D12*
D03*
X1302147Y154583D02*
G54D12*
D03*
X1325166Y154583D02*
G54D12*
D03*
X1305719Y110530D02*
G54D12*
D03*
X1328738Y110530D02*
G54D12*
D03*
X1327150Y86320D02*
G54D12*
D03*
X1350169Y86320D02*
G54D12*
D03*
X1231106Y-135930D02*
G54D12*
D03*
X1254125Y-135930D02*
G54D12*
D03*
X1424384Y-145852D02*
G54D12*
D03*
X1447403Y-145852D02*
G54D12*
D03*
X1583531Y-93861D02*
G54D12*
D03*
X1606550Y-93861D02*
G54D12*
D03*
X1583333Y-121444D02*
G54D12*
D03*
X1606352Y-121444D02*
G54D12*
D03*
X1583333Y-150812D02*
G54D12*
D03*
X1606352Y-150812D02*
G54D12*
D03*
X1650802Y-147042D02*
G54D12*
D03*
X1673820Y-147042D02*
G54D12*
D03*
X1661517Y-86717D02*
G54D12*
D03*
X1684536Y-86717D02*
G54D12*
D03*
X1662112Y-54173D02*
G54D12*
D03*
X1685131Y-54173D02*
G54D12*
D03*
X1674019Y12898D02*
G54D12*
D03*
X1697038Y12898D02*
G54D12*
D03*
X1719262Y12898D02*
G54D12*
D03*
X1742281Y12898D02*
G54D12*
D03*
X1716881Y-61714D02*
G54D12*
D03*
X1739900Y-61714D02*
G54D12*
D03*
X1769269Y2580D02*
G54D12*
D03*
X1792288Y2580D02*
G54D12*
D03*
X1779191Y-99020D02*
G54D12*
D03*
X1802209Y-99020D02*
G54D12*
D03*
X1779191Y-124023D02*
G54D12*
D03*
X1802209Y-124023D02*
G54D12*
D03*
X1826419Y-93861D02*
G54D12*
D03*
X1849438Y-93861D02*
G54D12*
D03*
X1916906Y-21630D02*
G54D12*
D03*
X1939925Y-21630D02*
G54D12*
D03*
X1898253Y19248D02*
G54D12*
D03*
X1921272Y19248D02*
G54D12*
D03*
X1900238Y134739D02*
G54D12*
D03*
X1923256Y134739D02*
G54D12*
D03*
X1900238Y158155D02*
G54D12*
D03*
X1923256Y158155D02*
G54D12*
D03*
X1902619Y291505D02*
G54D12*
D03*
X1925638Y291505D02*
G54D12*
D03*
X1902619Y314920D02*
G54D12*
D03*
X1925638Y314920D02*
G54D12*
D03*
X1903016Y424458D02*
G54D12*
D03*
X1926034Y424458D02*
G54D12*
D03*
X1903016Y447874D02*
G54D12*
D03*
X1926034Y447874D02*
G54D12*
D03*
X1397397Y158948D02*
G54D12*
D03*
X1420416Y158948D02*
G54D12*
D03*
X1467247Y201811D02*
G54D12*
D03*
X1490266Y201811D02*
G54D12*
D03*
X1467644Y160933D02*
G54D12*
D03*
X1490662Y160933D02*
G54D12*
D03*
X1479947Y124420D02*
G54D12*
D03*
X1502966Y124420D02*
G54D12*
D03*
X1481138Y81161D02*
G54D12*
D03*
X1504156Y81161D02*
G54D12*
D03*
X1548606Y206970D02*
G54D12*
D03*
X1571625Y206970D02*
G54D12*
D03*
X1543844Y175617D02*
G54D12*
D03*
X1566862Y175617D02*
G54D12*
D03*
X1566466Y148630D02*
G54D12*
D03*
X1589484Y148630D02*
G54D12*
D03*
X1315244Y365720D02*
G54D12*
D03*
X1338262Y365720D02*
G54D12*
D03*
X1389856Y365720D02*
G54D12*
D03*
X1412875Y365720D02*
G54D12*
D03*
X1442244Y320874D02*
G54D12*
D03*
X1465262Y320874D02*
G54D12*
D03*
X1275953Y513755D02*
G54D12*
D03*
X1298972Y513755D02*
G54D12*
D03*
X1436291Y523677D02*
G54D12*
D03*
X1459309Y523677D02*
G54D12*
D03*
X1436688Y612577D02*
G54D12*
D03*
X1459706Y612577D02*
G54D12*
D03*
X1481931Y682824D02*
G54D12*
D03*
X1504950Y682824D02*
G54D12*
D03*
X1570038Y600274D02*
G54D12*
D03*
X1593056Y600274D02*
G54D12*
D03*
X1684338Y600274D02*
G54D12*
D03*
X1707356Y600274D02*
G54D12*
D03*
X1966516Y529233D02*
G54D12*
D03*
X1989534Y529233D02*
G54D12*
D03*
X2026444Y529630D02*
G54D12*
D03*
X2049462Y529630D02*
G54D12*
D03*
X1837928Y502444D02*
G54D11*
D03*
X1860947Y502444D02*
G54D11*
D03*
X1953022Y678855D02*
G54D12*
D03*
X1976041Y678855D02*
G54D12*
D03*
X1999853Y673696D02*
G54D12*
D03*
X2022872Y673696D02*
G54D12*
D03*
X1881981Y642342D02*
G54D12*
D03*
X1905000Y642342D02*
G54D12*
D03*
X1792684Y637977D02*
G54D12*
D03*
X1815703Y637977D02*
G54D12*
D03*
X1792684Y669925D02*
G54D11*
D03*
X1815703Y669925D02*
G54D11*
D03*
X1736725Y714375D02*
G54D11*
D03*
X1759744Y714375D02*
G54D11*
D03*
X1738313Y766763D02*
G54D11*
D03*
X1761331Y766763D02*
G54D11*
D03*
X1799431Y733425D02*
G54D11*
D03*
X1822450Y733425D02*
G54D11*
D03*
X1875631Y752872D02*
G54D11*
D03*
X1898650Y752872D02*
G54D11*
D03*
X2186980Y745331D02*
G54D11*
D03*
X2209999Y745331D02*
G54D11*
D03*
X1297384Y803474D02*
G54D12*
D03*
X1320403Y803474D02*
G54D12*
D03*
X1357709Y810617D02*
G54D12*
D03*
X1380728Y810617D02*
G54D12*
D03*
X1386284Y756246D02*
G54D12*
D03*
X1409303Y756246D02*
G54D12*
D03*
X1487488Y832446D02*
G54D12*
D03*
X1510506Y832446D02*
G54D12*
D03*
X1510903Y768152D02*
G54D12*
D03*
X1533922Y768152D02*
G54D12*
D03*
X1631950Y841177D02*
G54D12*
D03*
X1654969Y841177D02*
G54D12*
D03*
X1662112Y762992D02*
G54D12*
D03*
X1685131Y762992D02*
G54D12*
D03*
X1799828Y796727D02*
G54D12*
D03*
X1822847Y796727D02*
G54D12*
D03*
X1799828Y765374D02*
G54D12*
D03*
X1822847Y765374D02*
G54D12*
D03*
X1799034Y701477D02*
G54D12*
D03*
X1822053Y701477D02*
G54D12*
D03*
X1869281Y809427D02*
G54D12*
D03*
X1892300Y809427D02*
G54D12*
D03*
X1876028Y784820D02*
G54D12*
D03*
X1899047Y784820D02*
G54D12*
D03*
X1958578Y765374D02*
G54D12*
D03*
X1981597Y765374D02*
G54D12*
D03*
X2034381Y765374D02*
G54D12*
D03*
X2057400Y765374D02*
G54D12*
D03*
X2123678Y765374D02*
G54D12*
D03*
X2146697Y765374D02*
G54D12*
D03*
X2179638Y797520D02*
G54D12*
D03*
X2202656Y797520D02*
G54D12*
D03*
X2186781Y772914D02*
G54D12*
D03*
X2209800Y772914D02*
G54D12*
D03*
X633412Y643533D02*
G54D12*
D03*
X656432Y643533D02*
G54D12*
D03*
X336748Y675878D02*
G54D13*
D03*
X381595Y675879D02*
G54D13*
D03*
X812837Y398426D02*
G54D13*
D03*
X767990Y398426D02*
G54D13*
D03*
X1494073Y364890D02*
G54D13*
D03*
X1449226Y364890D02*
G54D13*
D03*
X1982626Y720689D02*
G54D13*
D03*
X1937780Y720688D02*
G54D13*
D03*
X2010407Y636154D02*
G54D13*
D03*
X1965561Y636154D02*
G54D13*
D03*
X1177332Y472721D02*
G54D13*
D03*
G36*
X1208678Y484222D02*
X1235678Y484222D01*
X1235678Y461222D01*
X1208678Y461222D01*
X1208678Y484222D01*
G37*
G36*
X1200741Y103618D02*
X1227741Y103618D01*
X1227741Y80618D01*
X1200741Y80618D01*
X1200741Y103618D01*
G37*
X1259088Y92118D02*
G54D13*
D03*
X814586Y190302D02*
G54D14*
D03*
X874911Y190302D02*
G54D14*
D03*
X617946Y60169D02*
G54D14*
D03*
X557621Y60169D02*
G54D14*
D03*
X1948668Y-123187D02*
G54D14*
D03*
X1888343Y-123188D02*
G54D14*
D03*
G36*
X1273369Y751318D02*
X1300369Y751318D01*
X1300369Y728318D01*
X1273369Y728318D01*
X1273369Y751318D01*
G37*
X1331716Y739818D02*
G54D13*
D03*
X192286Y682229D02*
G54D10*
D03*
X223044Y682229D02*
G54D10*
D03*
X1954808Y796926D02*
G54D10*
D03*
X1985565Y796926D02*
G54D10*
D03*
X2030611Y796529D02*
G54D10*
D03*
X2061368Y796529D02*
G54D10*
D03*
X2114352Y796926D02*
G54D10*
D03*
X2145109Y796926D02*
G54D10*
D03*
X646906Y394097D02*
G54D15*
D03*
X692746Y394097D02*
G54D15*
D03*
X1000522Y171450D02*
G54D15*
D03*
X1046361Y171450D02*
G54D15*
D03*
X1220788Y35322D02*
G54D15*
D03*
X1266627Y35322D02*
G54D15*
D03*
X1526381Y346472D02*
G54D15*
D03*
X1572220Y346472D02*
G54D15*
D03*
X1851422Y676275D02*
G54D15*
D03*
X1897261Y676275D02*
G54D15*
D03*
X2023269Y708422D02*
G54D15*
D03*
X2069108Y708422D02*
G54D15*
D03*
X1760538Y587772D02*
G54D16*
D03*
X1806377Y587772D02*
G54D16*
D03*
X1422003Y790178D02*
G54D16*
D03*
X1467842Y790178D02*
G54D16*
D03*
X1501378Y530622D02*
G54D16*
D03*
X1547217Y530622D02*
G54D16*
D03*
X1341835Y479425D02*
G54D16*
D03*
X1387674Y479425D02*
G54D16*
D03*
X1829197Y-55166D02*
G54D16*
D03*
X1875036Y-55166D02*
G54D16*
D03*
X256976Y382984D02*
G54D17*
D03*
X316905Y382984D02*
G54D17*
D03*
X212526Y-370483D02*
G54D18*
D03*
X246261Y-370483D02*
G54D18*
D03*
X125214Y739576D02*
G54D19*
D03*
X163314Y739576D02*
G54D19*
D03*
X978694Y688975D02*
G54D20*
D03*
X978694Y665758D02*
G54D20*
D03*
X946944Y677267D02*
G54D20*
D03*
X298895Y-503815D02*
G54D21*
D03*
X298895Y-516515D02*
G54D21*
D03*
X298895Y-529215D02*
G54D21*
D03*
X298895Y-541915D02*
G54D21*
D03*
X298895Y-554615D02*
G54D21*
D03*
X298895Y-567315D02*
G54D21*
D03*
X298895Y-580015D02*
G54D21*
D03*
X298895Y-592715D02*
G54D21*
D03*
X298895Y-605415D02*
G54D21*
D03*
X298895Y-618115D02*
G54D21*
D03*
X400420Y-618115D02*
G54D21*
D03*
X400420Y-605415D02*
G54D21*
D03*
X400420Y-592715D02*
G54D21*
D03*
X400420Y-580015D02*
G54D21*
D03*
X400420Y-567315D02*
G54D21*
D03*
X400420Y-554615D02*
G54D21*
D03*
X400420Y-541915D02*
G54D21*
D03*
X400420Y-529215D02*
G54D21*
D03*
X400420Y-516515D02*
G54D21*
D03*
X400420Y-503815D02*
G54D21*
D03*
X623936Y-503815D02*
G54D21*
D03*
X623936Y-516515D02*
G54D21*
D03*
X623936Y-529215D02*
G54D21*
D03*
X623936Y-541915D02*
G54D21*
D03*
X623936Y-554615D02*
G54D21*
D03*
X623936Y-567315D02*
G54D21*
D03*
X623936Y-580015D02*
G54D21*
D03*
X623936Y-592715D02*
G54D21*
D03*
X623936Y-605415D02*
G54D21*
D03*
X623936Y-618115D02*
G54D21*
D03*
X725461Y-618115D02*
G54D21*
D03*
X725461Y-605415D02*
G54D21*
D03*
X725461Y-592715D02*
G54D21*
D03*
X725461Y-580015D02*
G54D21*
D03*
X725461Y-567315D02*
G54D21*
D03*
X725461Y-554615D02*
G54D21*
D03*
X725461Y-541915D02*
G54D21*
D03*
X725461Y-529215D02*
G54D21*
D03*
X725461Y-516515D02*
G54D21*
D03*
X725461Y-503815D02*
G54D21*
D03*
X289370Y219490D02*
G54D21*
D03*
X289370Y206790D02*
G54D21*
D03*
X289370Y194090D02*
G54D21*
D03*
X289370Y181390D02*
G54D21*
D03*
X289370Y168690D02*
G54D21*
D03*
X289370Y155990D02*
G54D21*
D03*
X289370Y143290D02*
G54D21*
D03*
X289370Y130590D02*
G54D21*
D03*
X289370Y117890D02*
G54D21*
D03*
X289370Y105190D02*
G54D21*
D03*
X390895Y105190D02*
G54D21*
D03*
X390895Y117890D02*
G54D21*
D03*
X390895Y130590D02*
G54D21*
D03*
X390895Y143290D02*
G54D21*
D03*
X390895Y155990D02*
G54D21*
D03*
X390895Y168690D02*
G54D21*
D03*
X390895Y181390D02*
G54D21*
D03*
X390895Y194090D02*
G54D21*
D03*
X390895Y206790D02*
G54D21*
D03*
X390895Y219490D02*
G54D21*
D03*
X474662Y130572D02*
G54D21*
D03*
X474662Y143272D02*
G54D21*
D03*
X474662Y155972D02*
G54D21*
D03*
X474662Y168672D02*
G54D21*
D03*
X474662Y181372D02*
G54D21*
D03*
X474662Y194072D02*
G54D21*
D03*
X474662Y206772D02*
G54D21*
D03*
X474662Y219472D02*
G54D21*
D03*
X548662Y219472D02*
G54D21*
D03*
X548662Y206772D02*
G54D21*
D03*
X548662Y194072D02*
G54D21*
D03*
X548662Y181372D02*
G54D21*
D03*
X548662Y168672D02*
G54D21*
D03*
X548662Y155972D02*
G54D21*
D03*
X548662Y143272D02*
G54D21*
D03*
X548662Y130572D02*
G54D21*
D03*
X1333897Y219472D02*
G54D21*
D03*
X1333897Y232172D02*
G54D21*
D03*
X1333897Y244872D02*
G54D21*
D03*
X1333897Y257572D02*
G54D21*
D03*
X1333897Y270272D02*
G54D21*
D03*
X1333897Y282972D02*
G54D21*
D03*
X1333897Y295672D02*
G54D21*
D03*
X1333897Y308372D02*
G54D21*
D03*
X1407897Y308372D02*
G54D21*
D03*
X1407897Y295672D02*
G54D21*
D03*
X1407897Y282972D02*
G54D21*
D03*
X1407897Y270272D02*
G54D21*
D03*
X1407897Y257572D02*
G54D21*
D03*
X1407897Y244872D02*
G54D21*
D03*
X1407897Y232172D02*
G54D21*
D03*
X1407897Y219472D02*
G54D21*
D03*
X1660128Y206772D02*
G54D21*
D03*
X1660128Y219472D02*
G54D21*
D03*
X1660128Y232172D02*
G54D21*
D03*
X1660128Y244872D02*
G54D21*
D03*
X1660128Y257572D02*
G54D21*
D03*
X1660128Y270272D02*
G54D21*
D03*
X1660128Y282972D02*
G54D21*
D03*
X1660128Y295672D02*
G54D21*
D03*
X1734128Y295672D02*
G54D21*
D03*
X1734128Y282972D02*
G54D21*
D03*
X1734128Y270272D02*
G54D21*
D03*
X1734128Y257572D02*
G54D21*
D03*
X1734128Y244872D02*
G54D21*
D03*
X1734128Y232172D02*
G54D21*
D03*
X1734128Y219472D02*
G54D21*
D03*
X1734128Y206772D02*
G54D21*
D03*
X1660128Y48022D02*
G54D21*
D03*
X1660128Y60722D02*
G54D21*
D03*
X1660128Y73422D02*
G54D21*
D03*
X1660128Y86122D02*
G54D21*
D03*
X1660128Y98822D02*
G54D21*
D03*
X1660128Y111522D02*
G54D21*
D03*
X1660128Y124222D02*
G54D21*
D03*
X1660128Y136922D02*
G54D21*
D03*
X1734128Y136922D02*
G54D21*
D03*
X1734128Y124222D02*
G54D21*
D03*
X1734128Y111522D02*
G54D21*
D03*
X1734128Y98822D02*
G54D21*
D03*
X1734128Y86122D02*
G54D21*
D03*
X1734128Y73422D02*
G54D21*
D03*
X1734128Y60722D02*
G54D21*
D03*
X1734128Y48022D02*
G54D21*
D03*
X1485503Y-46831D02*
G54D21*
D03*
X1485503Y-34131D02*
G54D21*
D03*
X1485503Y-21431D02*
G54D21*
D03*
X1485503Y-8731D02*
G54D21*
D03*
X1485503Y3969D02*
G54D21*
D03*
X1485503Y16669D02*
G54D21*
D03*
X1485503Y29369D02*
G54D21*
D03*
X1485503Y42069D02*
G54D21*
D03*
X1559503Y42069D02*
G54D21*
D03*
X1559503Y29369D02*
G54D21*
D03*
X1559503Y16669D02*
G54D21*
D03*
X1559503Y3969D02*
G54D21*
D03*
X1559503Y-8731D02*
G54D21*
D03*
X1559503Y-21431D02*
G54D21*
D03*
X1559503Y-34131D02*
G54D21*
D03*
X1559503Y-46831D02*
G54D21*
D03*
X1850231Y-156964D02*
G54D22*
D03*
X1850231Y-203002D02*
G54D22*
D03*
X1946274Y-179983D02*
G54D23*
D03*
X358441Y822949D02*
G54D20*
D03*
X358441Y846166D02*
G54D20*
D03*
X390191Y834656D02*
G54D20*
D03*
X234752Y824706D02*
G54D24*
D03*
X268288Y824706D02*
G54D24*
D03*
X423862Y545902D02*
G54D25*
D03*
X444500Y545902D02*
G54D25*
D03*
X141288Y766366D02*
G54D26*
D03*
X174228Y766366D02*
G54D26*
D03*
X107950Y711200D02*
G54D26*
D03*
X179784Y707628D02*
G54D26*
D03*
X171847Y659209D02*
G54D26*
D03*
X199231Y595312D02*
G54D26*
D03*
X268288Y654844D02*
G54D26*
D03*
X844499Y-630884D02*
G54D27*
D03*
X844499Y-618184D02*
G54D27*
D03*
X844499Y-605484D02*
G54D27*
D03*
X844499Y-592784D02*
G54D27*
D03*
X844499Y-580084D02*
G54D27*
D03*
X844499Y-567384D02*
G54D27*
D03*
X844499Y-554684D02*
G54D27*
D03*
X788546Y-554684D02*
G54D27*
D03*
X788546Y-567384D02*
G54D27*
D03*
X788546Y-580084D02*
G54D27*
D03*
X788546Y-592784D02*
G54D27*
D03*
X788546Y-605484D02*
G54D27*
D03*
X788546Y-618184D02*
G54D27*
D03*
X788546Y-630884D02*
G54D27*
D03*
X564356Y-542330D02*
G54D12*
D03*
X587375Y-542330D02*
G54D12*
D03*
X547688Y754459D02*
G54D26*
D03*
X767953Y713978D02*
G54D26*
D03*
X796528Y770731D02*
G54D26*
D03*
X821928Y770731D02*
G54D26*
D03*
X848519Y770731D02*
G54D26*
D03*
X873522Y771128D02*
G54D26*
D03*
X919162Y669330D02*
G54D26*
D03*
X685006Y565944D02*
G54D26*
D03*
X215503Y353219D02*
G54D26*
D03*
X254000Y213916D02*
G54D26*
D03*
X754062Y-554831D02*
G54D26*
D03*
X767953Y-599678D02*
G54D26*
D03*
X864791Y-580231D02*
G54D26*
D03*
X1993106Y-574675D02*
G54D26*
D03*
X1968103Y-724694D02*
G54D26*
D03*
X1919684Y-76597D02*
G54D26*
D03*
X1893888Y-76200D02*
G54D26*
D03*
X1758553Y-92075D02*
G54D26*
D03*
X1625203Y-109934D02*
G54D26*
D03*
X1438275Y-7540D02*
G54D26*
D03*
X1428353Y-34131D02*
G54D26*
D03*
X1568053Y121047D02*
G54D26*
D03*
X1306116Y229791D02*
G54D26*
D03*
X1428750Y270669D02*
G54D26*
D03*
X1303734Y323056D02*
G54D26*
D03*
X1221184Y369888D02*
G54D26*
D03*
X1242219Y-22622D02*
G54D26*
D03*
X464740Y446484D02*
G54D26*
D03*
M02*
