%FSLAX34Y34*%
%MOMM*%
%LNOUTLINE*%
G71*
G01*
%ADD10C,0.150*%
%ADD11C,0.200*%
%LPD*%
G54D10*
G75*
G01X546100Y-450850D02*
G03X546100Y-450850I-12700J0D01*
G01*
G54D10*
G75*
G01X932930Y-553348D02*
G03X932930Y-553348I-11500J0D01*
G01*
G54D10*
G75*
G01X2053911Y-553348D02*
G03X2053911Y-553348I-12500J0D01*
G01*
G54D10*
G75*
G01X1492730Y-553348D02*
G03X1492730Y-553348I-12500J0D01*
G01*
G54D11*
G75*
G01X1183117Y-643627D02*
G03X1163117Y-663627I0J-20000D01*
G01*
G54D11*
G75*
G01X1816405Y-663627D02*
G03X1796405Y-643627I-20000J0D01*
G01*
G54D11*
X2279856Y315075D02*
X2279856Y-33925D01*
X2244856Y-33925D01*
X2244856Y-86925D01*
X2244875Y-86944D01*
X2279837Y-86944D01*
X2279837Y-267925D01*
X2258337Y-272925D01*
X2248837Y-274925D01*
X2271837Y-389925D01*
X2279837Y-423925D01*
X2279837Y-425925D01*
X2258337Y-430925D01*
X2248837Y-432925D01*
X2267837Y-528925D01*
X2279837Y-528925D01*
X2279856Y-828925D01*
X2279856Y-840425D01*
X2279739Y-840808D01*
X1849742Y-840808D01*
G54D11*
X2279856Y405075D02*
X2279856Y943825D01*
X654859Y944075D01*
X632859Y922075D01*
X632859Y876075D01*
X627859Y871075D01*
X616859Y871075D01*
X611859Y876075D01*
X611859Y921075D01*
X588859Y944075D01*
X39860Y943825D01*
X39860Y-32925D01*
X73860Y-32925D01*
X73860Y-85925D01*
X39860Y-85925D01*
X39860Y-265925D01*
X61360Y-270925D01*
X70860Y-272925D01*
X47860Y-387925D01*
X39860Y-421925D01*
X39860Y-423925D01*
X61360Y-428925D01*
X70860Y-430925D01*
X51860Y-526925D01*
X39860Y-526925D01*
X39860Y-841175D01*
X1151859Y-840925D01*
G54D11*
X1183117Y-643627D02*
X1796405Y-643627D01*
G54D11*
X1163117Y-663627D02*
X1163117Y-840925D01*
X1151859Y-840925D01*
G54D11*
X1816405Y-663627D02*
X1816405Y-840808D01*
X1849742Y-840808D01*
G54D11*
X2279856Y315075D02*
X2279856Y405075D01*
G54D11*
G75*
G01X115887Y887016D02*
G03X115887Y887016I-18256J0D01*
G01*
G54D11*
G75*
G01X115887Y-775494D02*
G03X115887Y-775494I-18256J0D01*
G01*
G54D11*
G75*
G01X2239565Y-778669D02*
G03X2239565Y-778669I-18256J0D01*
G01*
M02*
